<mxfile host="app.diagrams.net" modified="2024-01-07T22:53:10.096Z" agent="Mozilla/5.0 (Macintosh; Intel Mac OS X 10_15_7) AppleWebKit/605.1.15 (KHTML, like Gecko) Version/17.2.1 Safari/605.1.15" etag="ZfOYqEo5rTA21499L51S" version="22.1.17" type="github" pages="2">
  <diagram name="infological" id="7W8YvwUOFl--aNOBSr01">
    <mxGraphModel dx="2209" dy="965" grid="1" gridSize="11" guides="1" tooltips="1" connect="1" arrows="1" fold="1" page="1" pageScale="1" pageWidth="827" pageHeight="1169" math="0" shadow="0">
      <root>
        <mxCell id="0" />
        <mxCell id="1" parent="0" />
        <mxCell id="_oJygsqH6rhFZPLLzzwx-1" value="movies" style="shape=table;startSize=30;container=1;collapsible=1;childLayout=tableLayout;fixedRows=1;rowLines=0;fontStyle=1;align=center;resizeLast=1;html=1;" vertex="1" parent="1">
          <mxGeometry x="121" y="143" width="180" height="270" as="geometry" />
        </mxCell>
        <mxCell id="_oJygsqH6rhFZPLLzzwx-2" value="" style="shape=tableRow;horizontal=0;startSize=0;swimlaneHead=0;swimlaneBody=0;fillColor=none;collapsible=0;dropTarget=0;points=[[0,0.5],[1,0.5]];portConstraint=eastwest;top=0;left=0;right=0;bottom=1;" vertex="1" parent="_oJygsqH6rhFZPLLzzwx-1">
          <mxGeometry y="30" width="180" height="30" as="geometry" />
        </mxCell>
        <mxCell id="_oJygsqH6rhFZPLLzzwx-3" value="PK" style="shape=partialRectangle;connectable=0;fillColor=none;top=0;left=0;bottom=0;right=0;fontStyle=1;overflow=hidden;whiteSpace=wrap;html=1;" vertex="1" parent="_oJygsqH6rhFZPLLzzwx-2">
          <mxGeometry width="30" height="30" as="geometry">
            <mxRectangle width="30" height="30" as="alternateBounds" />
          </mxGeometry>
        </mxCell>
        <mxCell id="_oJygsqH6rhFZPLLzzwx-4" value="id" style="shape=partialRectangle;connectable=0;fillColor=none;top=0;left=0;bottom=0;right=0;align=left;spacingLeft=6;fontStyle=5;overflow=hidden;whiteSpace=wrap;html=1;" vertex="1" parent="_oJygsqH6rhFZPLLzzwx-2">
          <mxGeometry x="30" width="150" height="30" as="geometry">
            <mxRectangle width="150" height="30" as="alternateBounds" />
          </mxGeometry>
        </mxCell>
        <mxCell id="_oJygsqH6rhFZPLLzzwx-5" value="" style="shape=tableRow;horizontal=0;startSize=0;swimlaneHead=0;swimlaneBody=0;fillColor=none;collapsible=0;dropTarget=0;points=[[0,0.5],[1,0.5]];portConstraint=eastwest;top=0;left=0;right=0;bottom=0;" vertex="1" parent="_oJygsqH6rhFZPLLzzwx-1">
          <mxGeometry y="60" width="180" height="30" as="geometry" />
        </mxCell>
        <mxCell id="_oJygsqH6rhFZPLLzzwx-6" value="" style="shape=partialRectangle;connectable=0;fillColor=none;top=0;left=0;bottom=0;right=0;editable=1;overflow=hidden;whiteSpace=wrap;html=1;" vertex="1" parent="_oJygsqH6rhFZPLLzzwx-5">
          <mxGeometry width="30" height="30" as="geometry">
            <mxRectangle width="30" height="30" as="alternateBounds" />
          </mxGeometry>
        </mxCell>
        <mxCell id="_oJygsqH6rhFZPLLzzwx-7" value="title" style="shape=partialRectangle;connectable=0;fillColor=none;top=0;left=0;bottom=0;right=0;align=left;spacingLeft=6;overflow=hidden;whiteSpace=wrap;html=1;" vertex="1" parent="_oJygsqH6rhFZPLLzzwx-5">
          <mxGeometry x="30" width="150" height="30" as="geometry">
            <mxRectangle width="150" height="30" as="alternateBounds" />
          </mxGeometry>
        </mxCell>
        <mxCell id="_oJygsqH6rhFZPLLzzwx-8" value="" style="shape=tableRow;horizontal=0;startSize=0;swimlaneHead=0;swimlaneBody=0;fillColor=none;collapsible=0;dropTarget=0;points=[[0,0.5],[1,0.5]];portConstraint=eastwest;top=0;left=0;right=0;bottom=0;" vertex="1" parent="_oJygsqH6rhFZPLLzzwx-1">
          <mxGeometry y="90" width="180" height="30" as="geometry" />
        </mxCell>
        <mxCell id="_oJygsqH6rhFZPLLzzwx-9" value="" style="shape=partialRectangle;connectable=0;fillColor=none;top=0;left=0;bottom=0;right=0;editable=1;overflow=hidden;whiteSpace=wrap;html=1;" vertex="1" parent="_oJygsqH6rhFZPLLzzwx-8">
          <mxGeometry width="30" height="30" as="geometry">
            <mxRectangle width="30" height="30" as="alternateBounds" />
          </mxGeometry>
        </mxCell>
        <mxCell id="_oJygsqH6rhFZPLLzzwx-10" value="duration" style="shape=partialRectangle;connectable=0;fillColor=none;top=0;left=0;bottom=0;right=0;align=left;spacingLeft=6;overflow=hidden;whiteSpace=wrap;html=1;" vertex="1" parent="_oJygsqH6rhFZPLLzzwx-8">
          <mxGeometry x="30" width="150" height="30" as="geometry">
            <mxRectangle width="150" height="30" as="alternateBounds" />
          </mxGeometry>
        </mxCell>
        <mxCell id="_oJygsqH6rhFZPLLzzwx-11" value="" style="shape=tableRow;horizontal=0;startSize=0;swimlaneHead=0;swimlaneBody=0;fillColor=none;collapsible=0;dropTarget=0;points=[[0,0.5],[1,0.5]];portConstraint=eastwest;top=0;left=0;right=0;bottom=0;" vertex="1" parent="_oJygsqH6rhFZPLLzzwx-1">
          <mxGeometry y="120" width="180" height="30" as="geometry" />
        </mxCell>
        <mxCell id="_oJygsqH6rhFZPLLzzwx-12" value="" style="shape=partialRectangle;connectable=0;fillColor=none;top=0;left=0;bottom=0;right=0;editable=1;overflow=hidden;whiteSpace=wrap;html=1;" vertex="1" parent="_oJygsqH6rhFZPLLzzwx-11">
          <mxGeometry width="30" height="30" as="geometry">
            <mxRectangle width="30" height="30" as="alternateBounds" />
          </mxGeometry>
        </mxCell>
        <mxCell id="_oJygsqH6rhFZPLLzzwx-13" value="synopsis" style="shape=partialRectangle;connectable=0;fillColor=none;top=0;left=0;bottom=0;right=0;align=left;spacingLeft=6;overflow=hidden;whiteSpace=wrap;html=1;" vertex="1" parent="_oJygsqH6rhFZPLLzzwx-11">
          <mxGeometry x="30" width="150" height="30" as="geometry">
            <mxRectangle width="150" height="30" as="alternateBounds" />
          </mxGeometry>
        </mxCell>
        <mxCell id="_oJygsqH6rhFZPLLzzwx-14" value="" style="shape=tableRow;horizontal=0;startSize=0;swimlaneHead=0;swimlaneBody=0;fillColor=none;collapsible=0;dropTarget=0;points=[[0,0.5],[1,0.5]];portConstraint=eastwest;top=0;left=0;right=0;bottom=0;" vertex="1" parent="_oJygsqH6rhFZPLLzzwx-1">
          <mxGeometry y="150" width="180" height="30" as="geometry" />
        </mxCell>
        <mxCell id="_oJygsqH6rhFZPLLzzwx-15" value="" style="shape=partialRectangle;connectable=0;fillColor=none;top=0;left=0;bottom=0;right=0;editable=1;overflow=hidden;whiteSpace=wrap;html=1;" vertex="1" parent="_oJygsqH6rhFZPLLzzwx-14">
          <mxGeometry width="30" height="30" as="geometry">
            <mxRectangle width="30" height="30" as="alternateBounds" />
          </mxGeometry>
        </mxCell>
        <mxCell id="_oJygsqH6rhFZPLLzzwx-16" value="release_date" style="shape=partialRectangle;connectable=0;fillColor=none;top=0;left=0;bottom=0;right=0;align=left;spacingLeft=6;overflow=hidden;whiteSpace=wrap;html=1;" vertex="1" parent="_oJygsqH6rhFZPLLzzwx-14">
          <mxGeometry x="30" width="150" height="30" as="geometry">
            <mxRectangle width="150" height="30" as="alternateBounds" />
          </mxGeometry>
        </mxCell>
        <mxCell id="_oJygsqH6rhFZPLLzzwx-17" value="" style="shape=tableRow;horizontal=0;startSize=0;swimlaneHead=0;swimlaneBody=0;fillColor=none;collapsible=0;dropTarget=0;points=[[0,0.5],[1,0.5]];portConstraint=eastwest;top=0;left=0;right=0;bottom=0;" vertex="1" parent="_oJygsqH6rhFZPLLzzwx-1">
          <mxGeometry y="180" width="180" height="30" as="geometry" />
        </mxCell>
        <mxCell id="_oJygsqH6rhFZPLLzzwx-18" value="" style="shape=partialRectangle;connectable=0;fillColor=none;top=0;left=0;bottom=0;right=0;editable=1;overflow=hidden;whiteSpace=wrap;html=1;" vertex="1" parent="_oJygsqH6rhFZPLLzzwx-17">
          <mxGeometry width="30" height="30" as="geometry">
            <mxRectangle width="30" height="30" as="alternateBounds" />
          </mxGeometry>
        </mxCell>
        <mxCell id="_oJygsqH6rhFZPLLzzwx-19" value="thumbnail_url" style="shape=partialRectangle;connectable=0;fillColor=none;top=0;left=0;bottom=0;right=0;align=left;spacingLeft=6;overflow=hidden;whiteSpace=wrap;html=1;" vertex="1" parent="_oJygsqH6rhFZPLLzzwx-17">
          <mxGeometry x="30" width="150" height="30" as="geometry">
            <mxRectangle width="150" height="30" as="alternateBounds" />
          </mxGeometry>
        </mxCell>
        <mxCell id="_oJygsqH6rhFZPLLzzwx-20" value="" style="shape=tableRow;horizontal=0;startSize=0;swimlaneHead=0;swimlaneBody=0;fillColor=none;collapsible=0;dropTarget=0;points=[[0,0.5],[1,0.5]];portConstraint=eastwest;top=0;left=0;right=0;bottom=0;" vertex="1" parent="_oJygsqH6rhFZPLLzzwx-1">
          <mxGeometry y="210" width="180" height="30" as="geometry" />
        </mxCell>
        <mxCell id="_oJygsqH6rhFZPLLzzwx-21" value="" style="shape=partialRectangle;connectable=0;fillColor=none;top=0;left=0;bottom=0;right=0;editable=1;overflow=hidden;whiteSpace=wrap;html=1;" vertex="1" parent="_oJygsqH6rhFZPLLzzwx-20">
          <mxGeometry width="30" height="30" as="geometry">
            <mxRectangle width="30" height="30" as="alternateBounds" />
          </mxGeometry>
        </mxCell>
        <mxCell id="_oJygsqH6rhFZPLLzzwx-22" value="trailer_url" style="shape=partialRectangle;connectable=0;fillColor=none;top=0;left=0;bottom=0;right=0;align=left;spacingLeft=6;overflow=hidden;whiteSpace=wrap;html=1;" vertex="1" parent="_oJygsqH6rhFZPLLzzwx-20">
          <mxGeometry x="30" width="150" height="30" as="geometry">
            <mxRectangle width="150" height="30" as="alternateBounds" />
          </mxGeometry>
        </mxCell>
        <mxCell id="_oJygsqH6rhFZPLLzzwx-23" value="" style="shape=tableRow;horizontal=0;startSize=0;swimlaneHead=0;swimlaneBody=0;fillColor=none;collapsible=0;dropTarget=0;points=[[0,0.5],[1,0.5]];portConstraint=eastwest;top=0;left=0;right=0;bottom=0;" vertex="1" parent="_oJygsqH6rhFZPLLzzwx-1">
          <mxGeometry y="240" width="180" height="30" as="geometry" />
        </mxCell>
        <mxCell id="_oJygsqH6rhFZPLLzzwx-24" value="" style="shape=partialRectangle;connectable=0;fillColor=none;top=0;left=0;bottom=0;right=0;editable=1;overflow=hidden;whiteSpace=wrap;html=1;" vertex="1" parent="_oJygsqH6rhFZPLLzzwx-23">
          <mxGeometry width="30" height="30" as="geometry">
            <mxRectangle width="30" height="30" as="alternateBounds" />
          </mxGeometry>
        </mxCell>
        <mxCell id="_oJygsqH6rhFZPLLzzwx-25" value="created_at" style="shape=partialRectangle;connectable=0;fillColor=none;top=0;left=0;bottom=0;right=0;align=left;spacingLeft=6;overflow=hidden;whiteSpace=wrap;html=1;" vertex="1" parent="_oJygsqH6rhFZPLLzzwx-23">
          <mxGeometry x="30" width="150" height="30" as="geometry">
            <mxRectangle width="150" height="30" as="alternateBounds" />
          </mxGeometry>
        </mxCell>
        <mxCell id="_oJygsqH6rhFZPLLzzwx-29" value="genres" style="shape=table;startSize=30;container=1;collapsible=1;childLayout=tableLayout;fixedRows=1;rowLines=0;fontStyle=1;align=center;resizeLast=1;html=1;" vertex="1" parent="1">
          <mxGeometry x="616" y="102" width="180" height="90" as="geometry" />
        </mxCell>
        <mxCell id="_oJygsqH6rhFZPLLzzwx-30" value="" style="shape=tableRow;horizontal=0;startSize=0;swimlaneHead=0;swimlaneBody=0;fillColor=none;collapsible=0;dropTarget=0;points=[[0,0.5],[1,0.5]];portConstraint=eastwest;top=0;left=0;right=0;bottom=1;" vertex="1" parent="_oJygsqH6rhFZPLLzzwx-29">
          <mxGeometry y="30" width="180" height="30" as="geometry" />
        </mxCell>
        <mxCell id="_oJygsqH6rhFZPLLzzwx-31" value="PK" style="shape=partialRectangle;connectable=0;fillColor=none;top=0;left=0;bottom=0;right=0;fontStyle=1;overflow=hidden;whiteSpace=wrap;html=1;" vertex="1" parent="_oJygsqH6rhFZPLLzzwx-30">
          <mxGeometry width="30" height="30" as="geometry">
            <mxRectangle width="30" height="30" as="alternateBounds" />
          </mxGeometry>
        </mxCell>
        <mxCell id="_oJygsqH6rhFZPLLzzwx-32" value="id" style="shape=partialRectangle;connectable=0;fillColor=none;top=0;left=0;bottom=0;right=0;align=left;spacingLeft=6;fontStyle=5;overflow=hidden;whiteSpace=wrap;html=1;" vertex="1" parent="_oJygsqH6rhFZPLLzzwx-30">
          <mxGeometry x="30" width="150" height="30" as="geometry">
            <mxRectangle width="150" height="30" as="alternateBounds" />
          </mxGeometry>
        </mxCell>
        <mxCell id="_oJygsqH6rhFZPLLzzwx-33" value="" style="shape=tableRow;horizontal=0;startSize=0;swimlaneHead=0;swimlaneBody=0;fillColor=none;collapsible=0;dropTarget=0;points=[[0,0.5],[1,0.5]];portConstraint=eastwest;top=0;left=0;right=0;bottom=0;" vertex="1" parent="_oJygsqH6rhFZPLLzzwx-29">
          <mxGeometry y="60" width="180" height="30" as="geometry" />
        </mxCell>
        <mxCell id="_oJygsqH6rhFZPLLzzwx-34" value="" style="shape=partialRectangle;connectable=0;fillColor=none;top=0;left=0;bottom=0;right=0;editable=1;overflow=hidden;whiteSpace=wrap;html=1;" vertex="1" parent="_oJygsqH6rhFZPLLzzwx-33">
          <mxGeometry width="30" height="30" as="geometry">
            <mxRectangle width="30" height="30" as="alternateBounds" />
          </mxGeometry>
        </mxCell>
        <mxCell id="_oJygsqH6rhFZPLLzzwx-35" value="name" style="shape=partialRectangle;connectable=0;fillColor=none;top=0;left=0;bottom=0;right=0;align=left;spacingLeft=6;overflow=hidden;whiteSpace=wrap;html=1;" vertex="1" parent="_oJygsqH6rhFZPLLzzwx-33">
          <mxGeometry x="30" width="150" height="30" as="geometry">
            <mxRectangle width="150" height="30" as="alternateBounds" />
          </mxGeometry>
        </mxCell>
        <mxCell id="_oJygsqH6rhFZPLLzzwx-42" value="movie_genres" style="shape=table;startSize=30;container=1;collapsible=1;childLayout=tableLayout;fixedRows=1;rowLines=0;fontStyle=1;align=center;resizeLast=1;html=1;" vertex="1" parent="1">
          <mxGeometry x="374" y="132" width="180" height="90" as="geometry" />
        </mxCell>
        <mxCell id="_oJygsqH6rhFZPLLzzwx-46" value="" style="shape=tableRow;horizontal=0;startSize=0;swimlaneHead=0;swimlaneBody=0;fillColor=none;collapsible=0;dropTarget=0;points=[[0,0.5],[1,0.5]];portConstraint=eastwest;top=0;left=0;right=0;bottom=0;" vertex="1" parent="_oJygsqH6rhFZPLLzzwx-42">
          <mxGeometry y="30" width="180" height="30" as="geometry" />
        </mxCell>
        <mxCell id="_oJygsqH6rhFZPLLzzwx-47" value="&lt;b&gt;&lt;br&gt;PK&lt;/b&gt;" style="shape=partialRectangle;connectable=0;fillColor=none;top=0;left=0;bottom=0;right=0;editable=1;overflow=hidden;whiteSpace=wrap;html=1;" vertex="1" parent="_oJygsqH6rhFZPLLzzwx-46">
          <mxGeometry width="30" height="30" as="geometry">
            <mxRectangle width="30" height="30" as="alternateBounds" />
          </mxGeometry>
        </mxCell>
        <mxCell id="_oJygsqH6rhFZPLLzzwx-48" value="movie_id" style="shape=partialRectangle;connectable=0;fillColor=none;top=0;left=0;bottom=0;right=0;align=left;spacingLeft=6;overflow=hidden;whiteSpace=wrap;html=1;" vertex="1" parent="_oJygsqH6rhFZPLLzzwx-46">
          <mxGeometry x="30" width="150" height="30" as="geometry">
            <mxRectangle width="150" height="30" as="alternateBounds" />
          </mxGeometry>
        </mxCell>
        <mxCell id="_oJygsqH6rhFZPLLzzwx-49" value="" style="shape=tableRow;horizontal=0;startSize=0;swimlaneHead=0;swimlaneBody=0;fillColor=none;collapsible=0;dropTarget=0;points=[[0,0.5],[1,0.5]];portConstraint=eastwest;top=0;left=0;right=0;bottom=0;" vertex="1" parent="_oJygsqH6rhFZPLLzzwx-42">
          <mxGeometry y="60" width="180" height="30" as="geometry" />
        </mxCell>
        <mxCell id="_oJygsqH6rhFZPLLzzwx-50" value="" style="shape=partialRectangle;connectable=0;fillColor=none;top=0;left=0;bottom=0;right=0;editable=1;overflow=hidden;whiteSpace=wrap;html=1;" vertex="1" parent="_oJygsqH6rhFZPLLzzwx-49">
          <mxGeometry width="30" height="30" as="geometry">
            <mxRectangle width="30" height="30" as="alternateBounds" />
          </mxGeometry>
        </mxCell>
        <mxCell id="_oJygsqH6rhFZPLLzzwx-51" value="genre_id" style="shape=partialRectangle;connectable=0;fillColor=none;top=0;left=0;bottom=0;right=0;align=left;spacingLeft=6;overflow=hidden;whiteSpace=wrap;html=1;" vertex="1" parent="_oJygsqH6rhFZPLLzzwx-49">
          <mxGeometry x="30" width="150" height="30" as="geometry">
            <mxRectangle width="150" height="30" as="alternateBounds" />
          </mxGeometry>
        </mxCell>
        <mxCell id="_oJygsqH6rhFZPLLzzwx-52" value="theaters" style="shape=table;startSize=30;container=1;collapsible=1;childLayout=tableLayout;fixedRows=1;rowLines=0;fontStyle=1;align=center;resizeLast=1;html=1;" vertex="1" parent="1">
          <mxGeometry x="-121" y="385" width="180" height="180" as="geometry" />
        </mxCell>
        <mxCell id="_oJygsqH6rhFZPLLzzwx-53" value="" style="shape=tableRow;horizontal=0;startSize=0;swimlaneHead=0;swimlaneBody=0;fillColor=none;collapsible=0;dropTarget=0;points=[[0,0.5],[1,0.5]];portConstraint=eastwest;top=0;left=0;right=0;bottom=1;" vertex="1" parent="_oJygsqH6rhFZPLLzzwx-52">
          <mxGeometry y="30" width="180" height="30" as="geometry" />
        </mxCell>
        <mxCell id="_oJygsqH6rhFZPLLzzwx-54" value="PK" style="shape=partialRectangle;connectable=0;fillColor=none;top=0;left=0;bottom=0;right=0;fontStyle=1;overflow=hidden;whiteSpace=wrap;html=1;" vertex="1" parent="_oJygsqH6rhFZPLLzzwx-53">
          <mxGeometry width="30" height="30" as="geometry">
            <mxRectangle width="30" height="30" as="alternateBounds" />
          </mxGeometry>
        </mxCell>
        <mxCell id="_oJygsqH6rhFZPLLzzwx-55" value="id" style="shape=partialRectangle;connectable=0;fillColor=none;top=0;left=0;bottom=0;right=0;align=left;spacingLeft=6;fontStyle=5;overflow=hidden;whiteSpace=wrap;html=1;" vertex="1" parent="_oJygsqH6rhFZPLLzzwx-53">
          <mxGeometry x="30" width="150" height="30" as="geometry">
            <mxRectangle width="150" height="30" as="alternateBounds" />
          </mxGeometry>
        </mxCell>
        <mxCell id="_oJygsqH6rhFZPLLzzwx-56" value="" style="shape=tableRow;horizontal=0;startSize=0;swimlaneHead=0;swimlaneBody=0;fillColor=none;collapsible=0;dropTarget=0;points=[[0,0.5],[1,0.5]];portConstraint=eastwest;top=0;left=0;right=0;bottom=0;" vertex="1" parent="_oJygsqH6rhFZPLLzzwx-52">
          <mxGeometry y="60" width="180" height="30" as="geometry" />
        </mxCell>
        <mxCell id="_oJygsqH6rhFZPLLzzwx-57" value="" style="shape=partialRectangle;connectable=0;fillColor=none;top=0;left=0;bottom=0;right=0;editable=1;overflow=hidden;whiteSpace=wrap;html=1;" vertex="1" parent="_oJygsqH6rhFZPLLzzwx-56">
          <mxGeometry width="30" height="30" as="geometry">
            <mxRectangle width="30" height="30" as="alternateBounds" />
          </mxGeometry>
        </mxCell>
        <mxCell id="_oJygsqH6rhFZPLLzzwx-58" value="name" style="shape=partialRectangle;connectable=0;fillColor=none;top=0;left=0;bottom=0;right=0;align=left;spacingLeft=6;overflow=hidden;whiteSpace=wrap;html=1;" vertex="1" parent="_oJygsqH6rhFZPLLzzwx-56">
          <mxGeometry x="30" width="150" height="30" as="geometry">
            <mxRectangle width="150" height="30" as="alternateBounds" />
          </mxGeometry>
        </mxCell>
        <mxCell id="_oJygsqH6rhFZPLLzzwx-59" value="" style="shape=tableRow;horizontal=0;startSize=0;swimlaneHead=0;swimlaneBody=0;fillColor=none;collapsible=0;dropTarget=0;points=[[0,0.5],[1,0.5]];portConstraint=eastwest;top=0;left=0;right=0;bottom=0;" vertex="1" parent="_oJygsqH6rhFZPLLzzwx-52">
          <mxGeometry y="90" width="180" height="30" as="geometry" />
        </mxCell>
        <mxCell id="_oJygsqH6rhFZPLLzzwx-60" value="" style="shape=partialRectangle;connectable=0;fillColor=none;top=0;left=0;bottom=0;right=0;editable=1;overflow=hidden;whiteSpace=wrap;html=1;" vertex="1" parent="_oJygsqH6rhFZPLLzzwx-59">
          <mxGeometry width="30" height="30" as="geometry">
            <mxRectangle width="30" height="30" as="alternateBounds" />
          </mxGeometry>
        </mxCell>
        <mxCell id="_oJygsqH6rhFZPLLzzwx-61" value="location" style="shape=partialRectangle;connectable=0;fillColor=none;top=0;left=0;bottom=0;right=0;align=left;spacingLeft=6;overflow=hidden;whiteSpace=wrap;html=1;" vertex="1" parent="_oJygsqH6rhFZPLLzzwx-59">
          <mxGeometry x="30" width="150" height="30" as="geometry">
            <mxRectangle width="150" height="30" as="alternateBounds" />
          </mxGeometry>
        </mxCell>
        <mxCell id="_oJygsqH6rhFZPLLzzwx-62" value="" style="shape=tableRow;horizontal=0;startSize=0;swimlaneHead=0;swimlaneBody=0;fillColor=none;collapsible=0;dropTarget=0;points=[[0,0.5],[1,0.5]];portConstraint=eastwest;top=0;left=0;right=0;bottom=0;" vertex="1" parent="_oJygsqH6rhFZPLLzzwx-52">
          <mxGeometry y="120" width="180" height="30" as="geometry" />
        </mxCell>
        <mxCell id="_oJygsqH6rhFZPLLzzwx-63" value="" style="shape=partialRectangle;connectable=0;fillColor=none;top=0;left=0;bottom=0;right=0;editable=1;overflow=hidden;whiteSpace=wrap;html=1;" vertex="1" parent="_oJygsqH6rhFZPLLzzwx-62">
          <mxGeometry width="30" height="30" as="geometry">
            <mxRectangle width="30" height="30" as="alternateBounds" />
          </mxGeometry>
        </mxCell>
        <mxCell id="_oJygsqH6rhFZPLLzzwx-64" value="logo_url" style="shape=partialRectangle;connectable=0;fillColor=none;top=0;left=0;bottom=0;right=0;align=left;spacingLeft=6;overflow=hidden;whiteSpace=wrap;html=1;" vertex="1" parent="_oJygsqH6rhFZPLLzzwx-62">
          <mxGeometry x="30" width="150" height="30" as="geometry">
            <mxRectangle width="150" height="30" as="alternateBounds" />
          </mxGeometry>
        </mxCell>
        <mxCell id="_oJygsqH6rhFZPLLzzwx-65" value="" style="shape=tableRow;horizontal=0;startSize=0;swimlaneHead=0;swimlaneBody=0;fillColor=none;collapsible=0;dropTarget=0;points=[[0,0.5],[1,0.5]];portConstraint=eastwest;top=0;left=0;right=0;bottom=0;" vertex="1" parent="_oJygsqH6rhFZPLLzzwx-52">
          <mxGeometry y="150" width="180" height="30" as="geometry" />
        </mxCell>
        <mxCell id="_oJygsqH6rhFZPLLzzwx-66" value="" style="shape=partialRectangle;connectable=0;fillColor=none;top=0;left=0;bottom=0;right=0;editable=1;overflow=hidden;whiteSpace=wrap;html=1;" vertex="1" parent="_oJygsqH6rhFZPLLzzwx-65">
          <mxGeometry width="30" height="30" as="geometry">
            <mxRectangle width="30" height="30" as="alternateBounds" />
          </mxGeometry>
        </mxCell>
        <mxCell id="_oJygsqH6rhFZPLLzzwx-67" value="created_at" style="shape=partialRectangle;connectable=0;fillColor=none;top=0;left=0;bottom=0;right=0;align=left;spacingLeft=6;overflow=hidden;whiteSpace=wrap;html=1;" vertex="1" parent="_oJygsqH6rhFZPLLzzwx-65">
          <mxGeometry x="30" width="150" height="30" as="geometry">
            <mxRectangle width="150" height="30" as="alternateBounds" />
          </mxGeometry>
        </mxCell>
        <mxCell id="_oJygsqH6rhFZPLLzzwx-71" value="screens" style="shape=table;startSize=30;container=1;collapsible=1;childLayout=tableLayout;fixedRows=1;rowLines=0;fontStyle=1;align=center;resizeLast=1;html=1;" vertex="1" parent="1">
          <mxGeometry x="121" y="484" width="180" height="120" as="geometry" />
        </mxCell>
        <mxCell id="_oJygsqH6rhFZPLLzzwx-72" value="" style="shape=tableRow;horizontal=0;startSize=0;swimlaneHead=0;swimlaneBody=0;fillColor=none;collapsible=0;dropTarget=0;points=[[0,0.5],[1,0.5]];portConstraint=eastwest;top=0;left=0;right=0;bottom=1;" vertex="1" parent="_oJygsqH6rhFZPLLzzwx-71">
          <mxGeometry y="30" width="180" height="30" as="geometry" />
        </mxCell>
        <mxCell id="_oJygsqH6rhFZPLLzzwx-73" value="PK" style="shape=partialRectangle;connectable=0;fillColor=none;top=0;left=0;bottom=0;right=0;fontStyle=1;overflow=hidden;whiteSpace=wrap;html=1;" vertex="1" parent="_oJygsqH6rhFZPLLzzwx-72">
          <mxGeometry width="30" height="30" as="geometry">
            <mxRectangle width="30" height="30" as="alternateBounds" />
          </mxGeometry>
        </mxCell>
        <mxCell id="_oJygsqH6rhFZPLLzzwx-74" value="id" style="shape=partialRectangle;connectable=0;fillColor=none;top=0;left=0;bottom=0;right=0;align=left;spacingLeft=6;fontStyle=5;overflow=hidden;whiteSpace=wrap;html=1;" vertex="1" parent="_oJygsqH6rhFZPLLzzwx-72">
          <mxGeometry x="30" width="150" height="30" as="geometry">
            <mxRectangle width="150" height="30" as="alternateBounds" />
          </mxGeometry>
        </mxCell>
        <mxCell id="_oJygsqH6rhFZPLLzzwx-75" value="" style="shape=tableRow;horizontal=0;startSize=0;swimlaneHead=0;swimlaneBody=0;fillColor=none;collapsible=0;dropTarget=0;points=[[0,0.5],[1,0.5]];portConstraint=eastwest;top=0;left=0;right=0;bottom=0;" vertex="1" parent="_oJygsqH6rhFZPLLzzwx-71">
          <mxGeometry y="60" width="180" height="30" as="geometry" />
        </mxCell>
        <mxCell id="_oJygsqH6rhFZPLLzzwx-76" value="" style="shape=partialRectangle;connectable=0;fillColor=none;top=0;left=0;bottom=0;right=0;editable=1;overflow=hidden;whiteSpace=wrap;html=1;" vertex="1" parent="_oJygsqH6rhFZPLLzzwx-75">
          <mxGeometry width="30" height="30" as="geometry">
            <mxRectangle width="30" height="30" as="alternateBounds" />
          </mxGeometry>
        </mxCell>
        <mxCell id="_oJygsqH6rhFZPLLzzwx-77" value="theater_id" style="shape=partialRectangle;connectable=0;fillColor=none;top=0;left=0;bottom=0;right=0;align=left;spacingLeft=6;overflow=hidden;whiteSpace=wrap;html=1;" vertex="1" parent="_oJygsqH6rhFZPLLzzwx-75">
          <mxGeometry x="30" width="150" height="30" as="geometry">
            <mxRectangle width="150" height="30" as="alternateBounds" />
          </mxGeometry>
        </mxCell>
        <mxCell id="_oJygsqH6rhFZPLLzzwx-78" value="" style="shape=tableRow;horizontal=0;startSize=0;swimlaneHead=0;swimlaneBody=0;fillColor=none;collapsible=0;dropTarget=0;points=[[0,0.5],[1,0.5]];portConstraint=eastwest;top=0;left=0;right=0;bottom=0;" vertex="1" parent="_oJygsqH6rhFZPLLzzwx-71">
          <mxGeometry y="90" width="180" height="30" as="geometry" />
        </mxCell>
        <mxCell id="_oJygsqH6rhFZPLLzzwx-79" value="" style="shape=partialRectangle;connectable=0;fillColor=none;top=0;left=0;bottom=0;right=0;editable=1;overflow=hidden;whiteSpace=wrap;html=1;" vertex="1" parent="_oJygsqH6rhFZPLLzzwx-78">
          <mxGeometry width="30" height="30" as="geometry">
            <mxRectangle width="30" height="30" as="alternateBounds" />
          </mxGeometry>
        </mxCell>
        <mxCell id="_oJygsqH6rhFZPLLzzwx-80" value="created_at" style="shape=partialRectangle;connectable=0;fillColor=none;top=0;left=0;bottom=0;right=0;align=left;spacingLeft=6;overflow=hidden;whiteSpace=wrap;html=1;" vertex="1" parent="_oJygsqH6rhFZPLLzzwx-78">
          <mxGeometry x="30" width="150" height="30" as="geometry">
            <mxRectangle width="150" height="30" as="alternateBounds" />
          </mxGeometry>
        </mxCell>
        <mxCell id="_oJygsqH6rhFZPLLzzwx-84" value="showtimes" style="shape=table;startSize=30;container=1;collapsible=1;childLayout=tableLayout;fixedRows=1;rowLines=0;fontStyle=1;align=center;resizeLast=1;html=1;" vertex="1" parent="1">
          <mxGeometry x="396" y="264" width="180" height="180" as="geometry" />
        </mxCell>
        <mxCell id="_oJygsqH6rhFZPLLzzwx-85" value="" style="shape=tableRow;horizontal=0;startSize=0;swimlaneHead=0;swimlaneBody=0;fillColor=none;collapsible=0;dropTarget=0;points=[[0,0.5],[1,0.5]];portConstraint=eastwest;top=0;left=0;right=0;bottom=1;" vertex="1" parent="_oJygsqH6rhFZPLLzzwx-84">
          <mxGeometry y="30" width="180" height="30" as="geometry" />
        </mxCell>
        <mxCell id="_oJygsqH6rhFZPLLzzwx-86" value="PK" style="shape=partialRectangle;connectable=0;fillColor=none;top=0;left=0;bottom=0;right=0;fontStyle=1;overflow=hidden;whiteSpace=wrap;html=1;" vertex="1" parent="_oJygsqH6rhFZPLLzzwx-85">
          <mxGeometry width="30" height="30" as="geometry">
            <mxRectangle width="30" height="30" as="alternateBounds" />
          </mxGeometry>
        </mxCell>
        <mxCell id="_oJygsqH6rhFZPLLzzwx-87" value="id" style="shape=partialRectangle;connectable=0;fillColor=none;top=0;left=0;bottom=0;right=0;align=left;spacingLeft=6;fontStyle=5;overflow=hidden;whiteSpace=wrap;html=1;" vertex="1" parent="_oJygsqH6rhFZPLLzzwx-85">
          <mxGeometry x="30" width="150" height="30" as="geometry">
            <mxRectangle width="150" height="30" as="alternateBounds" />
          </mxGeometry>
        </mxCell>
        <mxCell id="_oJygsqH6rhFZPLLzzwx-88" value="" style="shape=tableRow;horizontal=0;startSize=0;swimlaneHead=0;swimlaneBody=0;fillColor=none;collapsible=0;dropTarget=0;points=[[0,0.5],[1,0.5]];portConstraint=eastwest;top=0;left=0;right=0;bottom=0;" vertex="1" parent="_oJygsqH6rhFZPLLzzwx-84">
          <mxGeometry y="60" width="180" height="30" as="geometry" />
        </mxCell>
        <mxCell id="_oJygsqH6rhFZPLLzzwx-89" value="" style="shape=partialRectangle;connectable=0;fillColor=none;top=0;left=0;bottom=0;right=0;editable=1;overflow=hidden;whiteSpace=wrap;html=1;" vertex="1" parent="_oJygsqH6rhFZPLLzzwx-88">
          <mxGeometry width="30" height="30" as="geometry">
            <mxRectangle width="30" height="30" as="alternateBounds" />
          </mxGeometry>
        </mxCell>
        <mxCell id="_oJygsqH6rhFZPLLzzwx-90" value="screen_id" style="shape=partialRectangle;connectable=0;fillColor=none;top=0;left=0;bottom=0;right=0;align=left;spacingLeft=6;overflow=hidden;whiteSpace=wrap;html=1;" vertex="1" parent="_oJygsqH6rhFZPLLzzwx-88">
          <mxGeometry x="30" width="150" height="30" as="geometry">
            <mxRectangle width="150" height="30" as="alternateBounds" />
          </mxGeometry>
        </mxCell>
        <mxCell id="_oJygsqH6rhFZPLLzzwx-91" value="" style="shape=tableRow;horizontal=0;startSize=0;swimlaneHead=0;swimlaneBody=0;fillColor=none;collapsible=0;dropTarget=0;points=[[0,0.5],[1,0.5]];portConstraint=eastwest;top=0;left=0;right=0;bottom=0;" vertex="1" parent="_oJygsqH6rhFZPLLzzwx-84">
          <mxGeometry y="90" width="180" height="30" as="geometry" />
        </mxCell>
        <mxCell id="_oJygsqH6rhFZPLLzzwx-92" value="" style="shape=partialRectangle;connectable=0;fillColor=none;top=0;left=0;bottom=0;right=0;editable=1;overflow=hidden;whiteSpace=wrap;html=1;" vertex="1" parent="_oJygsqH6rhFZPLLzzwx-91">
          <mxGeometry width="30" height="30" as="geometry">
            <mxRectangle width="30" height="30" as="alternateBounds" />
          </mxGeometry>
        </mxCell>
        <mxCell id="_oJygsqH6rhFZPLLzzwx-93" value="movie_id" style="shape=partialRectangle;connectable=0;fillColor=none;top=0;left=0;bottom=0;right=0;align=left;spacingLeft=6;overflow=hidden;whiteSpace=wrap;html=1;" vertex="1" parent="_oJygsqH6rhFZPLLzzwx-91">
          <mxGeometry x="30" width="150" height="30" as="geometry">
            <mxRectangle width="150" height="30" as="alternateBounds" />
          </mxGeometry>
        </mxCell>
        <mxCell id="_oJygsqH6rhFZPLLzzwx-94" value="" style="shape=tableRow;horizontal=0;startSize=0;swimlaneHead=0;swimlaneBody=0;fillColor=none;collapsible=0;dropTarget=0;points=[[0,0.5],[1,0.5]];portConstraint=eastwest;top=0;left=0;right=0;bottom=0;" vertex="1" parent="_oJygsqH6rhFZPLLzzwx-84">
          <mxGeometry y="120" width="180" height="30" as="geometry" />
        </mxCell>
        <mxCell id="_oJygsqH6rhFZPLLzzwx-95" value="" style="shape=partialRectangle;connectable=0;fillColor=none;top=0;left=0;bottom=0;right=0;editable=1;overflow=hidden;whiteSpace=wrap;html=1;" vertex="1" parent="_oJygsqH6rhFZPLLzzwx-94">
          <mxGeometry width="30" height="30" as="geometry">
            <mxRectangle width="30" height="30" as="alternateBounds" />
          </mxGeometry>
        </mxCell>
        <mxCell id="_oJygsqH6rhFZPLLzzwx-96" value="start_time" style="shape=partialRectangle;connectable=0;fillColor=none;top=0;left=0;bottom=0;right=0;align=left;spacingLeft=6;overflow=hidden;whiteSpace=wrap;html=1;" vertex="1" parent="_oJygsqH6rhFZPLLzzwx-94">
          <mxGeometry x="30" width="150" height="30" as="geometry">
            <mxRectangle width="150" height="30" as="alternateBounds" />
          </mxGeometry>
        </mxCell>
        <mxCell id="_oJygsqH6rhFZPLLzzwx-97" value="" style="shape=tableRow;horizontal=0;startSize=0;swimlaneHead=0;swimlaneBody=0;fillColor=none;collapsible=0;dropTarget=0;points=[[0,0.5],[1,0.5]];portConstraint=eastwest;top=0;left=0;right=0;bottom=0;" vertex="1" parent="_oJygsqH6rhFZPLLzzwx-84">
          <mxGeometry y="150" width="180" height="30" as="geometry" />
        </mxCell>
        <mxCell id="_oJygsqH6rhFZPLLzzwx-98" value="" style="shape=partialRectangle;connectable=0;fillColor=none;top=0;left=0;bottom=0;right=0;editable=1;overflow=hidden;whiteSpace=wrap;html=1;" vertex="1" parent="_oJygsqH6rhFZPLLzzwx-97">
          <mxGeometry width="30" height="30" as="geometry">
            <mxRectangle width="30" height="30" as="alternateBounds" />
          </mxGeometry>
        </mxCell>
        <mxCell id="_oJygsqH6rhFZPLLzzwx-99" value="created_at" style="shape=partialRectangle;connectable=0;fillColor=none;top=0;left=0;bottom=0;right=0;align=left;spacingLeft=6;overflow=hidden;whiteSpace=wrap;html=1;" vertex="1" parent="_oJygsqH6rhFZPLLzzwx-97">
          <mxGeometry x="30" width="150" height="30" as="geometry">
            <mxRectangle width="150" height="30" as="alternateBounds" />
          </mxGeometry>
        </mxCell>
        <mxCell id="_oJygsqH6rhFZPLLzzwx-106" value="seats" style="shape=table;startSize=30;container=1;collapsible=1;childLayout=tableLayout;fixedRows=1;rowLines=0;fontStyle=1;align=center;resizeLast=1;html=1;" vertex="1" parent="1">
          <mxGeometry x="473" y="517" width="180" height="184" as="geometry" />
        </mxCell>
        <mxCell id="_oJygsqH6rhFZPLLzzwx-107" value="" style="shape=tableRow;horizontal=0;startSize=0;swimlaneHead=0;swimlaneBody=0;fillColor=none;collapsible=0;dropTarget=0;points=[[0,0.5],[1,0.5]];portConstraint=eastwest;top=0;left=0;right=0;bottom=1;" vertex="1" parent="_oJygsqH6rhFZPLLzzwx-106">
          <mxGeometry y="30" width="180" height="30" as="geometry" />
        </mxCell>
        <mxCell id="_oJygsqH6rhFZPLLzzwx-108" value="PK" style="shape=partialRectangle;connectable=0;fillColor=none;top=0;left=0;bottom=0;right=0;fontStyle=1;overflow=hidden;whiteSpace=wrap;html=1;" vertex="1" parent="_oJygsqH6rhFZPLLzzwx-107">
          <mxGeometry width="30" height="30" as="geometry">
            <mxRectangle width="30" height="30" as="alternateBounds" />
          </mxGeometry>
        </mxCell>
        <mxCell id="_oJygsqH6rhFZPLLzzwx-109" value="id" style="shape=partialRectangle;connectable=0;fillColor=none;top=0;left=0;bottom=0;right=0;align=left;spacingLeft=6;fontStyle=5;overflow=hidden;whiteSpace=wrap;html=1;" vertex="1" parent="_oJygsqH6rhFZPLLzzwx-107">
          <mxGeometry x="30" width="150" height="30" as="geometry">
            <mxRectangle width="150" height="30" as="alternateBounds" />
          </mxGeometry>
        </mxCell>
        <mxCell id="_oJygsqH6rhFZPLLzzwx-110" value="" style="shape=tableRow;horizontal=0;startSize=0;swimlaneHead=0;swimlaneBody=0;fillColor=none;collapsible=0;dropTarget=0;points=[[0,0.5],[1,0.5]];portConstraint=eastwest;top=0;left=0;right=0;bottom=0;" vertex="1" parent="_oJygsqH6rhFZPLLzzwx-106">
          <mxGeometry y="60" width="180" height="30" as="geometry" />
        </mxCell>
        <mxCell id="_oJygsqH6rhFZPLLzzwx-111" value="" style="shape=partialRectangle;connectable=0;fillColor=none;top=0;left=0;bottom=0;right=0;editable=1;overflow=hidden;whiteSpace=wrap;html=1;" vertex="1" parent="_oJygsqH6rhFZPLLzzwx-110">
          <mxGeometry width="30" height="30" as="geometry">
            <mxRectangle width="30" height="30" as="alternateBounds" />
          </mxGeometry>
        </mxCell>
        <mxCell id="_oJygsqH6rhFZPLLzzwx-112" value="screen_id" style="shape=partialRectangle;connectable=0;fillColor=none;top=0;left=0;bottom=0;right=0;align=left;spacingLeft=6;overflow=hidden;whiteSpace=wrap;html=1;" vertex="1" parent="_oJygsqH6rhFZPLLzzwx-110">
          <mxGeometry x="30" width="150" height="30" as="geometry">
            <mxRectangle width="150" height="30" as="alternateBounds" />
          </mxGeometry>
        </mxCell>
        <mxCell id="_oJygsqH6rhFZPLLzzwx-113" value="" style="shape=tableRow;horizontal=0;startSize=0;swimlaneHead=0;swimlaneBody=0;fillColor=none;collapsible=0;dropTarget=0;points=[[0,0.5],[1,0.5]];portConstraint=eastwest;top=0;left=0;right=0;bottom=0;" vertex="1" parent="_oJygsqH6rhFZPLLzzwx-106">
          <mxGeometry y="90" width="180" height="34" as="geometry" />
        </mxCell>
        <mxCell id="_oJygsqH6rhFZPLLzzwx-114" value="" style="shape=partialRectangle;connectable=0;fillColor=none;top=0;left=0;bottom=0;right=0;editable=1;overflow=hidden;whiteSpace=wrap;html=1;" vertex="1" parent="_oJygsqH6rhFZPLLzzwx-113">
          <mxGeometry width="30" height="34" as="geometry">
            <mxRectangle width="30" height="34" as="alternateBounds" />
          </mxGeometry>
        </mxCell>
        <mxCell id="_oJygsqH6rhFZPLLzzwx-115" value="number" style="shape=partialRectangle;connectable=0;fillColor=none;top=0;left=0;bottom=0;right=0;align=left;spacingLeft=6;overflow=hidden;whiteSpace=wrap;html=1;" vertex="1" parent="_oJygsqH6rhFZPLLzzwx-113">
          <mxGeometry x="30" width="150" height="34" as="geometry">
            <mxRectangle width="150" height="34" as="alternateBounds" />
          </mxGeometry>
        </mxCell>
        <mxCell id="_oJygsqH6rhFZPLLzzwx-116" value="" style="shape=tableRow;horizontal=0;startSize=0;swimlaneHead=0;swimlaneBody=0;fillColor=none;collapsible=0;dropTarget=0;points=[[0,0.5],[1,0.5]];portConstraint=eastwest;top=0;left=0;right=0;bottom=0;" vertex="1" parent="_oJygsqH6rhFZPLLzzwx-106">
          <mxGeometry y="124" width="180" height="30" as="geometry" />
        </mxCell>
        <mxCell id="_oJygsqH6rhFZPLLzzwx-117" value="" style="shape=partialRectangle;connectable=0;fillColor=none;top=0;left=0;bottom=0;right=0;editable=1;overflow=hidden;whiteSpace=wrap;html=1;" vertex="1" parent="_oJygsqH6rhFZPLLzzwx-116">
          <mxGeometry width="30" height="30" as="geometry">
            <mxRectangle width="30" height="30" as="alternateBounds" />
          </mxGeometry>
        </mxCell>
        <mxCell id="_oJygsqH6rhFZPLLzzwx-118" value="type" style="shape=partialRectangle;connectable=0;fillColor=none;top=0;left=0;bottom=0;right=0;align=left;spacingLeft=6;overflow=hidden;whiteSpace=wrap;html=1;" vertex="1" parent="_oJygsqH6rhFZPLLzzwx-116">
          <mxGeometry x="30" width="150" height="30" as="geometry">
            <mxRectangle width="150" height="30" as="alternateBounds" />
          </mxGeometry>
        </mxCell>
        <mxCell id="_oJygsqH6rhFZPLLzzwx-119" value="" style="shape=tableRow;horizontal=0;startSize=0;swimlaneHead=0;swimlaneBody=0;fillColor=none;collapsible=0;dropTarget=0;points=[[0,0.5],[1,0.5]];portConstraint=eastwest;top=0;left=0;right=0;bottom=0;" vertex="1" parent="_oJygsqH6rhFZPLLzzwx-106">
          <mxGeometry y="154" width="180" height="30" as="geometry" />
        </mxCell>
        <mxCell id="_oJygsqH6rhFZPLLzzwx-120" value="" style="shape=partialRectangle;connectable=0;fillColor=none;top=0;left=0;bottom=0;right=0;editable=1;overflow=hidden;whiteSpace=wrap;html=1;" vertex="1" parent="_oJygsqH6rhFZPLLzzwx-119">
          <mxGeometry width="30" height="30" as="geometry">
            <mxRectangle width="30" height="30" as="alternateBounds" />
          </mxGeometry>
        </mxCell>
        <mxCell id="_oJygsqH6rhFZPLLzzwx-121" value="created_at" style="shape=partialRectangle;connectable=0;fillColor=none;top=0;left=0;bottom=0;right=0;align=left;spacingLeft=6;overflow=hidden;whiteSpace=wrap;html=1;" vertex="1" parent="_oJygsqH6rhFZPLLzzwx-119">
          <mxGeometry x="30" width="150" height="30" as="geometry">
            <mxRectangle width="150" height="30" as="alternateBounds" />
          </mxGeometry>
        </mxCell>
        <mxCell id="_oJygsqH6rhFZPLLzzwx-125" value="users" style="shape=table;startSize=30;container=1;collapsible=1;childLayout=tableLayout;fixedRows=1;rowLines=0;fontStyle=1;align=center;resizeLast=1;html=1;" vertex="1" parent="1">
          <mxGeometry x="-143" y="634" width="180" height="180" as="geometry" />
        </mxCell>
        <mxCell id="_oJygsqH6rhFZPLLzzwx-126" value="" style="shape=tableRow;horizontal=0;startSize=0;swimlaneHead=0;swimlaneBody=0;fillColor=none;collapsible=0;dropTarget=0;points=[[0,0.5],[1,0.5]];portConstraint=eastwest;top=0;left=0;right=0;bottom=1;" vertex="1" parent="_oJygsqH6rhFZPLLzzwx-125">
          <mxGeometry y="30" width="180" height="30" as="geometry" />
        </mxCell>
        <mxCell id="_oJygsqH6rhFZPLLzzwx-127" value="PK" style="shape=partialRectangle;connectable=0;fillColor=none;top=0;left=0;bottom=0;right=0;fontStyle=1;overflow=hidden;whiteSpace=wrap;html=1;" vertex="1" parent="_oJygsqH6rhFZPLLzzwx-126">
          <mxGeometry width="30" height="30" as="geometry">
            <mxRectangle width="30" height="30" as="alternateBounds" />
          </mxGeometry>
        </mxCell>
        <mxCell id="_oJygsqH6rhFZPLLzzwx-128" value="id" style="shape=partialRectangle;connectable=0;fillColor=none;top=0;left=0;bottom=0;right=0;align=left;spacingLeft=6;fontStyle=5;overflow=hidden;whiteSpace=wrap;html=1;" vertex="1" parent="_oJygsqH6rhFZPLLzzwx-126">
          <mxGeometry x="30" width="150" height="30" as="geometry">
            <mxRectangle width="150" height="30" as="alternateBounds" />
          </mxGeometry>
        </mxCell>
        <mxCell id="_oJygsqH6rhFZPLLzzwx-129" value="" style="shape=tableRow;horizontal=0;startSize=0;swimlaneHead=0;swimlaneBody=0;fillColor=none;collapsible=0;dropTarget=0;points=[[0,0.5],[1,0.5]];portConstraint=eastwest;top=0;left=0;right=0;bottom=0;" vertex="1" parent="_oJygsqH6rhFZPLLzzwx-125">
          <mxGeometry y="60" width="180" height="30" as="geometry" />
        </mxCell>
        <mxCell id="_oJygsqH6rhFZPLLzzwx-130" value="" style="shape=partialRectangle;connectable=0;fillColor=none;top=0;left=0;bottom=0;right=0;editable=1;overflow=hidden;whiteSpace=wrap;html=1;" vertex="1" parent="_oJygsqH6rhFZPLLzzwx-129">
          <mxGeometry width="30" height="30" as="geometry">
            <mxRectangle width="30" height="30" as="alternateBounds" />
          </mxGeometry>
        </mxCell>
        <mxCell id="_oJygsqH6rhFZPLLzzwx-131" value="name" style="shape=partialRectangle;connectable=0;fillColor=none;top=0;left=0;bottom=0;right=0;align=left;spacingLeft=6;overflow=hidden;whiteSpace=wrap;html=1;" vertex="1" parent="_oJygsqH6rhFZPLLzzwx-129">
          <mxGeometry x="30" width="150" height="30" as="geometry">
            <mxRectangle width="150" height="30" as="alternateBounds" />
          </mxGeometry>
        </mxCell>
        <mxCell id="_oJygsqH6rhFZPLLzzwx-132" value="" style="shape=tableRow;horizontal=0;startSize=0;swimlaneHead=0;swimlaneBody=0;fillColor=none;collapsible=0;dropTarget=0;points=[[0,0.5],[1,0.5]];portConstraint=eastwest;top=0;left=0;right=0;bottom=0;" vertex="1" parent="_oJygsqH6rhFZPLLzzwx-125">
          <mxGeometry y="90" width="180" height="30" as="geometry" />
        </mxCell>
        <mxCell id="_oJygsqH6rhFZPLLzzwx-133" value="" style="shape=partialRectangle;connectable=0;fillColor=none;top=0;left=0;bottom=0;right=0;editable=1;overflow=hidden;whiteSpace=wrap;html=1;" vertex="1" parent="_oJygsqH6rhFZPLLzzwx-132">
          <mxGeometry width="30" height="30" as="geometry">
            <mxRectangle width="30" height="30" as="alternateBounds" />
          </mxGeometry>
        </mxCell>
        <mxCell id="_oJygsqH6rhFZPLLzzwx-134" value="email" style="shape=partialRectangle;connectable=0;fillColor=none;top=0;left=0;bottom=0;right=0;align=left;spacingLeft=6;overflow=hidden;whiteSpace=wrap;html=1;" vertex="1" parent="_oJygsqH6rhFZPLLzzwx-132">
          <mxGeometry x="30" width="150" height="30" as="geometry">
            <mxRectangle width="150" height="30" as="alternateBounds" />
          </mxGeometry>
        </mxCell>
        <mxCell id="_oJygsqH6rhFZPLLzzwx-135" value="" style="shape=tableRow;horizontal=0;startSize=0;swimlaneHead=0;swimlaneBody=0;fillColor=none;collapsible=0;dropTarget=0;points=[[0,0.5],[1,0.5]];portConstraint=eastwest;top=0;left=0;right=0;bottom=0;" vertex="1" parent="_oJygsqH6rhFZPLLzzwx-125">
          <mxGeometry y="120" width="180" height="30" as="geometry" />
        </mxCell>
        <mxCell id="_oJygsqH6rhFZPLLzzwx-136" value="" style="shape=partialRectangle;connectable=0;fillColor=none;top=0;left=0;bottom=0;right=0;editable=1;overflow=hidden;whiteSpace=wrap;html=1;" vertex="1" parent="_oJygsqH6rhFZPLLzzwx-135">
          <mxGeometry width="30" height="30" as="geometry">
            <mxRectangle width="30" height="30" as="alternateBounds" />
          </mxGeometry>
        </mxCell>
        <mxCell id="_oJygsqH6rhFZPLLzzwx-137" value="password" style="shape=partialRectangle;connectable=0;fillColor=none;top=0;left=0;bottom=0;right=0;align=left;spacingLeft=6;overflow=hidden;whiteSpace=wrap;html=1;" vertex="1" parent="_oJygsqH6rhFZPLLzzwx-135">
          <mxGeometry x="30" width="150" height="30" as="geometry">
            <mxRectangle width="150" height="30" as="alternateBounds" />
          </mxGeometry>
        </mxCell>
        <mxCell id="_oJygsqH6rhFZPLLzzwx-250" value="" style="shape=tableRow;horizontal=0;startSize=0;swimlaneHead=0;swimlaneBody=0;fillColor=none;collapsible=0;dropTarget=0;points=[[0,0.5],[1,0.5]];portConstraint=eastwest;top=0;left=0;right=0;bottom=0;" vertex="1" parent="_oJygsqH6rhFZPLLzzwx-125">
          <mxGeometry y="150" width="180" height="30" as="geometry" />
        </mxCell>
        <mxCell id="_oJygsqH6rhFZPLLzzwx-251" value="" style="shape=partialRectangle;connectable=0;fillColor=none;top=0;left=0;bottom=0;right=0;editable=1;overflow=hidden;whiteSpace=wrap;html=1;" vertex="1" parent="_oJygsqH6rhFZPLLzzwx-250">
          <mxGeometry width="30" height="30" as="geometry">
            <mxRectangle width="30" height="30" as="alternateBounds" />
          </mxGeometry>
        </mxCell>
        <mxCell id="_oJygsqH6rhFZPLLzzwx-252" value="role" style="shape=partialRectangle;connectable=0;fillColor=none;top=0;left=0;bottom=0;right=0;align=left;spacingLeft=6;overflow=hidden;whiteSpace=wrap;html=1;" vertex="1" parent="_oJygsqH6rhFZPLLzzwx-250">
          <mxGeometry x="30" width="150" height="30" as="geometry">
            <mxRectangle width="150" height="30" as="alternateBounds" />
          </mxGeometry>
        </mxCell>
        <mxCell id="_oJygsqH6rhFZPLLzzwx-138" value="reservations" style="shape=table;startSize=30;container=1;collapsible=1;childLayout=tableLayout;fixedRows=1;rowLines=0;fontStyle=1;align=center;resizeLast=1;html=1;" vertex="1" parent="1">
          <mxGeometry x="121" y="660" width="180" height="180" as="geometry" />
        </mxCell>
        <mxCell id="_oJygsqH6rhFZPLLzzwx-139" value="" style="shape=tableRow;horizontal=0;startSize=0;swimlaneHead=0;swimlaneBody=0;fillColor=none;collapsible=0;dropTarget=0;points=[[0,0.5],[1,0.5]];portConstraint=eastwest;top=0;left=0;right=0;bottom=1;" vertex="1" parent="_oJygsqH6rhFZPLLzzwx-138">
          <mxGeometry y="30" width="180" height="30" as="geometry" />
        </mxCell>
        <mxCell id="_oJygsqH6rhFZPLLzzwx-140" value="PK" style="shape=partialRectangle;connectable=0;fillColor=none;top=0;left=0;bottom=0;right=0;fontStyle=1;overflow=hidden;whiteSpace=wrap;html=1;" vertex="1" parent="_oJygsqH6rhFZPLLzzwx-139">
          <mxGeometry width="30" height="30" as="geometry">
            <mxRectangle width="30" height="30" as="alternateBounds" />
          </mxGeometry>
        </mxCell>
        <mxCell id="_oJygsqH6rhFZPLLzzwx-141" value="UniqueID" style="shape=partialRectangle;connectable=0;fillColor=none;top=0;left=0;bottom=0;right=0;align=left;spacingLeft=6;fontStyle=5;overflow=hidden;whiteSpace=wrap;html=1;" vertex="1" parent="_oJygsqH6rhFZPLLzzwx-139">
          <mxGeometry x="30" width="150" height="30" as="geometry">
            <mxRectangle width="150" height="30" as="alternateBounds" />
          </mxGeometry>
        </mxCell>
        <mxCell id="_oJygsqH6rhFZPLLzzwx-142" value="" style="shape=tableRow;horizontal=0;startSize=0;swimlaneHead=0;swimlaneBody=0;fillColor=none;collapsible=0;dropTarget=0;points=[[0,0.5],[1,0.5]];portConstraint=eastwest;top=0;left=0;right=0;bottom=0;" vertex="1" parent="_oJygsqH6rhFZPLLzzwx-138">
          <mxGeometry y="60" width="180" height="30" as="geometry" />
        </mxCell>
        <mxCell id="_oJygsqH6rhFZPLLzzwx-143" value="" style="shape=partialRectangle;connectable=0;fillColor=none;top=0;left=0;bottom=0;right=0;editable=1;overflow=hidden;whiteSpace=wrap;html=1;" vertex="1" parent="_oJygsqH6rhFZPLLzzwx-142">
          <mxGeometry width="30" height="30" as="geometry">
            <mxRectangle width="30" height="30" as="alternateBounds" />
          </mxGeometry>
        </mxCell>
        <mxCell id="_oJygsqH6rhFZPLLzzwx-144" value="id" style="shape=partialRectangle;connectable=0;fillColor=none;top=0;left=0;bottom=0;right=0;align=left;spacingLeft=6;overflow=hidden;whiteSpace=wrap;html=1;" vertex="1" parent="_oJygsqH6rhFZPLLzzwx-142">
          <mxGeometry x="30" width="150" height="30" as="geometry">
            <mxRectangle width="150" height="30" as="alternateBounds" />
          </mxGeometry>
        </mxCell>
        <mxCell id="_oJygsqH6rhFZPLLzzwx-145" value="" style="shape=tableRow;horizontal=0;startSize=0;swimlaneHead=0;swimlaneBody=0;fillColor=none;collapsible=0;dropTarget=0;points=[[0,0.5],[1,0.5]];portConstraint=eastwest;top=0;left=0;right=0;bottom=0;" vertex="1" parent="_oJygsqH6rhFZPLLzzwx-138">
          <mxGeometry y="90" width="180" height="30" as="geometry" />
        </mxCell>
        <mxCell id="_oJygsqH6rhFZPLLzzwx-146" value="" style="shape=partialRectangle;connectable=0;fillColor=none;top=0;left=0;bottom=0;right=0;editable=1;overflow=hidden;whiteSpace=wrap;html=1;" vertex="1" parent="_oJygsqH6rhFZPLLzzwx-145">
          <mxGeometry width="30" height="30" as="geometry">
            <mxRectangle width="30" height="30" as="alternateBounds" />
          </mxGeometry>
        </mxCell>
        <mxCell id="_oJygsqH6rhFZPLLzzwx-147" value="user_id" style="shape=partialRectangle;connectable=0;fillColor=none;top=0;left=0;bottom=0;right=0;align=left;spacingLeft=6;overflow=hidden;whiteSpace=wrap;html=1;" vertex="1" parent="_oJygsqH6rhFZPLLzzwx-145">
          <mxGeometry x="30" width="150" height="30" as="geometry">
            <mxRectangle width="150" height="30" as="alternateBounds" />
          </mxGeometry>
        </mxCell>
        <mxCell id="_oJygsqH6rhFZPLLzzwx-148" value="" style="shape=tableRow;horizontal=0;startSize=0;swimlaneHead=0;swimlaneBody=0;fillColor=none;collapsible=0;dropTarget=0;points=[[0,0.5],[1,0.5]];portConstraint=eastwest;top=0;left=0;right=0;bottom=0;" vertex="1" parent="_oJygsqH6rhFZPLLzzwx-138">
          <mxGeometry y="120" width="180" height="30" as="geometry" />
        </mxCell>
        <mxCell id="_oJygsqH6rhFZPLLzzwx-149" value="" style="shape=partialRectangle;connectable=0;fillColor=none;top=0;left=0;bottom=0;right=0;editable=1;overflow=hidden;whiteSpace=wrap;html=1;" vertex="1" parent="_oJygsqH6rhFZPLLzzwx-148">
          <mxGeometry width="30" height="30" as="geometry">
            <mxRectangle width="30" height="30" as="alternateBounds" />
          </mxGeometry>
        </mxCell>
        <mxCell id="_oJygsqH6rhFZPLLzzwx-150" value="showtime_id" style="shape=partialRectangle;connectable=0;fillColor=none;top=0;left=0;bottom=0;right=0;align=left;spacingLeft=6;overflow=hidden;whiteSpace=wrap;html=1;" vertex="1" parent="_oJygsqH6rhFZPLLzzwx-148">
          <mxGeometry x="30" width="150" height="30" as="geometry">
            <mxRectangle width="150" height="30" as="alternateBounds" />
          </mxGeometry>
        </mxCell>
        <mxCell id="_oJygsqH6rhFZPLLzzwx-154" value="" style="shape=tableRow;horizontal=0;startSize=0;swimlaneHead=0;swimlaneBody=0;fillColor=none;collapsible=0;dropTarget=0;points=[[0,0.5],[1,0.5]];portConstraint=eastwest;top=0;left=0;right=0;bottom=0;" vertex="1" parent="_oJygsqH6rhFZPLLzzwx-138">
          <mxGeometry y="150" width="180" height="30" as="geometry" />
        </mxCell>
        <mxCell id="_oJygsqH6rhFZPLLzzwx-155" value="" style="shape=partialRectangle;connectable=0;fillColor=none;top=0;left=0;bottom=0;right=0;editable=1;overflow=hidden;whiteSpace=wrap;html=1;" vertex="1" parent="_oJygsqH6rhFZPLLzzwx-154">
          <mxGeometry width="30" height="30" as="geometry">
            <mxRectangle width="30" height="30" as="alternateBounds" />
          </mxGeometry>
        </mxCell>
        <mxCell id="_oJygsqH6rhFZPLLzzwx-156" value="created_at" style="shape=partialRectangle;connectable=0;fillColor=none;top=0;left=0;bottom=0;right=0;align=left;spacingLeft=6;overflow=hidden;whiteSpace=wrap;html=1;" vertex="1" parent="_oJygsqH6rhFZPLLzzwx-154">
          <mxGeometry x="30" width="150" height="30" as="geometry">
            <mxRectangle width="150" height="30" as="alternateBounds" />
          </mxGeometry>
        </mxCell>
        <mxCell id="_oJygsqH6rhFZPLLzzwx-160" value="transactions" style="shape=table;startSize=30;container=1;collapsible=1;childLayout=tableLayout;fixedRows=1;rowLines=0;fontStyle=1;align=center;resizeLast=1;html=1;" vertex="1" parent="1">
          <mxGeometry x="88" y="901" width="180" height="240" as="geometry" />
        </mxCell>
        <mxCell id="_oJygsqH6rhFZPLLzzwx-161" value="" style="shape=tableRow;horizontal=0;startSize=0;swimlaneHead=0;swimlaneBody=0;fillColor=none;collapsible=0;dropTarget=0;points=[[0,0.5],[1,0.5]];portConstraint=eastwest;top=0;left=0;right=0;bottom=1;" vertex="1" parent="_oJygsqH6rhFZPLLzzwx-160">
          <mxGeometry y="30" width="180" height="30" as="geometry" />
        </mxCell>
        <mxCell id="_oJygsqH6rhFZPLLzzwx-162" value="PK" style="shape=partialRectangle;connectable=0;fillColor=none;top=0;left=0;bottom=0;right=0;fontStyle=1;overflow=hidden;whiteSpace=wrap;html=1;" vertex="1" parent="_oJygsqH6rhFZPLLzzwx-161">
          <mxGeometry width="30" height="30" as="geometry">
            <mxRectangle width="30" height="30" as="alternateBounds" />
          </mxGeometry>
        </mxCell>
        <mxCell id="_oJygsqH6rhFZPLLzzwx-163" value="id" style="shape=partialRectangle;connectable=0;fillColor=none;top=0;left=0;bottom=0;right=0;align=left;spacingLeft=6;fontStyle=5;overflow=hidden;whiteSpace=wrap;html=1;" vertex="1" parent="_oJygsqH6rhFZPLLzzwx-161">
          <mxGeometry x="30" width="150" height="30" as="geometry">
            <mxRectangle width="150" height="30" as="alternateBounds" />
          </mxGeometry>
        </mxCell>
        <mxCell id="_oJygsqH6rhFZPLLzzwx-164" value="" style="shape=tableRow;horizontal=0;startSize=0;swimlaneHead=0;swimlaneBody=0;fillColor=none;collapsible=0;dropTarget=0;points=[[0,0.5],[1,0.5]];portConstraint=eastwest;top=0;left=0;right=0;bottom=0;" vertex="1" parent="_oJygsqH6rhFZPLLzzwx-160">
          <mxGeometry y="60" width="180" height="30" as="geometry" />
        </mxCell>
        <mxCell id="_oJygsqH6rhFZPLLzzwx-165" value="" style="shape=partialRectangle;connectable=0;fillColor=none;top=0;left=0;bottom=0;right=0;editable=1;overflow=hidden;whiteSpace=wrap;html=1;" vertex="1" parent="_oJygsqH6rhFZPLLzzwx-164">
          <mxGeometry width="30" height="30" as="geometry">
            <mxRectangle width="30" height="30" as="alternateBounds" />
          </mxGeometry>
        </mxCell>
        <mxCell id="_oJygsqH6rhFZPLLzzwx-166" value="reservation_id" style="shape=partialRectangle;connectable=0;fillColor=none;top=0;left=0;bottom=0;right=0;align=left;spacingLeft=6;overflow=hidden;whiteSpace=wrap;html=1;" vertex="1" parent="_oJygsqH6rhFZPLLzzwx-164">
          <mxGeometry x="30" width="150" height="30" as="geometry">
            <mxRectangle width="150" height="30" as="alternateBounds" />
          </mxGeometry>
        </mxCell>
        <mxCell id="_oJygsqH6rhFZPLLzzwx-167" value="" style="shape=tableRow;horizontal=0;startSize=0;swimlaneHead=0;swimlaneBody=0;fillColor=none;collapsible=0;dropTarget=0;points=[[0,0.5],[1,0.5]];portConstraint=eastwest;top=0;left=0;right=0;bottom=0;" vertex="1" parent="_oJygsqH6rhFZPLLzzwx-160">
          <mxGeometry y="90" width="180" height="30" as="geometry" />
        </mxCell>
        <mxCell id="_oJygsqH6rhFZPLLzzwx-168" value="" style="shape=partialRectangle;connectable=0;fillColor=none;top=0;left=0;bottom=0;right=0;editable=1;overflow=hidden;whiteSpace=wrap;html=1;" vertex="1" parent="_oJygsqH6rhFZPLLzzwx-167">
          <mxGeometry width="30" height="30" as="geometry">
            <mxRectangle width="30" height="30" as="alternateBounds" />
          </mxGeometry>
        </mxCell>
        <mxCell id="_oJygsqH6rhFZPLLzzwx-169" value="amount" style="shape=partialRectangle;connectable=0;fillColor=none;top=0;left=0;bottom=0;right=0;align=left;spacingLeft=6;overflow=hidden;whiteSpace=wrap;html=1;" vertex="1" parent="_oJygsqH6rhFZPLLzzwx-167">
          <mxGeometry x="30" width="150" height="30" as="geometry">
            <mxRectangle width="150" height="30" as="alternateBounds" />
          </mxGeometry>
        </mxCell>
        <mxCell id="_oJygsqH6rhFZPLLzzwx-170" value="" style="shape=tableRow;horizontal=0;startSize=0;swimlaneHead=0;swimlaneBody=0;fillColor=none;collapsible=0;dropTarget=0;points=[[0,0.5],[1,0.5]];portConstraint=eastwest;top=0;left=0;right=0;bottom=0;" vertex="1" parent="_oJygsqH6rhFZPLLzzwx-160">
          <mxGeometry y="120" width="180" height="30" as="geometry" />
        </mxCell>
        <mxCell id="_oJygsqH6rhFZPLLzzwx-171" value="" style="shape=partialRectangle;connectable=0;fillColor=none;top=0;left=0;bottom=0;right=0;editable=1;overflow=hidden;whiteSpace=wrap;html=1;" vertex="1" parent="_oJygsqH6rhFZPLLzzwx-170">
          <mxGeometry width="30" height="30" as="geometry">
            <mxRectangle width="30" height="30" as="alternateBounds" />
          </mxGeometry>
        </mxCell>
        <mxCell id="_oJygsqH6rhFZPLLzzwx-172" value="payment_method_id" style="shape=partialRectangle;connectable=0;fillColor=none;top=0;left=0;bottom=0;right=0;align=left;spacingLeft=6;overflow=hidden;whiteSpace=wrap;html=1;" vertex="1" parent="_oJygsqH6rhFZPLLzzwx-170">
          <mxGeometry x="30" width="150" height="30" as="geometry">
            <mxRectangle width="150" height="30" as="alternateBounds" />
          </mxGeometry>
        </mxCell>
        <mxCell id="_oJygsqH6rhFZPLLzzwx-173" value="" style="shape=tableRow;horizontal=0;startSize=0;swimlaneHead=0;swimlaneBody=0;fillColor=none;collapsible=0;dropTarget=0;points=[[0,0.5],[1,0.5]];portConstraint=eastwest;top=0;left=0;right=0;bottom=0;" vertex="1" parent="_oJygsqH6rhFZPLLzzwx-160">
          <mxGeometry y="150" width="180" height="30" as="geometry" />
        </mxCell>
        <mxCell id="_oJygsqH6rhFZPLLzzwx-174" value="" style="shape=partialRectangle;connectable=0;fillColor=none;top=0;left=0;bottom=0;right=0;editable=1;overflow=hidden;whiteSpace=wrap;html=1;" vertex="1" parent="_oJygsqH6rhFZPLLzzwx-173">
          <mxGeometry width="30" height="30" as="geometry">
            <mxRectangle width="30" height="30" as="alternateBounds" />
          </mxGeometry>
        </mxCell>
        <mxCell id="_oJygsqH6rhFZPLLzzwx-175" value="created_at" style="shape=partialRectangle;connectable=0;fillColor=none;top=0;left=0;bottom=0;right=0;align=left;spacingLeft=6;overflow=hidden;whiteSpace=wrap;html=1;" vertex="1" parent="_oJygsqH6rhFZPLLzzwx-173">
          <mxGeometry x="30" width="150" height="30" as="geometry">
            <mxRectangle width="150" height="30" as="alternateBounds" />
          </mxGeometry>
        </mxCell>
        <mxCell id="_oJygsqH6rhFZPLLzzwx-176" value="" style="shape=tableRow;horizontal=0;startSize=0;swimlaneHead=0;swimlaneBody=0;fillColor=none;collapsible=0;dropTarget=0;points=[[0,0.5],[1,0.5]];portConstraint=eastwest;top=0;left=0;right=0;bottom=0;" vertex="1" parent="_oJygsqH6rhFZPLLzzwx-160">
          <mxGeometry y="180" width="180" height="30" as="geometry" />
        </mxCell>
        <mxCell id="_oJygsqH6rhFZPLLzzwx-177" value="" style="shape=partialRectangle;connectable=0;fillColor=none;top=0;left=0;bottom=0;right=0;editable=1;overflow=hidden;whiteSpace=wrap;html=1;" vertex="1" parent="_oJygsqH6rhFZPLLzzwx-176">
          <mxGeometry width="30" height="30" as="geometry">
            <mxRectangle width="30" height="30" as="alternateBounds" />
          </mxGeometry>
        </mxCell>
        <mxCell id="_oJygsqH6rhFZPLLzzwx-178" value="updated_at" style="shape=partialRectangle;connectable=0;fillColor=none;top=0;left=0;bottom=0;right=0;align=left;spacingLeft=6;overflow=hidden;whiteSpace=wrap;html=1;" vertex="1" parent="_oJygsqH6rhFZPLLzzwx-176">
          <mxGeometry x="30" width="150" height="30" as="geometry">
            <mxRectangle width="150" height="30" as="alternateBounds" />
          </mxGeometry>
        </mxCell>
        <mxCell id="_oJygsqH6rhFZPLLzzwx-179" value="" style="shape=tableRow;horizontal=0;startSize=0;swimlaneHead=0;swimlaneBody=0;fillColor=none;collapsible=0;dropTarget=0;points=[[0,0.5],[1,0.5]];portConstraint=eastwest;top=0;left=0;right=0;bottom=0;" vertex="1" parent="_oJygsqH6rhFZPLLzzwx-160">
          <mxGeometry y="210" width="180" height="30" as="geometry" />
        </mxCell>
        <mxCell id="_oJygsqH6rhFZPLLzzwx-180" value="" style="shape=partialRectangle;connectable=0;fillColor=none;top=0;left=0;bottom=0;right=0;editable=1;overflow=hidden;whiteSpace=wrap;html=1;" vertex="1" parent="_oJygsqH6rhFZPLLzzwx-179">
          <mxGeometry width="30" height="30" as="geometry">
            <mxRectangle width="30" height="30" as="alternateBounds" />
          </mxGeometry>
        </mxCell>
        <mxCell id="_oJygsqH6rhFZPLLzzwx-181" value="status" style="shape=partialRectangle;connectable=0;fillColor=none;top=0;left=0;bottom=0;right=0;align=left;spacingLeft=6;overflow=hidden;whiteSpace=wrap;html=1;" vertex="1" parent="_oJygsqH6rhFZPLLzzwx-179">
          <mxGeometry x="30" width="150" height="30" as="geometry">
            <mxRectangle width="150" height="30" as="alternateBounds" />
          </mxGeometry>
        </mxCell>
        <mxCell id="_oJygsqH6rhFZPLLzzwx-182" value="payment_methods" style="shape=table;startSize=30;container=1;collapsible=1;childLayout=tableLayout;fixedRows=1;rowLines=0;fontStyle=1;align=center;resizeLast=1;html=1;" vertex="1" parent="1">
          <mxGeometry x="385" y="924" width="180" height="120" as="geometry" />
        </mxCell>
        <mxCell id="_oJygsqH6rhFZPLLzzwx-183" value="" style="shape=tableRow;horizontal=0;startSize=0;swimlaneHead=0;swimlaneBody=0;fillColor=none;collapsible=0;dropTarget=0;points=[[0,0.5],[1,0.5]];portConstraint=eastwest;top=0;left=0;right=0;bottom=1;" vertex="1" parent="_oJygsqH6rhFZPLLzzwx-182">
          <mxGeometry y="30" width="180" height="30" as="geometry" />
        </mxCell>
        <mxCell id="_oJygsqH6rhFZPLLzzwx-184" value="PK" style="shape=partialRectangle;connectable=0;fillColor=none;top=0;left=0;bottom=0;right=0;fontStyle=1;overflow=hidden;whiteSpace=wrap;html=1;" vertex="1" parent="_oJygsqH6rhFZPLLzzwx-183">
          <mxGeometry width="30" height="30" as="geometry">
            <mxRectangle width="30" height="30" as="alternateBounds" />
          </mxGeometry>
        </mxCell>
        <mxCell id="_oJygsqH6rhFZPLLzzwx-185" value="id" style="shape=partialRectangle;connectable=0;fillColor=none;top=0;left=0;bottom=0;right=0;align=left;spacingLeft=6;fontStyle=5;overflow=hidden;whiteSpace=wrap;html=1;" vertex="1" parent="_oJygsqH6rhFZPLLzzwx-183">
          <mxGeometry x="30" width="150" height="30" as="geometry">
            <mxRectangle width="150" height="30" as="alternateBounds" />
          </mxGeometry>
        </mxCell>
        <mxCell id="_oJygsqH6rhFZPLLzzwx-186" value="" style="shape=tableRow;horizontal=0;startSize=0;swimlaneHead=0;swimlaneBody=0;fillColor=none;collapsible=0;dropTarget=0;points=[[0,0.5],[1,0.5]];portConstraint=eastwest;top=0;left=0;right=0;bottom=0;" vertex="1" parent="_oJygsqH6rhFZPLLzzwx-182">
          <mxGeometry y="60" width="180" height="30" as="geometry" />
        </mxCell>
        <mxCell id="_oJygsqH6rhFZPLLzzwx-187" value="" style="shape=partialRectangle;connectable=0;fillColor=none;top=0;left=0;bottom=0;right=0;editable=1;overflow=hidden;whiteSpace=wrap;html=1;" vertex="1" parent="_oJygsqH6rhFZPLLzzwx-186">
          <mxGeometry width="30" height="30" as="geometry">
            <mxRectangle width="30" height="30" as="alternateBounds" />
          </mxGeometry>
        </mxCell>
        <mxCell id="_oJygsqH6rhFZPLLzzwx-188" value="method_name" style="shape=partialRectangle;connectable=0;fillColor=none;top=0;left=0;bottom=0;right=0;align=left;spacingLeft=6;overflow=hidden;whiteSpace=wrap;html=1;" vertex="1" parent="_oJygsqH6rhFZPLLzzwx-186">
          <mxGeometry x="30" width="150" height="30" as="geometry">
            <mxRectangle width="150" height="30" as="alternateBounds" />
          </mxGeometry>
        </mxCell>
        <mxCell id="_oJygsqH6rhFZPLLzzwx-189" value="" style="shape=tableRow;horizontal=0;startSize=0;swimlaneHead=0;swimlaneBody=0;fillColor=none;collapsible=0;dropTarget=0;points=[[0,0.5],[1,0.5]];portConstraint=eastwest;top=0;left=0;right=0;bottom=0;" vertex="1" parent="_oJygsqH6rhFZPLLzzwx-182">
          <mxGeometry y="90" width="180" height="30" as="geometry" />
        </mxCell>
        <mxCell id="_oJygsqH6rhFZPLLzzwx-190" value="" style="shape=partialRectangle;connectable=0;fillColor=none;top=0;left=0;bottom=0;right=0;editable=1;overflow=hidden;whiteSpace=wrap;html=1;" vertex="1" parent="_oJygsqH6rhFZPLLzzwx-189">
          <mxGeometry width="30" height="30" as="geometry">
            <mxRectangle width="30" height="30" as="alternateBounds" />
          </mxGeometry>
        </mxCell>
        <mxCell id="_oJygsqH6rhFZPLLzzwx-191" value="created_at" style="shape=partialRectangle;connectable=0;fillColor=none;top=0;left=0;bottom=0;right=0;align=left;spacingLeft=6;overflow=hidden;whiteSpace=wrap;html=1;" vertex="1" parent="_oJygsqH6rhFZPLLzzwx-189">
          <mxGeometry x="30" width="150" height="30" as="geometry">
            <mxRectangle width="150" height="30" as="alternateBounds" />
          </mxGeometry>
        </mxCell>
        <mxCell id="_oJygsqH6rhFZPLLzzwx-325" style="edgeStyle=elbowEdgeStyle;shape=connector;rounded=0;orthogonalLoop=1;jettySize=auto;html=1;entryX=1;entryY=0.5;entryDx=0;entryDy=0;labelBackgroundColor=default;strokeColor=default;align=center;verticalAlign=middle;fontFamily=Helvetica;fontSize=12;fontColor=default;startArrow=ERmandOne;endArrow=ERzeroToMany;" edge="1" parent="1" source="_oJygsqH6rhFZPLLzzwx-195" target="_oJygsqH6rhFZPLLzzwx-110">
          <mxGeometry relative="1" as="geometry" />
        </mxCell>
        <mxCell id="_oJygsqH6rhFZPLLzzwx-195" value="seat_types" style="shape=table;startSize=30;container=1;collapsible=1;childLayout=tableLayout;fixedRows=1;rowLines=0;fontStyle=1;align=center;resizeLast=1;html=1;" vertex="1" parent="1">
          <mxGeometry x="715" y="342" width="180" height="90" as="geometry" />
        </mxCell>
        <mxCell id="_oJygsqH6rhFZPLLzzwx-199" value="" style="shape=tableRow;horizontal=0;startSize=0;swimlaneHead=0;swimlaneBody=0;fillColor=none;collapsible=0;dropTarget=0;points=[[0,0.5],[1,0.5]];portConstraint=eastwest;top=0;left=0;right=0;bottom=0;" vertex="1" parent="_oJygsqH6rhFZPLLzzwx-195">
          <mxGeometry y="30" width="180" height="30" as="geometry" />
        </mxCell>
        <mxCell id="_oJygsqH6rhFZPLLzzwx-200" value="&lt;b&gt;&lt;br&gt;PK&lt;/b&gt;" style="shape=partialRectangle;connectable=0;fillColor=none;top=0;left=0;bottom=0;right=0;editable=1;overflow=hidden;whiteSpace=wrap;html=1;" vertex="1" parent="_oJygsqH6rhFZPLLzzwx-199">
          <mxGeometry width="30" height="30" as="geometry">
            <mxRectangle width="30" height="30" as="alternateBounds" />
          </mxGeometry>
        </mxCell>
        <mxCell id="_oJygsqH6rhFZPLLzzwx-201" value="type" style="shape=partialRectangle;connectable=0;fillColor=none;top=0;left=0;bottom=0;right=0;align=left;spacingLeft=6;overflow=hidden;whiteSpace=wrap;html=1;" vertex="1" parent="_oJygsqH6rhFZPLLzzwx-199">
          <mxGeometry x="30" width="150" height="30" as="geometry">
            <mxRectangle width="150" height="30" as="alternateBounds" />
          </mxGeometry>
        </mxCell>
        <mxCell id="_oJygsqH6rhFZPLLzzwx-202" value="" style="shape=tableRow;horizontal=0;startSize=0;swimlaneHead=0;swimlaneBody=0;fillColor=none;collapsible=0;dropTarget=0;points=[[0,0.5],[1,0.5]];portConstraint=eastwest;top=0;left=0;right=0;bottom=0;" vertex="1" parent="_oJygsqH6rhFZPLLzzwx-195">
          <mxGeometry y="60" width="180" height="30" as="geometry" />
        </mxCell>
        <mxCell id="_oJygsqH6rhFZPLLzzwx-203" value="" style="shape=partialRectangle;connectable=0;fillColor=none;top=0;left=0;bottom=0;right=0;editable=1;overflow=hidden;whiteSpace=wrap;html=1;" vertex="1" parent="_oJygsqH6rhFZPLLzzwx-202">
          <mxGeometry width="30" height="30" as="geometry">
            <mxRectangle width="30" height="30" as="alternateBounds" />
          </mxGeometry>
        </mxCell>
        <mxCell id="_oJygsqH6rhFZPLLzzwx-204" value="price" style="shape=partialRectangle;connectable=0;fillColor=none;top=0;left=0;bottom=0;right=0;align=left;spacingLeft=6;overflow=hidden;whiteSpace=wrap;html=1;" vertex="1" parent="_oJygsqH6rhFZPLLzzwx-202">
          <mxGeometry x="30" width="150" height="30" as="geometry">
            <mxRectangle width="150" height="30" as="alternateBounds" />
          </mxGeometry>
        </mxCell>
        <mxCell id="_oJygsqH6rhFZPLLzzwx-213" value="movie_images" style="shape=table;startSize=30;container=1;collapsible=1;childLayout=tableLayout;fixedRows=1;rowLines=0;fontStyle=1;align=center;resizeLast=1;html=1;" vertex="1" parent="1">
          <mxGeometry x="-121" y="252" width="180" height="90" as="geometry" />
        </mxCell>
        <mxCell id="_oJygsqH6rhFZPLLzzwx-217" value="" style="shape=tableRow;horizontal=0;startSize=0;swimlaneHead=0;swimlaneBody=0;fillColor=none;collapsible=0;dropTarget=0;points=[[0,0.5],[1,0.5]];portConstraint=eastwest;top=0;left=0;right=0;bottom=0;" vertex="1" parent="_oJygsqH6rhFZPLLzzwx-213">
          <mxGeometry y="30" width="180" height="30" as="geometry" />
        </mxCell>
        <mxCell id="_oJygsqH6rhFZPLLzzwx-218" value="&lt;b&gt;&lt;br&gt;PK&lt;/b&gt;" style="shape=partialRectangle;connectable=0;fillColor=none;top=0;left=0;bottom=0;right=0;editable=1;overflow=hidden;whiteSpace=wrap;html=1;" vertex="1" parent="_oJygsqH6rhFZPLLzzwx-217">
          <mxGeometry width="30" height="30" as="geometry">
            <mxRectangle width="30" height="30" as="alternateBounds" />
          </mxGeometry>
        </mxCell>
        <mxCell id="_oJygsqH6rhFZPLLzzwx-219" value="movie_id" style="shape=partialRectangle;connectable=0;fillColor=none;top=0;left=0;bottom=0;right=0;align=left;spacingLeft=6;overflow=hidden;whiteSpace=wrap;html=1;" vertex="1" parent="_oJygsqH6rhFZPLLzzwx-217">
          <mxGeometry x="30" width="150" height="30" as="geometry">
            <mxRectangle width="150" height="30" as="alternateBounds" />
          </mxGeometry>
        </mxCell>
        <mxCell id="_oJygsqH6rhFZPLLzzwx-220" value="" style="shape=tableRow;horizontal=0;startSize=0;swimlaneHead=0;swimlaneBody=0;fillColor=none;collapsible=0;dropTarget=0;points=[[0,0.5],[1,0.5]];portConstraint=eastwest;top=0;left=0;right=0;bottom=0;" vertex="1" parent="_oJygsqH6rhFZPLLzzwx-213">
          <mxGeometry y="60" width="180" height="30" as="geometry" />
        </mxCell>
        <mxCell id="_oJygsqH6rhFZPLLzzwx-221" value="" style="shape=partialRectangle;connectable=0;fillColor=none;top=0;left=0;bottom=0;right=0;editable=1;overflow=hidden;whiteSpace=wrap;html=1;" vertex="1" parent="_oJygsqH6rhFZPLLzzwx-220">
          <mxGeometry width="30" height="30" as="geometry">
            <mxRectangle width="30" height="30" as="alternateBounds" />
          </mxGeometry>
        </mxCell>
        <mxCell id="_oJygsqH6rhFZPLLzzwx-222" value="image_url" style="shape=partialRectangle;connectable=0;fillColor=none;top=0;left=0;bottom=0;right=0;align=left;spacingLeft=6;overflow=hidden;whiteSpace=wrap;html=1;" vertex="1" parent="_oJygsqH6rhFZPLLzzwx-220">
          <mxGeometry x="30" width="150" height="30" as="geometry">
            <mxRectangle width="150" height="30" as="alternateBounds" />
          </mxGeometry>
        </mxCell>
        <mxCell id="_oJygsqH6rhFZPLLzzwx-253" value="" style="edgeStyle=elbowEdgeStyle;fontSize=12;html=1;endArrow=ERzeroToMany;startArrow=ERmandOne;rounded=0;exitX=1;exitY=0.5;exitDx=0;exitDy=0;entryX=0;entryY=0.5;entryDx=0;entryDy=0;" edge="1" parent="1" source="_oJygsqH6rhFZPLLzzwx-14" target="_oJygsqH6rhFZPLLzzwx-46">
          <mxGeometry width="100" height="100" relative="1" as="geometry">
            <mxPoint x="341" y="243" as="sourcePoint" />
            <mxPoint x="374" y="209" as="targetPoint" />
          </mxGeometry>
        </mxCell>
        <mxCell id="_oJygsqH6rhFZPLLzzwx-254" value="" style="edgeStyle=elbowEdgeStyle;fontSize=12;html=1;endArrow=ERzeroToMany;startArrow=ERmandOne;rounded=0;exitX=0;exitY=0.5;exitDx=0;exitDy=0;entryX=1;entryY=0.5;entryDx=0;entryDy=0;" edge="1" parent="1" source="_oJygsqH6rhFZPLLzzwx-33" target="_oJygsqH6rhFZPLLzzwx-46">
          <mxGeometry width="100" height="100" relative="1" as="geometry">
            <mxPoint x="539" y="562" as="sourcePoint" />
            <mxPoint x="639" y="462" as="targetPoint" />
          </mxGeometry>
        </mxCell>
        <mxCell id="_oJygsqH6rhFZPLLzzwx-258" value="" style="fontSize=12;html=1;endArrow=ERzeroToMany;startArrow=ERmandOne;rounded=0;labelBackgroundColor=default;strokeColor=default;align=center;verticalAlign=middle;fontFamily=Helvetica;fontColor=default;shape=connector;exitX=1;exitY=0.5;exitDx=0;exitDy=0;entryX=0;entryY=0.5;entryDx=0;entryDy=0;edgeStyle=elbowEdgeStyle;" edge="1" parent="1" source="_oJygsqH6rhFZPLLzzwx-20" target="_oJygsqH6rhFZPLLzzwx-91">
          <mxGeometry width="100" height="100" relative="1" as="geometry">
            <mxPoint x="495" y="474" as="sourcePoint" />
            <mxPoint x="595" y="374" as="targetPoint" />
          </mxGeometry>
        </mxCell>
        <mxCell id="_oJygsqH6rhFZPLLzzwx-260" value="" style="edgeStyle=elbowEdgeStyle;fontSize=12;html=1;endArrow=ERzeroToMany;startArrow=ERmandOne;rounded=0;labelBackgroundColor=default;strokeColor=default;align=center;verticalAlign=middle;fontFamily=Helvetica;fontColor=default;shape=connector;exitX=1;exitY=0.5;exitDx=0;exitDy=0;entryX=0;entryY=0.5;entryDx=0;entryDy=0;" edge="1" parent="1" source="_oJygsqH6rhFZPLLzzwx-59" target="_oJygsqH6rhFZPLLzzwx-75">
          <mxGeometry width="100" height="100" relative="1" as="geometry">
            <mxPoint x="165" y="525" as="sourcePoint" />
            <mxPoint x="265" y="425" as="targetPoint" />
          </mxGeometry>
        </mxCell>
        <mxCell id="_oJygsqH6rhFZPLLzzwx-269" value="" style="edgeStyle=elbowEdgeStyle;fontSize=12;html=1;endArrow=ERzeroToMany;startArrow=ERmandOne;rounded=0;labelBackgroundColor=default;strokeColor=default;align=center;verticalAlign=middle;fontFamily=Helvetica;fontColor=default;shape=connector;exitX=0;exitY=0.5;exitDx=0;exitDy=0;entryX=1;entryY=0.5;entryDx=0;entryDy=0;" edge="1" parent="1" source="_oJygsqH6rhFZPLLzzwx-11" target="_oJygsqH6rhFZPLLzzwx-217">
          <mxGeometry width="100" height="100" relative="1" as="geometry">
            <mxPoint x="286" y="529" as="sourcePoint" />
            <mxPoint x="386" y="429" as="targetPoint" />
          </mxGeometry>
        </mxCell>
        <mxCell id="_oJygsqH6rhFZPLLzzwx-271" value="" style="edgeStyle=elbowEdgeStyle;fontSize=12;html=1;endArrow=ERzeroToMany;startArrow=ERmandOne;rounded=0;labelBackgroundColor=default;strokeColor=default;align=center;verticalAlign=middle;fontFamily=Helvetica;fontColor=default;shape=connector;exitX=1;exitY=0.5;exitDx=0;exitDy=0;entryX=0;entryY=0.5;entryDx=0;entryDy=0;" edge="1" parent="1" source="_oJygsqH6rhFZPLLzzwx-132" target="_oJygsqH6rhFZPLLzzwx-139">
          <mxGeometry width="100" height="100" relative="1" as="geometry">
            <mxPoint x="4.000000000000227" y="858.5" as="sourcePoint" />
            <mxPoint x="154" y="825.5" as="targetPoint" />
          </mxGeometry>
        </mxCell>
        <mxCell id="_oJygsqH6rhFZPLLzzwx-274" value="" style="edgeStyle=elbowEdgeStyle;fontSize=12;html=1;endArrow=ERzeroToMany;startArrow=ERmandOne;rounded=0;labelBackgroundColor=default;strokeColor=default;align=center;verticalAlign=middle;fontFamily=Helvetica;fontColor=default;shape=connector;exitX=1;exitY=0.5;exitDx=0;exitDy=0;entryX=0;entryY=0.5;entryDx=0;entryDy=0;" edge="1" parent="1" source="_oJygsqH6rhFZPLLzzwx-135" target="_oJygsqH6rhFZPLLzzwx-167">
          <mxGeometry width="100" height="100" relative="1" as="geometry">
            <mxPoint x="165" y="1035" as="sourcePoint" />
            <mxPoint x="265" y="935" as="targetPoint" />
          </mxGeometry>
        </mxCell>
        <mxCell id="_oJygsqH6rhFZPLLzzwx-275" value="" style="fontSize=12;html=1;endArrow=ERzeroToMany;startArrow=ERmandOne;rounded=0;labelBackgroundColor=default;strokeColor=default;align=center;verticalAlign=middle;fontFamily=Helvetica;fontColor=default;shape=connector;edgeStyle=elbowEdgeStyle;entryX=0;entryY=0.5;entryDx=0;entryDy=0;exitX=1;exitY=0.5;exitDx=0;exitDy=0;" edge="1" parent="1" source="_oJygsqH6rhFZPLLzzwx-75" target="_oJygsqH6rhFZPLLzzwx-97">
          <mxGeometry width="100" height="100" relative="1" as="geometry">
            <mxPoint x="378" y="572" as="sourcePoint" />
            <mxPoint x="396" y="459" as="targetPoint" />
            <Array as="points">
              <mxPoint x="363" y="506" />
              <mxPoint x="407" y="561" />
            </Array>
          </mxGeometry>
        </mxCell>
        <mxCell id="_oJygsqH6rhFZPLLzzwx-276" value="reservation_details" style="shape=table;startSize=30;container=1;collapsible=1;childLayout=tableLayout;fixedRows=1;rowLines=0;fontStyle=1;align=center;resizeLast=1;html=1;" vertex="1" parent="1">
          <mxGeometry x="414" y="778" width="180" height="120" as="geometry" />
        </mxCell>
        <mxCell id="_oJygsqH6rhFZPLLzzwx-277" value="" style="shape=tableRow;horizontal=0;startSize=0;swimlaneHead=0;swimlaneBody=0;fillColor=none;collapsible=0;dropTarget=0;points=[[0,0.5],[1,0.5]];portConstraint=eastwest;top=0;left=0;right=0;bottom=1;" vertex="1" parent="_oJygsqH6rhFZPLLzzwx-276">
          <mxGeometry y="30" width="180" height="30" as="geometry" />
        </mxCell>
        <mxCell id="_oJygsqH6rhFZPLLzzwx-278" value="PK" style="shape=partialRectangle;connectable=0;fillColor=none;top=0;left=0;bottom=0;right=0;fontStyle=1;overflow=hidden;whiteSpace=wrap;html=1;" vertex="1" parent="_oJygsqH6rhFZPLLzzwx-277">
          <mxGeometry width="30" height="30" as="geometry">
            <mxRectangle width="30" height="30" as="alternateBounds" />
          </mxGeometry>
        </mxCell>
        <mxCell id="_oJygsqH6rhFZPLLzzwx-279" value="id" style="shape=partialRectangle;connectable=0;fillColor=none;top=0;left=0;bottom=0;right=0;align=left;spacingLeft=6;fontStyle=5;overflow=hidden;whiteSpace=wrap;html=1;" vertex="1" parent="_oJygsqH6rhFZPLLzzwx-277">
          <mxGeometry x="30" width="150" height="30" as="geometry">
            <mxRectangle width="150" height="30" as="alternateBounds" />
          </mxGeometry>
        </mxCell>
        <mxCell id="_oJygsqH6rhFZPLLzzwx-280" value="" style="shape=tableRow;horizontal=0;startSize=0;swimlaneHead=0;swimlaneBody=0;fillColor=none;collapsible=0;dropTarget=0;points=[[0,0.5],[1,0.5]];portConstraint=eastwest;top=0;left=0;right=0;bottom=0;" vertex="1" parent="_oJygsqH6rhFZPLLzzwx-276">
          <mxGeometry y="60" width="180" height="30" as="geometry" />
        </mxCell>
        <mxCell id="_oJygsqH6rhFZPLLzzwx-281" value="" style="shape=partialRectangle;connectable=0;fillColor=none;top=0;left=0;bottom=0;right=0;editable=1;overflow=hidden;whiteSpace=wrap;html=1;" vertex="1" parent="_oJygsqH6rhFZPLLzzwx-280">
          <mxGeometry width="30" height="30" as="geometry">
            <mxRectangle width="30" height="30" as="alternateBounds" />
          </mxGeometry>
        </mxCell>
        <mxCell id="_oJygsqH6rhFZPLLzzwx-282" value="reservation_id" style="shape=partialRectangle;connectable=0;fillColor=none;top=0;left=0;bottom=0;right=0;align=left;spacingLeft=6;overflow=hidden;whiteSpace=wrap;html=1;" vertex="1" parent="_oJygsqH6rhFZPLLzzwx-280">
          <mxGeometry x="30" width="150" height="30" as="geometry">
            <mxRectangle width="150" height="30" as="alternateBounds" />
          </mxGeometry>
        </mxCell>
        <mxCell id="_oJygsqH6rhFZPLLzzwx-283" value="" style="shape=tableRow;horizontal=0;startSize=0;swimlaneHead=0;swimlaneBody=0;fillColor=none;collapsible=0;dropTarget=0;points=[[0,0.5],[1,0.5]];portConstraint=eastwest;top=0;left=0;right=0;bottom=0;" vertex="1" parent="_oJygsqH6rhFZPLLzzwx-276">
          <mxGeometry y="90" width="180" height="30" as="geometry" />
        </mxCell>
        <mxCell id="_oJygsqH6rhFZPLLzzwx-284" value="" style="shape=partialRectangle;connectable=0;fillColor=none;top=0;left=0;bottom=0;right=0;editable=1;overflow=hidden;whiteSpace=wrap;html=1;" vertex="1" parent="_oJygsqH6rhFZPLLzzwx-283">
          <mxGeometry width="30" height="30" as="geometry">
            <mxRectangle width="30" height="30" as="alternateBounds" />
          </mxGeometry>
        </mxCell>
        <mxCell id="_oJygsqH6rhFZPLLzzwx-285" value="seat_id" style="shape=partialRectangle;connectable=0;fillColor=none;top=0;left=0;bottom=0;right=0;align=left;spacingLeft=6;overflow=hidden;whiteSpace=wrap;html=1;" vertex="1" parent="_oJygsqH6rhFZPLLzzwx-283">
          <mxGeometry x="30" width="150" height="30" as="geometry">
            <mxRectangle width="150" height="30" as="alternateBounds" />
          </mxGeometry>
        </mxCell>
        <mxCell id="_oJygsqH6rhFZPLLzzwx-294" value="" style="edgeStyle=elbowEdgeStyle;fontSize=12;html=1;endArrow=ERzeroToMany;startArrow=ERmandOne;rounded=0;labelBackgroundColor=default;strokeColor=default;align=center;verticalAlign=middle;fontFamily=Helvetica;fontColor=default;shape=connector;exitX=1;exitY=0.5;exitDx=0;exitDy=0;entryX=0;entryY=0.5;entryDx=0;entryDy=0;" edge="1" parent="1" source="_oJygsqH6rhFZPLLzzwx-145" target="_oJygsqH6rhFZPLLzzwx-280">
          <mxGeometry width="100" height="100" relative="1" as="geometry">
            <mxPoint x="264" y="936" as="sourcePoint" />
            <mxPoint x="616" y="1078" as="targetPoint" />
          </mxGeometry>
        </mxCell>
        <mxCell id="_oJygsqH6rhFZPLLzzwx-316" value="" style="fontSize=12;html=1;endArrow=ERzeroToMany;startArrow=ERmandOne;rounded=0;labelBackgroundColor=default;strokeColor=default;align=center;verticalAlign=middle;fontFamily=Helvetica;fontColor=default;shape=connector;edgeStyle=elbowEdgeStyle;entryX=0;entryY=0.5;entryDx=0;entryDy=0;exitX=1;exitY=0.5;exitDx=0;exitDy=0;" edge="1" parent="1" source="_oJygsqH6rhFZPLLzzwx-78" target="_oJygsqH6rhFZPLLzzwx-113">
          <mxGeometry width="100" height="100" relative="1" as="geometry">
            <mxPoint x="389" y="583" as="sourcePoint" />
            <mxPoint x="473" y="440" as="targetPoint" />
          </mxGeometry>
        </mxCell>
        <mxCell id="_oJygsqH6rhFZPLLzzwx-317" value="" style="fontSize=12;html=1;endArrow=ERzeroToMany;startArrow=ERmandOne;rounded=0;labelBackgroundColor=default;strokeColor=default;align=center;verticalAlign=middle;fontFamily=Helvetica;fontColor=default;shape=connector;edgeStyle=elbowEdgeStyle;entryX=1;entryY=0.5;entryDx=0;entryDy=0;exitX=1;exitY=0.5;exitDx=0;exitDy=0;" edge="1" parent="1" source="_oJygsqH6rhFZPLLzzwx-113" target="_oJygsqH6rhFZPLLzzwx-280">
          <mxGeometry width="100" height="100" relative="1" as="geometry">
            <mxPoint x="389" y="641" as="sourcePoint" />
            <mxPoint x="550" y="643" as="targetPoint" />
            <Array as="points">
              <mxPoint x="682" y="737" />
            </Array>
          </mxGeometry>
        </mxCell>
        <mxCell id="_oJygsqH6rhFZPLLzzwx-319" value="" style="edgeStyle=elbowEdgeStyle;fontSize=12;html=1;endArrow=ERmandOne;startArrow=ERmandOne;rounded=0;labelBackgroundColor=default;strokeColor=default;align=center;verticalAlign=middle;fontFamily=Helvetica;fontColor=default;shape=connector;exitX=1;exitY=0.5;exitDx=0;exitDy=0;entryX=1;entryY=0.5;entryDx=0;entryDy=0;" edge="1" parent="1" source="_oJygsqH6rhFZPLLzzwx-148" target="_oJygsqH6rhFZPLLzzwx-167">
          <mxGeometry width="100" height="100" relative="1" as="geometry">
            <mxPoint x="220" y="936" as="sourcePoint" />
            <mxPoint x="320" y="836" as="targetPoint" />
            <Array as="points">
              <mxPoint x="319" y="902" />
            </Array>
          </mxGeometry>
        </mxCell>
        <mxCell id="_oJygsqH6rhFZPLLzzwx-320" style="edgeStyle=elbowEdgeStyle;shape=connector;rounded=0;orthogonalLoop=1;jettySize=auto;html=1;exitX=0.75;exitY=0;exitDx=0;exitDy=0;labelBackgroundColor=default;strokeColor=default;align=center;verticalAlign=middle;fontFamily=Helvetica;fontSize=12;fontColor=default;startArrow=ERmandOne;endArrow=ERzeroToMany;" edge="1" parent="1">
          <mxGeometry relative="1" as="geometry">
            <mxPoint x="-320.0000000000002" y="847" as="sourcePoint" />
            <mxPoint x="-319.57142857142844" y="847" as="targetPoint" />
          </mxGeometry>
        </mxCell>
        <mxCell id="_oJygsqH6rhFZPLLzzwx-321" value="" style="edgeStyle=elbowEdgeStyle;fontSize=12;html=1;endArrow=ERzeroToMany;startArrow=ERmandOne;rounded=0;labelBackgroundColor=default;strokeColor=default;align=center;verticalAlign=middle;fontFamily=Helvetica;fontColor=default;shape=connector;exitX=0;exitY=0.5;exitDx=0;exitDy=0;entryX=1;entryY=0.5;entryDx=0;entryDy=0;" edge="1" parent="1" source="_oJygsqH6rhFZPLLzzwx-189" target="_oJygsqH6rhFZPLLzzwx-173">
          <mxGeometry width="100" height="100" relative="1" as="geometry">
            <mxPoint x="345" y="864" as="sourcePoint" />
            <mxPoint x="425" y="864" as="targetPoint" />
          </mxGeometry>
        </mxCell>
      </root>
    </mxGraphModel>
  </diagram>
  <diagram id="LsuZFQEEiSXXfqpl-DhS" name="datalogical">
    <mxGraphModel dx="2209" dy="965" grid="1" gridSize="11" guides="1" tooltips="1" connect="1" arrows="1" fold="1" page="1" pageScale="1" pageWidth="827" pageHeight="1169" math="0" shadow="0">
      <root>
        <mxCell id="0" />
        <mxCell id="1" parent="0" />
        <mxCell id="7fOwP_-cTyCt3Tkq88IL-1" value="movies" style="shape=table;startSize=30;container=1;collapsible=1;childLayout=tableLayout;fixedRows=1;rowLines=0;fontStyle=1;align=center;resizeLast=1;html=1;" vertex="1" parent="1">
          <mxGeometry x="88" y="143" width="264" height="270" as="geometry" />
        </mxCell>
        <mxCell id="7fOwP_-cTyCt3Tkq88IL-2" value="" style="shape=tableRow;horizontal=0;startSize=0;swimlaneHead=0;swimlaneBody=0;fillColor=none;collapsible=0;dropTarget=0;points=[[0,0.5],[1,0.5]];portConstraint=eastwest;top=0;left=0;right=0;bottom=1;" vertex="1" parent="7fOwP_-cTyCt3Tkq88IL-1">
          <mxGeometry y="30" width="264" height="30" as="geometry" />
        </mxCell>
        <mxCell id="7fOwP_-cTyCt3Tkq88IL-3" value="PK" style="shape=partialRectangle;connectable=0;fillColor=none;top=0;left=0;bottom=0;right=0;fontStyle=1;overflow=hidden;whiteSpace=wrap;html=1;" vertex="1" parent="7fOwP_-cTyCt3Tkq88IL-2">
          <mxGeometry width="30" height="30" as="geometry">
            <mxRectangle width="30" height="30" as="alternateBounds" />
          </mxGeometry>
        </mxCell>
        <mxCell id="7fOwP_-cTyCt3Tkq88IL-4" value="id SERIAL" style="shape=partialRectangle;connectable=0;fillColor=none;top=0;left=0;bottom=0;right=0;align=left;spacingLeft=6;fontStyle=5;overflow=hidden;whiteSpace=wrap;html=1;" vertex="1" parent="7fOwP_-cTyCt3Tkq88IL-2">
          <mxGeometry x="30" width="234" height="30" as="geometry">
            <mxRectangle width="234" height="30" as="alternateBounds" />
          </mxGeometry>
        </mxCell>
        <mxCell id="7fOwP_-cTyCt3Tkq88IL-5" value="" style="shape=tableRow;horizontal=0;startSize=0;swimlaneHead=0;swimlaneBody=0;fillColor=none;collapsible=0;dropTarget=0;points=[[0,0.5],[1,0.5]];portConstraint=eastwest;top=0;left=0;right=0;bottom=0;" vertex="1" parent="7fOwP_-cTyCt3Tkq88IL-1">
          <mxGeometry y="60" width="264" height="30" as="geometry" />
        </mxCell>
        <mxCell id="7fOwP_-cTyCt3Tkq88IL-6" value="" style="shape=partialRectangle;connectable=0;fillColor=none;top=0;left=0;bottom=0;right=0;editable=1;overflow=hidden;whiteSpace=wrap;html=1;" vertex="1" parent="7fOwP_-cTyCt3Tkq88IL-5">
          <mxGeometry width="30" height="30" as="geometry">
            <mxRectangle width="30" height="30" as="alternateBounds" />
          </mxGeometry>
        </mxCell>
        <mxCell id="7fOwP_-cTyCt3Tkq88IL-7" value="title VARCHAR(256) NOT NULL" style="shape=partialRectangle;connectable=0;fillColor=none;top=0;left=0;bottom=0;right=0;align=left;spacingLeft=6;overflow=hidden;whiteSpace=wrap;html=1;" vertex="1" parent="7fOwP_-cTyCt3Tkq88IL-5">
          <mxGeometry x="30" width="234" height="30" as="geometry">
            <mxRectangle width="234" height="30" as="alternateBounds" />
          </mxGeometry>
        </mxCell>
        <mxCell id="7fOwP_-cTyCt3Tkq88IL-8" value="" style="shape=tableRow;horizontal=0;startSize=0;swimlaneHead=0;swimlaneBody=0;fillColor=none;collapsible=0;dropTarget=0;points=[[0,0.5],[1,0.5]];portConstraint=eastwest;top=0;left=0;right=0;bottom=0;" vertex="1" parent="7fOwP_-cTyCt3Tkq88IL-1">
          <mxGeometry y="90" width="264" height="30" as="geometry" />
        </mxCell>
        <mxCell id="7fOwP_-cTyCt3Tkq88IL-9" value="" style="shape=partialRectangle;connectable=0;fillColor=none;top=0;left=0;bottom=0;right=0;editable=1;overflow=hidden;whiteSpace=wrap;html=1;" vertex="1" parent="7fOwP_-cTyCt3Tkq88IL-8">
          <mxGeometry width="30" height="30" as="geometry">
            <mxRectangle width="30" height="30" as="alternateBounds" />
          </mxGeometry>
        </mxCell>
        <mxCell id="7fOwP_-cTyCt3Tkq88IL-10" value="duration INTERVAL NOT NULL" style="shape=partialRectangle;connectable=0;fillColor=none;top=0;left=0;bottom=0;right=0;align=left;spacingLeft=6;overflow=hidden;whiteSpace=wrap;html=1;" vertex="1" parent="7fOwP_-cTyCt3Tkq88IL-8">
          <mxGeometry x="30" width="234" height="30" as="geometry">
            <mxRectangle width="234" height="30" as="alternateBounds" />
          </mxGeometry>
        </mxCell>
        <mxCell id="7fOwP_-cTyCt3Tkq88IL-11" value="" style="shape=tableRow;horizontal=0;startSize=0;swimlaneHead=0;swimlaneBody=0;fillColor=none;collapsible=0;dropTarget=0;points=[[0,0.5],[1,0.5]];portConstraint=eastwest;top=0;left=0;right=0;bottom=0;" vertex="1" parent="7fOwP_-cTyCt3Tkq88IL-1">
          <mxGeometry y="120" width="264" height="30" as="geometry" />
        </mxCell>
        <mxCell id="7fOwP_-cTyCt3Tkq88IL-12" value="" style="shape=partialRectangle;connectable=0;fillColor=none;top=0;left=0;bottom=0;right=0;editable=1;overflow=hidden;whiteSpace=wrap;html=1;" vertex="1" parent="7fOwP_-cTyCt3Tkq88IL-11">
          <mxGeometry width="30" height="30" as="geometry">
            <mxRectangle width="30" height="30" as="alternateBounds" />
          </mxGeometry>
        </mxCell>
        <mxCell id="7fOwP_-cTyCt3Tkq88IL-13" value="synopsis TEXT NOT NULL" style="shape=partialRectangle;connectable=0;fillColor=none;top=0;left=0;bottom=0;right=0;align=left;spacingLeft=6;overflow=hidden;whiteSpace=wrap;html=1;" vertex="1" parent="7fOwP_-cTyCt3Tkq88IL-11">
          <mxGeometry x="30" width="234" height="30" as="geometry">
            <mxRectangle width="234" height="30" as="alternateBounds" />
          </mxGeometry>
        </mxCell>
        <mxCell id="7fOwP_-cTyCt3Tkq88IL-14" value="" style="shape=tableRow;horizontal=0;startSize=0;swimlaneHead=0;swimlaneBody=0;fillColor=none;collapsible=0;dropTarget=0;points=[[0,0.5],[1,0.5]];portConstraint=eastwest;top=0;left=0;right=0;bottom=0;" vertex="1" parent="7fOwP_-cTyCt3Tkq88IL-1">
          <mxGeometry y="150" width="264" height="30" as="geometry" />
        </mxCell>
        <mxCell id="7fOwP_-cTyCt3Tkq88IL-15" value="" style="shape=partialRectangle;connectable=0;fillColor=none;top=0;left=0;bottom=0;right=0;editable=1;overflow=hidden;whiteSpace=wrap;html=1;" vertex="1" parent="7fOwP_-cTyCt3Tkq88IL-14">
          <mxGeometry width="30" height="30" as="geometry">
            <mxRectangle width="30" height="30" as="alternateBounds" />
          </mxGeometry>
        </mxCell>
        <mxCell id="7fOwP_-cTyCt3Tkq88IL-16" value="release_date TIMESTAMP NOT NULL" style="shape=partialRectangle;connectable=0;fillColor=none;top=0;left=0;bottom=0;right=0;align=left;spacingLeft=6;overflow=hidden;whiteSpace=wrap;html=1;" vertex="1" parent="7fOwP_-cTyCt3Tkq88IL-14">
          <mxGeometry x="30" width="234" height="30" as="geometry">
            <mxRectangle width="234" height="30" as="alternateBounds" />
          </mxGeometry>
        </mxCell>
        <mxCell id="7fOwP_-cTyCt3Tkq88IL-17" value="" style="shape=tableRow;horizontal=0;startSize=0;swimlaneHead=0;swimlaneBody=0;fillColor=none;collapsible=0;dropTarget=0;points=[[0,0.5],[1,0.5]];portConstraint=eastwest;top=0;left=0;right=0;bottom=0;" vertex="1" parent="7fOwP_-cTyCt3Tkq88IL-1">
          <mxGeometry y="180" width="264" height="30" as="geometry" />
        </mxCell>
        <mxCell id="7fOwP_-cTyCt3Tkq88IL-18" value="" style="shape=partialRectangle;connectable=0;fillColor=none;top=0;left=0;bottom=0;right=0;editable=1;overflow=hidden;whiteSpace=wrap;html=1;" vertex="1" parent="7fOwP_-cTyCt3Tkq88IL-17">
          <mxGeometry width="30" height="30" as="geometry">
            <mxRectangle width="30" height="30" as="alternateBounds" />
          </mxGeometry>
        </mxCell>
        <mxCell id="7fOwP_-cTyCt3Tkq88IL-19" value="thumbnail_url VARCHAR(512) NOT NULL" style="shape=partialRectangle;connectable=0;fillColor=none;top=0;left=0;bottom=0;right=0;align=left;spacingLeft=6;overflow=hidden;whiteSpace=wrap;html=1;" vertex="1" parent="7fOwP_-cTyCt3Tkq88IL-17">
          <mxGeometry x="30" width="234" height="30" as="geometry">
            <mxRectangle width="234" height="30" as="alternateBounds" />
          </mxGeometry>
        </mxCell>
        <mxCell id="7fOwP_-cTyCt3Tkq88IL-20" value="" style="shape=tableRow;horizontal=0;startSize=0;swimlaneHead=0;swimlaneBody=0;fillColor=none;collapsible=0;dropTarget=0;points=[[0,0.5],[1,0.5]];portConstraint=eastwest;top=0;left=0;right=0;bottom=0;" vertex="1" parent="7fOwP_-cTyCt3Tkq88IL-1">
          <mxGeometry y="210" width="264" height="30" as="geometry" />
        </mxCell>
        <mxCell id="7fOwP_-cTyCt3Tkq88IL-21" value="" style="shape=partialRectangle;connectable=0;fillColor=none;top=0;left=0;bottom=0;right=0;editable=1;overflow=hidden;whiteSpace=wrap;html=1;" vertex="1" parent="7fOwP_-cTyCt3Tkq88IL-20">
          <mxGeometry width="30" height="30" as="geometry">
            <mxRectangle width="30" height="30" as="alternateBounds" />
          </mxGeometry>
        </mxCell>
        <mxCell id="7fOwP_-cTyCt3Tkq88IL-22" value="trailer_url VARCHAR(512) NOT NULL" style="shape=partialRectangle;connectable=0;fillColor=none;top=0;left=0;bottom=0;right=0;align=left;spacingLeft=6;overflow=hidden;whiteSpace=wrap;html=1;" vertex="1" parent="7fOwP_-cTyCt3Tkq88IL-20">
          <mxGeometry x="30" width="234" height="30" as="geometry">
            <mxRectangle width="234" height="30" as="alternateBounds" />
          </mxGeometry>
        </mxCell>
        <mxCell id="7fOwP_-cTyCt3Tkq88IL-23" value="" style="shape=tableRow;horizontal=0;startSize=0;swimlaneHead=0;swimlaneBody=0;fillColor=none;collapsible=0;dropTarget=0;points=[[0,0.5],[1,0.5]];portConstraint=eastwest;top=0;left=0;right=0;bottom=0;" vertex="1" parent="7fOwP_-cTyCt3Tkq88IL-1">
          <mxGeometry y="240" width="264" height="30" as="geometry" />
        </mxCell>
        <mxCell id="7fOwP_-cTyCt3Tkq88IL-24" value="" style="shape=partialRectangle;connectable=0;fillColor=none;top=0;left=0;bottom=0;right=0;editable=1;overflow=hidden;whiteSpace=wrap;html=1;" vertex="1" parent="7fOwP_-cTyCt3Tkq88IL-23">
          <mxGeometry width="30" height="30" as="geometry">
            <mxRectangle width="30" height="30" as="alternateBounds" />
          </mxGeometry>
        </mxCell>
        <mxCell id="7fOwP_-cTyCt3Tkq88IL-25" value="created_at TIMESTAMP NOT NULL" style="shape=partialRectangle;connectable=0;fillColor=none;top=0;left=0;bottom=0;right=0;align=left;spacingLeft=6;overflow=hidden;whiteSpace=wrap;html=1;" vertex="1" parent="7fOwP_-cTyCt3Tkq88IL-23">
          <mxGeometry x="30" width="234" height="30" as="geometry">
            <mxRectangle width="234" height="30" as="alternateBounds" />
          </mxGeometry>
        </mxCell>
        <mxCell id="7fOwP_-cTyCt3Tkq88IL-29" value="genres" style="shape=table;startSize=30;container=1;collapsible=1;childLayout=tableLayout;fixedRows=1;rowLines=0;fontStyle=1;align=center;resizeLast=1;html=1;" vertex="1" parent="1">
          <mxGeometry x="693" y="91" width="253" height="96" as="geometry" />
        </mxCell>
        <mxCell id="7fOwP_-cTyCt3Tkq88IL-30" value="" style="shape=tableRow;horizontal=0;startSize=0;swimlaneHead=0;swimlaneBody=0;fillColor=none;collapsible=0;dropTarget=0;points=[[0,0.5],[1,0.5]];portConstraint=eastwest;top=0;left=0;right=0;bottom=1;" vertex="1" parent="7fOwP_-cTyCt3Tkq88IL-29">
          <mxGeometry y="30" width="253" height="30" as="geometry" />
        </mxCell>
        <mxCell id="7fOwP_-cTyCt3Tkq88IL-31" value="PK" style="shape=partialRectangle;connectable=0;fillColor=none;top=0;left=0;bottom=0;right=0;fontStyle=1;overflow=hidden;whiteSpace=wrap;html=1;" vertex="1" parent="7fOwP_-cTyCt3Tkq88IL-30">
          <mxGeometry width="30" height="30" as="geometry">
            <mxRectangle width="30" height="30" as="alternateBounds" />
          </mxGeometry>
        </mxCell>
        <mxCell id="7fOwP_-cTyCt3Tkq88IL-32" value="id SERIAL" style="shape=partialRectangle;connectable=0;fillColor=none;top=0;left=0;bottom=0;right=0;align=left;spacingLeft=6;fontStyle=5;overflow=hidden;whiteSpace=wrap;html=1;" vertex="1" parent="7fOwP_-cTyCt3Tkq88IL-30">
          <mxGeometry x="30" width="223" height="30" as="geometry">
            <mxRectangle width="223" height="30" as="alternateBounds" />
          </mxGeometry>
        </mxCell>
        <mxCell id="7fOwP_-cTyCt3Tkq88IL-33" value="" style="shape=tableRow;horizontal=0;startSize=0;swimlaneHead=0;swimlaneBody=0;fillColor=none;collapsible=0;dropTarget=0;points=[[0,0.5],[1,0.5]];portConstraint=eastwest;top=0;left=0;right=0;bottom=0;" vertex="1" parent="7fOwP_-cTyCt3Tkq88IL-29">
          <mxGeometry y="60" width="253" height="36" as="geometry" />
        </mxCell>
        <mxCell id="7fOwP_-cTyCt3Tkq88IL-34" value="" style="shape=partialRectangle;connectable=0;fillColor=none;top=0;left=0;bottom=0;right=0;editable=1;overflow=hidden;whiteSpace=wrap;html=1;" vertex="1" parent="7fOwP_-cTyCt3Tkq88IL-33">
          <mxGeometry width="30" height="36" as="geometry">
            <mxRectangle width="30" height="36" as="alternateBounds" />
          </mxGeometry>
        </mxCell>
        <mxCell id="7fOwP_-cTyCt3Tkq88IL-35" value="name VARCHAR(256) NOT NULL" style="shape=partialRectangle;connectable=0;fillColor=none;top=0;left=0;bottom=0;right=0;align=left;spacingLeft=6;overflow=hidden;whiteSpace=wrap;html=1;" vertex="1" parent="7fOwP_-cTyCt3Tkq88IL-33">
          <mxGeometry x="30" width="223" height="36" as="geometry">
            <mxRectangle width="223" height="36" as="alternateBounds" />
          </mxGeometry>
        </mxCell>
        <mxCell id="7fOwP_-cTyCt3Tkq88IL-42" value="movie_genres" style="shape=table;startSize=30;container=1;collapsible=1;childLayout=tableLayout;fixedRows=1;rowLines=0;fontStyle=1;align=center;resizeLast=1;html=1;" vertex="1" parent="1">
          <mxGeometry x="418" y="121" width="224" height="90" as="geometry" />
        </mxCell>
        <mxCell id="7fOwP_-cTyCt3Tkq88IL-43" value="" style="shape=tableRow;horizontal=0;startSize=0;swimlaneHead=0;swimlaneBody=0;fillColor=none;collapsible=0;dropTarget=0;points=[[0,0.5],[1,0.5]];portConstraint=eastwest;top=0;left=0;right=0;bottom=0;" vertex="1" parent="7fOwP_-cTyCt3Tkq88IL-42">
          <mxGeometry y="30" width="224" height="30" as="geometry" />
        </mxCell>
        <mxCell id="7fOwP_-cTyCt3Tkq88IL-44" value="FK" style="shape=partialRectangle;connectable=0;fillColor=none;top=0;left=0;bottom=0;right=0;editable=1;overflow=hidden;whiteSpace=wrap;html=1;" vertex="1" parent="7fOwP_-cTyCt3Tkq88IL-43">
          <mxGeometry width="30" height="30" as="geometry">
            <mxRectangle width="30" height="30" as="alternateBounds" />
          </mxGeometry>
        </mxCell>
        <mxCell id="7fOwP_-cTyCt3Tkq88IL-45" value="movie_id INTEGER NOT NULL" style="shape=partialRectangle;connectable=0;fillColor=none;top=0;left=0;bottom=0;right=0;align=left;spacingLeft=6;overflow=hidden;whiteSpace=wrap;html=1;" vertex="1" parent="7fOwP_-cTyCt3Tkq88IL-43">
          <mxGeometry x="30" width="194" height="30" as="geometry">
            <mxRectangle width="194" height="30" as="alternateBounds" />
          </mxGeometry>
        </mxCell>
        <mxCell id="7fOwP_-cTyCt3Tkq88IL-46" value="" style="shape=tableRow;horizontal=0;startSize=0;swimlaneHead=0;swimlaneBody=0;fillColor=none;collapsible=0;dropTarget=0;points=[[0,0.5],[1,0.5]];portConstraint=eastwest;top=0;left=0;right=0;bottom=0;" vertex="1" parent="7fOwP_-cTyCt3Tkq88IL-42">
          <mxGeometry y="60" width="224" height="30" as="geometry" />
        </mxCell>
        <mxCell id="7fOwP_-cTyCt3Tkq88IL-47" value="FK" style="shape=partialRectangle;connectable=0;fillColor=none;top=0;left=0;bottom=0;right=0;editable=1;overflow=hidden;whiteSpace=wrap;html=1;" vertex="1" parent="7fOwP_-cTyCt3Tkq88IL-46">
          <mxGeometry width="30" height="30" as="geometry">
            <mxRectangle width="30" height="30" as="alternateBounds" />
          </mxGeometry>
        </mxCell>
        <mxCell id="7fOwP_-cTyCt3Tkq88IL-48" value="genre_id INTEGER NOT NULL" style="shape=partialRectangle;connectable=0;fillColor=none;top=0;left=0;bottom=0;right=0;align=left;spacingLeft=6;overflow=hidden;whiteSpace=wrap;html=1;" vertex="1" parent="7fOwP_-cTyCt3Tkq88IL-46">
          <mxGeometry x="30" width="194" height="30" as="geometry">
            <mxRectangle width="194" height="30" as="alternateBounds" />
          </mxGeometry>
        </mxCell>
        <mxCell id="7fOwP_-cTyCt3Tkq88IL-49" value="theaters" style="shape=table;startSize=30;container=1;collapsible=1;childLayout=tableLayout;fixedRows=1;rowLines=0;fontStyle=1;align=center;resizeLast=1;html=1;" vertex="1" parent="1">
          <mxGeometry x="-251" y="495" width="253" height="180" as="geometry" />
        </mxCell>
        <mxCell id="7fOwP_-cTyCt3Tkq88IL-50" value="" style="shape=tableRow;horizontal=0;startSize=0;swimlaneHead=0;swimlaneBody=0;fillColor=none;collapsible=0;dropTarget=0;points=[[0,0.5],[1,0.5]];portConstraint=eastwest;top=0;left=0;right=0;bottom=1;" vertex="1" parent="7fOwP_-cTyCt3Tkq88IL-49">
          <mxGeometry y="30" width="253" height="30" as="geometry" />
        </mxCell>
        <mxCell id="7fOwP_-cTyCt3Tkq88IL-51" value="PK" style="shape=partialRectangle;connectable=0;fillColor=none;top=0;left=0;bottom=0;right=0;fontStyle=1;overflow=hidden;whiteSpace=wrap;html=1;" vertex="1" parent="7fOwP_-cTyCt3Tkq88IL-50">
          <mxGeometry width="30" height="30" as="geometry">
            <mxRectangle width="30" height="30" as="alternateBounds" />
          </mxGeometry>
        </mxCell>
        <mxCell id="7fOwP_-cTyCt3Tkq88IL-52" value="id SERIAL" style="shape=partialRectangle;connectable=0;fillColor=none;top=0;left=0;bottom=0;right=0;align=left;spacingLeft=6;fontStyle=5;overflow=hidden;whiteSpace=wrap;html=1;" vertex="1" parent="7fOwP_-cTyCt3Tkq88IL-50">
          <mxGeometry x="30" width="223" height="30" as="geometry">
            <mxRectangle width="223" height="30" as="alternateBounds" />
          </mxGeometry>
        </mxCell>
        <mxCell id="7fOwP_-cTyCt3Tkq88IL-53" value="" style="shape=tableRow;horizontal=0;startSize=0;swimlaneHead=0;swimlaneBody=0;fillColor=none;collapsible=0;dropTarget=0;points=[[0,0.5],[1,0.5]];portConstraint=eastwest;top=0;left=0;right=0;bottom=0;" vertex="1" parent="7fOwP_-cTyCt3Tkq88IL-49">
          <mxGeometry y="60" width="253" height="30" as="geometry" />
        </mxCell>
        <mxCell id="7fOwP_-cTyCt3Tkq88IL-54" value="" style="shape=partialRectangle;connectable=0;fillColor=none;top=0;left=0;bottom=0;right=0;editable=1;overflow=hidden;whiteSpace=wrap;html=1;" vertex="1" parent="7fOwP_-cTyCt3Tkq88IL-53">
          <mxGeometry width="30" height="30" as="geometry">
            <mxRectangle width="30" height="30" as="alternateBounds" />
          </mxGeometry>
        </mxCell>
        <mxCell id="7fOwP_-cTyCt3Tkq88IL-55" value="name VARCHAR(256) NOT NULL" style="shape=partialRectangle;connectable=0;fillColor=none;top=0;left=0;bottom=0;right=0;align=left;spacingLeft=6;overflow=hidden;whiteSpace=wrap;html=1;" vertex="1" parent="7fOwP_-cTyCt3Tkq88IL-53">
          <mxGeometry x="30" width="223" height="30" as="geometry">
            <mxRectangle width="223" height="30" as="alternateBounds" />
          </mxGeometry>
        </mxCell>
        <mxCell id="7fOwP_-cTyCt3Tkq88IL-56" value="" style="shape=tableRow;horizontal=0;startSize=0;swimlaneHead=0;swimlaneBody=0;fillColor=none;collapsible=0;dropTarget=0;points=[[0,0.5],[1,0.5]];portConstraint=eastwest;top=0;left=0;right=0;bottom=0;" vertex="1" parent="7fOwP_-cTyCt3Tkq88IL-49">
          <mxGeometry y="90" width="253" height="30" as="geometry" />
        </mxCell>
        <mxCell id="7fOwP_-cTyCt3Tkq88IL-57" value="" style="shape=partialRectangle;connectable=0;fillColor=none;top=0;left=0;bottom=0;right=0;editable=1;overflow=hidden;whiteSpace=wrap;html=1;" vertex="1" parent="7fOwP_-cTyCt3Tkq88IL-56">
          <mxGeometry width="30" height="30" as="geometry">
            <mxRectangle width="30" height="30" as="alternateBounds" />
          </mxGeometry>
        </mxCell>
        <mxCell id="7fOwP_-cTyCt3Tkq88IL-58" value="location FLOAT NOT NULL" style="shape=partialRectangle;connectable=0;fillColor=none;top=0;left=0;bottom=0;right=0;align=left;spacingLeft=6;overflow=hidden;whiteSpace=wrap;html=1;" vertex="1" parent="7fOwP_-cTyCt3Tkq88IL-56">
          <mxGeometry x="30" width="223" height="30" as="geometry">
            <mxRectangle width="223" height="30" as="alternateBounds" />
          </mxGeometry>
        </mxCell>
        <mxCell id="7fOwP_-cTyCt3Tkq88IL-59" value="" style="shape=tableRow;horizontal=0;startSize=0;swimlaneHead=0;swimlaneBody=0;fillColor=none;collapsible=0;dropTarget=0;points=[[0,0.5],[1,0.5]];portConstraint=eastwest;top=0;left=0;right=0;bottom=0;" vertex="1" parent="7fOwP_-cTyCt3Tkq88IL-49">
          <mxGeometry y="120" width="253" height="30" as="geometry" />
        </mxCell>
        <mxCell id="7fOwP_-cTyCt3Tkq88IL-60" value="" style="shape=partialRectangle;connectable=0;fillColor=none;top=0;left=0;bottom=0;right=0;editable=1;overflow=hidden;whiteSpace=wrap;html=1;" vertex="1" parent="7fOwP_-cTyCt3Tkq88IL-59">
          <mxGeometry width="30" height="30" as="geometry">
            <mxRectangle width="30" height="30" as="alternateBounds" />
          </mxGeometry>
        </mxCell>
        <mxCell id="7fOwP_-cTyCt3Tkq88IL-61" value="logo_url VARCHAR(512) NOT NULL" style="shape=partialRectangle;connectable=0;fillColor=none;top=0;left=0;bottom=0;right=0;align=left;spacingLeft=6;overflow=hidden;whiteSpace=wrap;html=1;" vertex="1" parent="7fOwP_-cTyCt3Tkq88IL-59">
          <mxGeometry x="30" width="223" height="30" as="geometry">
            <mxRectangle width="223" height="30" as="alternateBounds" />
          </mxGeometry>
        </mxCell>
        <mxCell id="7fOwP_-cTyCt3Tkq88IL-62" value="" style="shape=tableRow;horizontal=0;startSize=0;swimlaneHead=0;swimlaneBody=0;fillColor=none;collapsible=0;dropTarget=0;points=[[0,0.5],[1,0.5]];portConstraint=eastwest;top=0;left=0;right=0;bottom=0;" vertex="1" parent="7fOwP_-cTyCt3Tkq88IL-49">
          <mxGeometry y="150" width="253" height="30" as="geometry" />
        </mxCell>
        <mxCell id="7fOwP_-cTyCt3Tkq88IL-63" value="" style="shape=partialRectangle;connectable=0;fillColor=none;top=0;left=0;bottom=0;right=0;editable=1;overflow=hidden;whiteSpace=wrap;html=1;" vertex="1" parent="7fOwP_-cTyCt3Tkq88IL-62">
          <mxGeometry width="30" height="30" as="geometry">
            <mxRectangle width="30" height="30" as="alternateBounds" />
          </mxGeometry>
        </mxCell>
        <mxCell id="7fOwP_-cTyCt3Tkq88IL-64" value="created_at TIMESTAMP NOT NULL" style="shape=partialRectangle;connectable=0;fillColor=none;top=0;left=0;bottom=0;right=0;align=left;spacingLeft=6;overflow=hidden;whiteSpace=wrap;html=1;" vertex="1" parent="7fOwP_-cTyCt3Tkq88IL-62">
          <mxGeometry x="30" width="223" height="30" as="geometry">
            <mxRectangle width="223" height="30" as="alternateBounds" />
          </mxGeometry>
        </mxCell>
        <mxCell id="7fOwP_-cTyCt3Tkq88IL-68" value="screens" style="shape=table;startSize=30;container=1;collapsible=1;childLayout=tableLayout;fixedRows=1;rowLines=0;fontStyle=1;align=center;resizeLast=1;html=1;" vertex="1" parent="1">
          <mxGeometry x="143" y="525" width="264" height="120" as="geometry" />
        </mxCell>
        <mxCell id="7fOwP_-cTyCt3Tkq88IL-69" value="" style="shape=tableRow;horizontal=0;startSize=0;swimlaneHead=0;swimlaneBody=0;fillColor=none;collapsible=0;dropTarget=0;points=[[0,0.5],[1,0.5]];portConstraint=eastwest;top=0;left=0;right=0;bottom=1;" vertex="1" parent="7fOwP_-cTyCt3Tkq88IL-68">
          <mxGeometry y="30" width="264" height="30" as="geometry" />
        </mxCell>
        <mxCell id="7fOwP_-cTyCt3Tkq88IL-70" value="PK" style="shape=partialRectangle;connectable=0;fillColor=none;top=0;left=0;bottom=0;right=0;fontStyle=1;overflow=hidden;whiteSpace=wrap;html=1;" vertex="1" parent="7fOwP_-cTyCt3Tkq88IL-69">
          <mxGeometry width="30" height="30" as="geometry">
            <mxRectangle width="30" height="30" as="alternateBounds" />
          </mxGeometry>
        </mxCell>
        <mxCell id="7fOwP_-cTyCt3Tkq88IL-71" value="id SERIAL" style="shape=partialRectangle;connectable=0;fillColor=none;top=0;left=0;bottom=0;right=0;align=left;spacingLeft=6;fontStyle=5;overflow=hidden;whiteSpace=wrap;html=1;" vertex="1" parent="7fOwP_-cTyCt3Tkq88IL-69">
          <mxGeometry x="30" width="234" height="30" as="geometry">
            <mxRectangle width="234" height="30" as="alternateBounds" />
          </mxGeometry>
        </mxCell>
        <mxCell id="7fOwP_-cTyCt3Tkq88IL-72" value="" style="shape=tableRow;horizontal=0;startSize=0;swimlaneHead=0;swimlaneBody=0;fillColor=none;collapsible=0;dropTarget=0;points=[[0,0.5],[1,0.5]];portConstraint=eastwest;top=0;left=0;right=0;bottom=0;" vertex="1" parent="7fOwP_-cTyCt3Tkq88IL-68">
          <mxGeometry y="60" width="264" height="30" as="geometry" />
        </mxCell>
        <mxCell id="7fOwP_-cTyCt3Tkq88IL-73" value="FK" style="shape=partialRectangle;connectable=0;fillColor=none;top=0;left=0;bottom=0;right=0;editable=1;overflow=hidden;whiteSpace=wrap;html=1;" vertex="1" parent="7fOwP_-cTyCt3Tkq88IL-72">
          <mxGeometry width="30" height="30" as="geometry">
            <mxRectangle width="30" height="30" as="alternateBounds" />
          </mxGeometry>
        </mxCell>
        <mxCell id="7fOwP_-cTyCt3Tkq88IL-74" value="theater_id INTEGER NOT NULL" style="shape=partialRectangle;connectable=0;fillColor=none;top=0;left=0;bottom=0;right=0;align=left;spacingLeft=6;overflow=hidden;whiteSpace=wrap;html=1;" vertex="1" parent="7fOwP_-cTyCt3Tkq88IL-72">
          <mxGeometry x="30" width="234" height="30" as="geometry">
            <mxRectangle width="234" height="30" as="alternateBounds" />
          </mxGeometry>
        </mxCell>
        <mxCell id="7fOwP_-cTyCt3Tkq88IL-75" value="" style="shape=tableRow;horizontal=0;startSize=0;swimlaneHead=0;swimlaneBody=0;fillColor=none;collapsible=0;dropTarget=0;points=[[0,0.5],[1,0.5]];portConstraint=eastwest;top=0;left=0;right=0;bottom=0;" vertex="1" parent="7fOwP_-cTyCt3Tkq88IL-68">
          <mxGeometry y="90" width="264" height="30" as="geometry" />
        </mxCell>
        <mxCell id="7fOwP_-cTyCt3Tkq88IL-76" value="" style="shape=partialRectangle;connectable=0;fillColor=none;top=0;left=0;bottom=0;right=0;editable=1;overflow=hidden;whiteSpace=wrap;html=1;" vertex="1" parent="7fOwP_-cTyCt3Tkq88IL-75">
          <mxGeometry width="30" height="30" as="geometry">
            <mxRectangle width="30" height="30" as="alternateBounds" />
          </mxGeometry>
        </mxCell>
        <mxCell id="7fOwP_-cTyCt3Tkq88IL-77" value="created_at TIMESTAMP NOT NULL" style="shape=partialRectangle;connectable=0;fillColor=none;top=0;left=0;bottom=0;right=0;align=left;spacingLeft=6;overflow=hidden;whiteSpace=wrap;html=1;" vertex="1" parent="7fOwP_-cTyCt3Tkq88IL-75">
          <mxGeometry x="30" width="234" height="30" as="geometry">
            <mxRectangle width="234" height="30" as="alternateBounds" />
          </mxGeometry>
        </mxCell>
        <mxCell id="7fOwP_-cTyCt3Tkq88IL-81" value="showtimes" style="shape=table;startSize=30;container=1;collapsible=1;childLayout=tableLayout;fixedRows=1;rowLines=0;fontStyle=1;align=center;resizeLast=1;html=1;" vertex="1" parent="1">
          <mxGeometry x="462" y="264" width="242" height="180" as="geometry" />
        </mxCell>
        <mxCell id="7fOwP_-cTyCt3Tkq88IL-82" value="" style="shape=tableRow;horizontal=0;startSize=0;swimlaneHead=0;swimlaneBody=0;fillColor=none;collapsible=0;dropTarget=0;points=[[0,0.5],[1,0.5]];portConstraint=eastwest;top=0;left=0;right=0;bottom=1;" vertex="1" parent="7fOwP_-cTyCt3Tkq88IL-81">
          <mxGeometry y="30" width="242" height="30" as="geometry" />
        </mxCell>
        <mxCell id="7fOwP_-cTyCt3Tkq88IL-83" value="PK" style="shape=partialRectangle;connectable=0;fillColor=none;top=0;left=0;bottom=0;right=0;fontStyle=1;overflow=hidden;whiteSpace=wrap;html=1;" vertex="1" parent="7fOwP_-cTyCt3Tkq88IL-82">
          <mxGeometry width="30" height="30" as="geometry">
            <mxRectangle width="30" height="30" as="alternateBounds" />
          </mxGeometry>
        </mxCell>
        <mxCell id="7fOwP_-cTyCt3Tkq88IL-84" value="id SERIAL" style="shape=partialRectangle;connectable=0;fillColor=none;top=0;left=0;bottom=0;right=0;align=left;spacingLeft=6;fontStyle=5;overflow=hidden;whiteSpace=wrap;html=1;" vertex="1" parent="7fOwP_-cTyCt3Tkq88IL-82">
          <mxGeometry x="30" width="212" height="30" as="geometry">
            <mxRectangle width="212" height="30" as="alternateBounds" />
          </mxGeometry>
        </mxCell>
        <mxCell id="7fOwP_-cTyCt3Tkq88IL-85" value="" style="shape=tableRow;horizontal=0;startSize=0;swimlaneHead=0;swimlaneBody=0;fillColor=none;collapsible=0;dropTarget=0;points=[[0,0.5],[1,0.5]];portConstraint=eastwest;top=0;left=0;right=0;bottom=0;" vertex="1" parent="7fOwP_-cTyCt3Tkq88IL-81">
          <mxGeometry y="60" width="242" height="30" as="geometry" />
        </mxCell>
        <mxCell id="7fOwP_-cTyCt3Tkq88IL-86" value="FK" style="shape=partialRectangle;connectable=0;fillColor=none;top=0;left=0;bottom=0;right=0;editable=1;overflow=hidden;whiteSpace=wrap;html=1;" vertex="1" parent="7fOwP_-cTyCt3Tkq88IL-85">
          <mxGeometry width="30" height="30" as="geometry">
            <mxRectangle width="30" height="30" as="alternateBounds" />
          </mxGeometry>
        </mxCell>
        <mxCell id="7fOwP_-cTyCt3Tkq88IL-87" value="screen_id INTEGER NOT NULL" style="shape=partialRectangle;connectable=0;fillColor=none;top=0;left=0;bottom=0;right=0;align=left;spacingLeft=6;overflow=hidden;whiteSpace=wrap;html=1;" vertex="1" parent="7fOwP_-cTyCt3Tkq88IL-85">
          <mxGeometry x="30" width="212" height="30" as="geometry">
            <mxRectangle width="212" height="30" as="alternateBounds" />
          </mxGeometry>
        </mxCell>
        <mxCell id="7fOwP_-cTyCt3Tkq88IL-88" value="" style="shape=tableRow;horizontal=0;startSize=0;swimlaneHead=0;swimlaneBody=0;fillColor=none;collapsible=0;dropTarget=0;points=[[0,0.5],[1,0.5]];portConstraint=eastwest;top=0;left=0;right=0;bottom=0;" vertex="1" parent="7fOwP_-cTyCt3Tkq88IL-81">
          <mxGeometry y="90" width="242" height="30" as="geometry" />
        </mxCell>
        <mxCell id="7fOwP_-cTyCt3Tkq88IL-89" value="FK" style="shape=partialRectangle;connectable=0;fillColor=none;top=0;left=0;bottom=0;right=0;editable=1;overflow=hidden;whiteSpace=wrap;html=1;" vertex="1" parent="7fOwP_-cTyCt3Tkq88IL-88">
          <mxGeometry width="30" height="30" as="geometry">
            <mxRectangle width="30" height="30" as="alternateBounds" />
          </mxGeometry>
        </mxCell>
        <mxCell id="7fOwP_-cTyCt3Tkq88IL-90" value="movie_id INTEGER NOT NULL" style="shape=partialRectangle;connectable=0;fillColor=none;top=0;left=0;bottom=0;right=0;align=left;spacingLeft=6;overflow=hidden;whiteSpace=wrap;html=1;" vertex="1" parent="7fOwP_-cTyCt3Tkq88IL-88">
          <mxGeometry x="30" width="212" height="30" as="geometry">
            <mxRectangle width="212" height="30" as="alternateBounds" />
          </mxGeometry>
        </mxCell>
        <mxCell id="7fOwP_-cTyCt3Tkq88IL-91" value="" style="shape=tableRow;horizontal=0;startSize=0;swimlaneHead=0;swimlaneBody=0;fillColor=none;collapsible=0;dropTarget=0;points=[[0,0.5],[1,0.5]];portConstraint=eastwest;top=0;left=0;right=0;bottom=0;" vertex="1" parent="7fOwP_-cTyCt3Tkq88IL-81">
          <mxGeometry y="120" width="242" height="30" as="geometry" />
        </mxCell>
        <mxCell id="7fOwP_-cTyCt3Tkq88IL-92" value="" style="shape=partialRectangle;connectable=0;fillColor=none;top=0;left=0;bottom=0;right=0;editable=1;overflow=hidden;whiteSpace=wrap;html=1;" vertex="1" parent="7fOwP_-cTyCt3Tkq88IL-91">
          <mxGeometry width="30" height="30" as="geometry">
            <mxRectangle width="30" height="30" as="alternateBounds" />
          </mxGeometry>
        </mxCell>
        <mxCell id="7fOwP_-cTyCt3Tkq88IL-93" value="start_time TIMESTAMP NOT NULL" style="shape=partialRectangle;connectable=0;fillColor=none;top=0;left=0;bottom=0;right=0;align=left;spacingLeft=6;overflow=hidden;whiteSpace=wrap;html=1;" vertex="1" parent="7fOwP_-cTyCt3Tkq88IL-91">
          <mxGeometry x="30" width="212" height="30" as="geometry">
            <mxRectangle width="212" height="30" as="alternateBounds" />
          </mxGeometry>
        </mxCell>
        <mxCell id="7fOwP_-cTyCt3Tkq88IL-94" value="" style="shape=tableRow;horizontal=0;startSize=0;swimlaneHead=0;swimlaneBody=0;fillColor=none;collapsible=0;dropTarget=0;points=[[0,0.5],[1,0.5]];portConstraint=eastwest;top=0;left=0;right=0;bottom=0;" vertex="1" parent="7fOwP_-cTyCt3Tkq88IL-81">
          <mxGeometry y="150" width="242" height="30" as="geometry" />
        </mxCell>
        <mxCell id="7fOwP_-cTyCt3Tkq88IL-95" value="" style="shape=partialRectangle;connectable=0;fillColor=none;top=0;left=0;bottom=0;right=0;editable=1;overflow=hidden;whiteSpace=wrap;html=1;" vertex="1" parent="7fOwP_-cTyCt3Tkq88IL-94">
          <mxGeometry width="30" height="30" as="geometry">
            <mxRectangle width="30" height="30" as="alternateBounds" />
          </mxGeometry>
        </mxCell>
        <mxCell id="7fOwP_-cTyCt3Tkq88IL-96" value="created_at TIMESTAMP NOT NULL" style="shape=partialRectangle;connectable=0;fillColor=none;top=0;left=0;bottom=0;right=0;align=left;spacingLeft=6;overflow=hidden;whiteSpace=wrap;html=1;" vertex="1" parent="7fOwP_-cTyCt3Tkq88IL-94">
          <mxGeometry x="30" width="212" height="30" as="geometry">
            <mxRectangle width="212" height="30" as="alternateBounds" />
          </mxGeometry>
        </mxCell>
        <mxCell id="7fOwP_-cTyCt3Tkq88IL-100" value="seats" style="shape=table;startSize=30;container=1;collapsible=1;childLayout=tableLayout;fixedRows=1;rowLines=0;fontStyle=1;align=center;resizeLast=1;html=1;" vertex="1" parent="1">
          <mxGeometry x="484" y="525" width="235" height="184" as="geometry" />
        </mxCell>
        <mxCell id="7fOwP_-cTyCt3Tkq88IL-101" value="" style="shape=tableRow;horizontal=0;startSize=0;swimlaneHead=0;swimlaneBody=0;fillColor=none;collapsible=0;dropTarget=0;points=[[0,0.5],[1,0.5]];portConstraint=eastwest;top=0;left=0;right=0;bottom=1;" vertex="1" parent="7fOwP_-cTyCt3Tkq88IL-100">
          <mxGeometry y="30" width="235" height="30" as="geometry" />
        </mxCell>
        <mxCell id="7fOwP_-cTyCt3Tkq88IL-102" value="PK" style="shape=partialRectangle;connectable=0;fillColor=none;top=0;left=0;bottom=0;right=0;fontStyle=1;overflow=hidden;whiteSpace=wrap;html=1;" vertex="1" parent="7fOwP_-cTyCt3Tkq88IL-101">
          <mxGeometry width="30" height="30" as="geometry">
            <mxRectangle width="30" height="30" as="alternateBounds" />
          </mxGeometry>
        </mxCell>
        <mxCell id="7fOwP_-cTyCt3Tkq88IL-103" value="id SERIAL" style="shape=partialRectangle;connectable=0;fillColor=none;top=0;left=0;bottom=0;right=0;align=left;spacingLeft=6;fontStyle=5;overflow=hidden;whiteSpace=wrap;html=1;" vertex="1" parent="7fOwP_-cTyCt3Tkq88IL-101">
          <mxGeometry x="30" width="205" height="30" as="geometry">
            <mxRectangle width="205" height="30" as="alternateBounds" />
          </mxGeometry>
        </mxCell>
        <mxCell id="7fOwP_-cTyCt3Tkq88IL-104" value="" style="shape=tableRow;horizontal=0;startSize=0;swimlaneHead=0;swimlaneBody=0;fillColor=none;collapsible=0;dropTarget=0;points=[[0,0.5],[1,0.5]];portConstraint=eastwest;top=0;left=0;right=0;bottom=0;" vertex="1" parent="7fOwP_-cTyCt3Tkq88IL-100">
          <mxGeometry y="60" width="235" height="30" as="geometry" />
        </mxCell>
        <mxCell id="7fOwP_-cTyCt3Tkq88IL-105" value="FK" style="shape=partialRectangle;connectable=0;fillColor=none;top=0;left=0;bottom=0;right=0;editable=1;overflow=hidden;whiteSpace=wrap;html=1;" vertex="1" parent="7fOwP_-cTyCt3Tkq88IL-104">
          <mxGeometry width="30" height="30" as="geometry">
            <mxRectangle width="30" height="30" as="alternateBounds" />
          </mxGeometry>
        </mxCell>
        <mxCell id="7fOwP_-cTyCt3Tkq88IL-106" value="screen_id INTEGER NOT NULL" style="shape=partialRectangle;connectable=0;fillColor=none;top=0;left=0;bottom=0;right=0;align=left;spacingLeft=6;overflow=hidden;whiteSpace=wrap;html=1;" vertex="1" parent="7fOwP_-cTyCt3Tkq88IL-104">
          <mxGeometry x="30" width="205" height="30" as="geometry">
            <mxRectangle width="205" height="30" as="alternateBounds" />
          </mxGeometry>
        </mxCell>
        <mxCell id="7fOwP_-cTyCt3Tkq88IL-107" value="" style="shape=tableRow;horizontal=0;startSize=0;swimlaneHead=0;swimlaneBody=0;fillColor=none;collapsible=0;dropTarget=0;points=[[0,0.5],[1,0.5]];portConstraint=eastwest;top=0;left=0;right=0;bottom=0;" vertex="1" parent="7fOwP_-cTyCt3Tkq88IL-100">
          <mxGeometry y="90" width="235" height="34" as="geometry" />
        </mxCell>
        <mxCell id="7fOwP_-cTyCt3Tkq88IL-108" value="" style="shape=partialRectangle;connectable=0;fillColor=none;top=0;left=0;bottom=0;right=0;editable=1;overflow=hidden;whiteSpace=wrap;html=1;" vertex="1" parent="7fOwP_-cTyCt3Tkq88IL-107">
          <mxGeometry width="30" height="34" as="geometry">
            <mxRectangle width="30" height="34" as="alternateBounds" />
          </mxGeometry>
        </mxCell>
        <mxCell id="7fOwP_-cTyCt3Tkq88IL-109" value="number VARCHAR(16) NOT NULL" style="shape=partialRectangle;connectable=0;fillColor=none;top=0;left=0;bottom=0;right=0;align=left;spacingLeft=6;overflow=hidden;whiteSpace=wrap;html=1;" vertex="1" parent="7fOwP_-cTyCt3Tkq88IL-107">
          <mxGeometry x="30" width="205" height="34" as="geometry">
            <mxRectangle width="205" height="34" as="alternateBounds" />
          </mxGeometry>
        </mxCell>
        <mxCell id="7fOwP_-cTyCt3Tkq88IL-110" value="" style="shape=tableRow;horizontal=0;startSize=0;swimlaneHead=0;swimlaneBody=0;fillColor=none;collapsible=0;dropTarget=0;points=[[0,0.5],[1,0.5]];portConstraint=eastwest;top=0;left=0;right=0;bottom=0;" vertex="1" parent="7fOwP_-cTyCt3Tkq88IL-100">
          <mxGeometry y="124" width="235" height="30" as="geometry" />
        </mxCell>
        <mxCell id="7fOwP_-cTyCt3Tkq88IL-111" value="FK" style="shape=partialRectangle;connectable=0;fillColor=none;top=0;left=0;bottom=0;right=0;editable=1;overflow=hidden;whiteSpace=wrap;html=1;" vertex="1" parent="7fOwP_-cTyCt3Tkq88IL-110">
          <mxGeometry width="30" height="30" as="geometry">
            <mxRectangle width="30" height="30" as="alternateBounds" />
          </mxGeometry>
        </mxCell>
        <mxCell id="7fOwP_-cTyCt3Tkq88IL-112" value="type VARCHAR(16) NOT NULL" style="shape=partialRectangle;connectable=0;fillColor=none;top=0;left=0;bottom=0;right=0;align=left;spacingLeft=6;overflow=hidden;whiteSpace=wrap;html=1;" vertex="1" parent="7fOwP_-cTyCt3Tkq88IL-110">
          <mxGeometry x="30" width="205" height="30" as="geometry">
            <mxRectangle width="205" height="30" as="alternateBounds" />
          </mxGeometry>
        </mxCell>
        <mxCell id="7fOwP_-cTyCt3Tkq88IL-113" value="" style="shape=tableRow;horizontal=0;startSize=0;swimlaneHead=0;swimlaneBody=0;fillColor=none;collapsible=0;dropTarget=0;points=[[0,0.5],[1,0.5]];portConstraint=eastwest;top=0;left=0;right=0;bottom=0;" vertex="1" parent="7fOwP_-cTyCt3Tkq88IL-100">
          <mxGeometry y="154" width="235" height="30" as="geometry" />
        </mxCell>
        <mxCell id="7fOwP_-cTyCt3Tkq88IL-114" value="" style="shape=partialRectangle;connectable=0;fillColor=none;top=0;left=0;bottom=0;right=0;editable=1;overflow=hidden;whiteSpace=wrap;html=1;" vertex="1" parent="7fOwP_-cTyCt3Tkq88IL-113">
          <mxGeometry width="30" height="30" as="geometry">
            <mxRectangle width="30" height="30" as="alternateBounds" />
          </mxGeometry>
        </mxCell>
        <mxCell id="7fOwP_-cTyCt3Tkq88IL-115" value="created_at TIMESTAMP NOT NULL" style="shape=partialRectangle;connectable=0;fillColor=none;top=0;left=0;bottom=0;right=0;align=left;spacingLeft=6;overflow=hidden;whiteSpace=wrap;html=1;" vertex="1" parent="7fOwP_-cTyCt3Tkq88IL-113">
          <mxGeometry x="30" width="205" height="30" as="geometry">
            <mxRectangle width="205" height="30" as="alternateBounds" />
          </mxGeometry>
        </mxCell>
        <mxCell id="7fOwP_-cTyCt3Tkq88IL-119" value="users" style="shape=table;startSize=30;container=1;collapsible=1;childLayout=tableLayout;fixedRows=1;rowLines=0;fontStyle=1;align=center;resizeLast=1;html=1;" vertex="1" parent="1">
          <mxGeometry x="-242" y="766" width="235" height="180" as="geometry" />
        </mxCell>
        <mxCell id="7fOwP_-cTyCt3Tkq88IL-120" value="" style="shape=tableRow;horizontal=0;startSize=0;swimlaneHead=0;swimlaneBody=0;fillColor=none;collapsible=0;dropTarget=0;points=[[0,0.5],[1,0.5]];portConstraint=eastwest;top=0;left=0;right=0;bottom=1;" vertex="1" parent="7fOwP_-cTyCt3Tkq88IL-119">
          <mxGeometry y="30" width="235" height="30" as="geometry" />
        </mxCell>
        <mxCell id="7fOwP_-cTyCt3Tkq88IL-121" value="PK" style="shape=partialRectangle;connectable=0;fillColor=none;top=0;left=0;bottom=0;right=0;fontStyle=1;overflow=hidden;whiteSpace=wrap;html=1;" vertex="1" parent="7fOwP_-cTyCt3Tkq88IL-120">
          <mxGeometry width="30" height="30" as="geometry">
            <mxRectangle width="30" height="30" as="alternateBounds" />
          </mxGeometry>
        </mxCell>
        <mxCell id="7fOwP_-cTyCt3Tkq88IL-122" value="id SERIAL" style="shape=partialRectangle;connectable=0;fillColor=none;top=0;left=0;bottom=0;right=0;align=left;spacingLeft=6;fontStyle=5;overflow=hidden;whiteSpace=wrap;html=1;" vertex="1" parent="7fOwP_-cTyCt3Tkq88IL-120">
          <mxGeometry x="30" width="205" height="30" as="geometry">
            <mxRectangle width="205" height="30" as="alternateBounds" />
          </mxGeometry>
        </mxCell>
        <mxCell id="7fOwP_-cTyCt3Tkq88IL-123" value="" style="shape=tableRow;horizontal=0;startSize=0;swimlaneHead=0;swimlaneBody=0;fillColor=none;collapsible=0;dropTarget=0;points=[[0,0.5],[1,0.5]];portConstraint=eastwest;top=0;left=0;right=0;bottom=0;" vertex="1" parent="7fOwP_-cTyCt3Tkq88IL-119">
          <mxGeometry y="60" width="235" height="30" as="geometry" />
        </mxCell>
        <mxCell id="7fOwP_-cTyCt3Tkq88IL-124" value="" style="shape=partialRectangle;connectable=0;fillColor=none;top=0;left=0;bottom=0;right=0;editable=1;overflow=hidden;whiteSpace=wrap;html=1;" vertex="1" parent="7fOwP_-cTyCt3Tkq88IL-123">
          <mxGeometry width="30" height="30" as="geometry">
            <mxRectangle width="30" height="30" as="alternateBounds" />
          </mxGeometry>
        </mxCell>
        <mxCell id="7fOwP_-cTyCt3Tkq88IL-125" value="name VARCHAR(256) NOT NULL" style="shape=partialRectangle;connectable=0;fillColor=none;top=0;left=0;bottom=0;right=0;align=left;spacingLeft=6;overflow=hidden;whiteSpace=wrap;html=1;" vertex="1" parent="7fOwP_-cTyCt3Tkq88IL-123">
          <mxGeometry x="30" width="205" height="30" as="geometry">
            <mxRectangle width="205" height="30" as="alternateBounds" />
          </mxGeometry>
        </mxCell>
        <mxCell id="7fOwP_-cTyCt3Tkq88IL-126" value="" style="shape=tableRow;horizontal=0;startSize=0;swimlaneHead=0;swimlaneBody=0;fillColor=none;collapsible=0;dropTarget=0;points=[[0,0.5],[1,0.5]];portConstraint=eastwest;top=0;left=0;right=0;bottom=0;" vertex="1" parent="7fOwP_-cTyCt3Tkq88IL-119">
          <mxGeometry y="90" width="235" height="30" as="geometry" />
        </mxCell>
        <mxCell id="7fOwP_-cTyCt3Tkq88IL-127" value="" style="shape=partialRectangle;connectable=0;fillColor=none;top=0;left=0;bottom=0;right=0;editable=1;overflow=hidden;whiteSpace=wrap;html=1;" vertex="1" parent="7fOwP_-cTyCt3Tkq88IL-126">
          <mxGeometry width="30" height="30" as="geometry">
            <mxRectangle width="30" height="30" as="alternateBounds" />
          </mxGeometry>
        </mxCell>
        <mxCell id="7fOwP_-cTyCt3Tkq88IL-128" value="email VARCHAR(256) NOT NULL" style="shape=partialRectangle;connectable=0;fillColor=none;top=0;left=0;bottom=0;right=0;align=left;spacingLeft=6;overflow=hidden;whiteSpace=wrap;html=1;" vertex="1" parent="7fOwP_-cTyCt3Tkq88IL-126">
          <mxGeometry x="30" width="205" height="30" as="geometry">
            <mxRectangle width="205" height="30" as="alternateBounds" />
          </mxGeometry>
        </mxCell>
        <mxCell id="7fOwP_-cTyCt3Tkq88IL-129" value="" style="shape=tableRow;horizontal=0;startSize=0;swimlaneHead=0;swimlaneBody=0;fillColor=none;collapsible=0;dropTarget=0;points=[[0,0.5],[1,0.5]];portConstraint=eastwest;top=0;left=0;right=0;bottom=0;" vertex="1" parent="7fOwP_-cTyCt3Tkq88IL-119">
          <mxGeometry y="120" width="235" height="30" as="geometry" />
        </mxCell>
        <mxCell id="7fOwP_-cTyCt3Tkq88IL-130" value="" style="shape=partialRectangle;connectable=0;fillColor=none;top=0;left=0;bottom=0;right=0;editable=1;overflow=hidden;whiteSpace=wrap;html=1;" vertex="1" parent="7fOwP_-cTyCt3Tkq88IL-129">
          <mxGeometry width="30" height="30" as="geometry">
            <mxRectangle width="30" height="30" as="alternateBounds" />
          </mxGeometry>
        </mxCell>
        <mxCell id="7fOwP_-cTyCt3Tkq88IL-131" value="password TEXT NOT NULL" style="shape=partialRectangle;connectable=0;fillColor=none;top=0;left=0;bottom=0;right=0;align=left;spacingLeft=6;overflow=hidden;whiteSpace=wrap;html=1;" vertex="1" parent="7fOwP_-cTyCt3Tkq88IL-129">
          <mxGeometry x="30" width="205" height="30" as="geometry">
            <mxRectangle width="205" height="30" as="alternateBounds" />
          </mxGeometry>
        </mxCell>
        <mxCell id="7fOwP_-cTyCt3Tkq88IL-132" value="" style="shape=tableRow;horizontal=0;startSize=0;swimlaneHead=0;swimlaneBody=0;fillColor=none;collapsible=0;dropTarget=0;points=[[0,0.5],[1,0.5]];portConstraint=eastwest;top=0;left=0;right=0;bottom=0;" vertex="1" parent="7fOwP_-cTyCt3Tkq88IL-119">
          <mxGeometry y="150" width="235" height="30" as="geometry" />
        </mxCell>
        <mxCell id="7fOwP_-cTyCt3Tkq88IL-133" value="" style="shape=partialRectangle;connectable=0;fillColor=none;top=0;left=0;bottom=0;right=0;editable=1;overflow=hidden;whiteSpace=wrap;html=1;" vertex="1" parent="7fOwP_-cTyCt3Tkq88IL-132">
          <mxGeometry width="30" height="30" as="geometry">
            <mxRectangle width="30" height="30" as="alternateBounds" />
          </mxGeometry>
        </mxCell>
        <mxCell id="7fOwP_-cTyCt3Tkq88IL-134" value="role" style="shape=partialRectangle;connectable=0;fillColor=none;top=0;left=0;bottom=0;right=0;align=left;spacingLeft=6;overflow=hidden;whiteSpace=wrap;html=1;" vertex="1" parent="7fOwP_-cTyCt3Tkq88IL-132">
          <mxGeometry x="30" width="205" height="30" as="geometry">
            <mxRectangle width="205" height="30" as="alternateBounds" />
          </mxGeometry>
        </mxCell>
        <mxCell id="7fOwP_-cTyCt3Tkq88IL-135" value="reservations" style="shape=table;startSize=30;container=1;collapsible=1;childLayout=tableLayout;fixedRows=1;rowLines=0;fontStyle=1;align=center;resizeLast=1;html=1;" vertex="1" parent="1">
          <mxGeometry x="88" y="748" width="246" height="150" as="geometry" />
        </mxCell>
        <mxCell id="7fOwP_-cTyCt3Tkq88IL-136" value="" style="shape=tableRow;horizontal=0;startSize=0;swimlaneHead=0;swimlaneBody=0;fillColor=none;collapsible=0;dropTarget=0;points=[[0,0.5],[1,0.5]];portConstraint=eastwest;top=0;left=0;right=0;bottom=1;" vertex="1" parent="7fOwP_-cTyCt3Tkq88IL-135">
          <mxGeometry y="30" width="246" height="30" as="geometry" />
        </mxCell>
        <mxCell id="7fOwP_-cTyCt3Tkq88IL-137" value="PK" style="shape=partialRectangle;connectable=0;fillColor=none;top=0;left=0;bottom=0;right=0;fontStyle=1;overflow=hidden;whiteSpace=wrap;html=1;" vertex="1" parent="7fOwP_-cTyCt3Tkq88IL-136">
          <mxGeometry width="30" height="30" as="geometry">
            <mxRectangle width="30" height="30" as="alternateBounds" />
          </mxGeometry>
        </mxCell>
        <mxCell id="7fOwP_-cTyCt3Tkq88IL-138" value="id SERIAL" style="shape=partialRectangle;connectable=0;fillColor=none;top=0;left=0;bottom=0;right=0;align=left;spacingLeft=6;fontStyle=5;overflow=hidden;whiteSpace=wrap;html=1;" vertex="1" parent="7fOwP_-cTyCt3Tkq88IL-136">
          <mxGeometry x="30" width="216" height="30" as="geometry">
            <mxRectangle width="216" height="30" as="alternateBounds" />
          </mxGeometry>
        </mxCell>
        <mxCell id="7fOwP_-cTyCt3Tkq88IL-142" value="" style="shape=tableRow;horizontal=0;startSize=0;swimlaneHead=0;swimlaneBody=0;fillColor=none;collapsible=0;dropTarget=0;points=[[0,0.5],[1,0.5]];portConstraint=eastwest;top=0;left=0;right=0;bottom=0;" vertex="1" parent="7fOwP_-cTyCt3Tkq88IL-135">
          <mxGeometry y="60" width="246" height="30" as="geometry" />
        </mxCell>
        <mxCell id="7fOwP_-cTyCt3Tkq88IL-143" value="FK" style="shape=partialRectangle;connectable=0;fillColor=none;top=0;left=0;bottom=0;right=0;editable=1;overflow=hidden;whiteSpace=wrap;html=1;" vertex="1" parent="7fOwP_-cTyCt3Tkq88IL-142">
          <mxGeometry width="30" height="30" as="geometry">
            <mxRectangle width="30" height="30" as="alternateBounds" />
          </mxGeometry>
        </mxCell>
        <mxCell id="7fOwP_-cTyCt3Tkq88IL-144" value="user_id INTEGER NOT NULL" style="shape=partialRectangle;connectable=0;fillColor=none;top=0;left=0;bottom=0;right=0;align=left;spacingLeft=6;overflow=hidden;whiteSpace=wrap;html=1;" vertex="1" parent="7fOwP_-cTyCt3Tkq88IL-142">
          <mxGeometry x="30" width="216" height="30" as="geometry">
            <mxRectangle width="216" height="30" as="alternateBounds" />
          </mxGeometry>
        </mxCell>
        <mxCell id="7fOwP_-cTyCt3Tkq88IL-145" value="" style="shape=tableRow;horizontal=0;startSize=0;swimlaneHead=0;swimlaneBody=0;fillColor=none;collapsible=0;dropTarget=0;points=[[0,0.5],[1,0.5]];portConstraint=eastwest;top=0;left=0;right=0;bottom=0;" vertex="1" parent="7fOwP_-cTyCt3Tkq88IL-135">
          <mxGeometry y="90" width="246" height="30" as="geometry" />
        </mxCell>
        <mxCell id="7fOwP_-cTyCt3Tkq88IL-146" value="FK" style="shape=partialRectangle;connectable=0;fillColor=none;top=0;left=0;bottom=0;right=0;editable=1;overflow=hidden;whiteSpace=wrap;html=1;" vertex="1" parent="7fOwP_-cTyCt3Tkq88IL-145">
          <mxGeometry width="30" height="30" as="geometry">
            <mxRectangle width="30" height="30" as="alternateBounds" />
          </mxGeometry>
        </mxCell>
        <mxCell id="7fOwP_-cTyCt3Tkq88IL-147" value="showtime_id INTEGER NOT NULL" style="shape=partialRectangle;connectable=0;fillColor=none;top=0;left=0;bottom=0;right=0;align=left;spacingLeft=6;overflow=hidden;whiteSpace=wrap;html=1;" vertex="1" parent="7fOwP_-cTyCt3Tkq88IL-145">
          <mxGeometry x="30" width="216" height="30" as="geometry">
            <mxRectangle width="216" height="30" as="alternateBounds" />
          </mxGeometry>
        </mxCell>
        <mxCell id="7fOwP_-cTyCt3Tkq88IL-148" value="" style="shape=tableRow;horizontal=0;startSize=0;swimlaneHead=0;swimlaneBody=0;fillColor=none;collapsible=0;dropTarget=0;points=[[0,0.5],[1,0.5]];portConstraint=eastwest;top=0;left=0;right=0;bottom=0;" vertex="1" parent="7fOwP_-cTyCt3Tkq88IL-135">
          <mxGeometry y="120" width="246" height="30" as="geometry" />
        </mxCell>
        <mxCell id="7fOwP_-cTyCt3Tkq88IL-149" value="" style="shape=partialRectangle;connectable=0;fillColor=none;top=0;left=0;bottom=0;right=0;editable=1;overflow=hidden;whiteSpace=wrap;html=1;" vertex="1" parent="7fOwP_-cTyCt3Tkq88IL-148">
          <mxGeometry width="30" height="30" as="geometry">
            <mxRectangle width="30" height="30" as="alternateBounds" />
          </mxGeometry>
        </mxCell>
        <mxCell id="7fOwP_-cTyCt3Tkq88IL-150" value="created_at TIMESTAMP NOT NULL" style="shape=partialRectangle;connectable=0;fillColor=none;top=0;left=0;bottom=0;right=0;align=left;spacingLeft=6;overflow=hidden;whiteSpace=wrap;html=1;" vertex="1" parent="7fOwP_-cTyCt3Tkq88IL-148">
          <mxGeometry x="30" width="216" height="30" as="geometry">
            <mxRectangle width="216" height="30" as="alternateBounds" />
          </mxGeometry>
        </mxCell>
        <mxCell id="7fOwP_-cTyCt3Tkq88IL-151" value="transactions" style="shape=table;startSize=30;container=1;collapsible=1;childLayout=tableLayout;fixedRows=1;rowLines=0;fontStyle=1;align=center;resizeLast=1;html=1;" vertex="1" parent="1">
          <mxGeometry x="55" y="1023" width="279" height="210" as="geometry" />
        </mxCell>
        <mxCell id="7fOwP_-cTyCt3Tkq88IL-152" value="" style="shape=tableRow;horizontal=0;startSize=0;swimlaneHead=0;swimlaneBody=0;fillColor=none;collapsible=0;dropTarget=0;points=[[0,0.5],[1,0.5]];portConstraint=eastwest;top=0;left=0;right=0;bottom=1;" vertex="1" parent="7fOwP_-cTyCt3Tkq88IL-151">
          <mxGeometry y="30" width="279" height="30" as="geometry" />
        </mxCell>
        <mxCell id="7fOwP_-cTyCt3Tkq88IL-153" value="PK" style="shape=partialRectangle;connectable=0;fillColor=none;top=0;left=0;bottom=0;right=0;fontStyle=1;overflow=hidden;whiteSpace=wrap;html=1;" vertex="1" parent="7fOwP_-cTyCt3Tkq88IL-152">
          <mxGeometry width="30" height="30" as="geometry">
            <mxRectangle width="30" height="30" as="alternateBounds" />
          </mxGeometry>
        </mxCell>
        <mxCell id="7fOwP_-cTyCt3Tkq88IL-154" value="id SERIAL" style="shape=partialRectangle;connectable=0;fillColor=none;top=0;left=0;bottom=0;right=0;align=left;spacingLeft=6;fontStyle=5;overflow=hidden;whiteSpace=wrap;html=1;" vertex="1" parent="7fOwP_-cTyCt3Tkq88IL-152">
          <mxGeometry x="30" width="249" height="30" as="geometry">
            <mxRectangle width="249" height="30" as="alternateBounds" />
          </mxGeometry>
        </mxCell>
        <mxCell id="7fOwP_-cTyCt3Tkq88IL-155" value="" style="shape=tableRow;horizontal=0;startSize=0;swimlaneHead=0;swimlaneBody=0;fillColor=none;collapsible=0;dropTarget=0;points=[[0,0.5],[1,0.5]];portConstraint=eastwest;top=0;left=0;right=0;bottom=0;" vertex="1" parent="7fOwP_-cTyCt3Tkq88IL-151">
          <mxGeometry y="60" width="279" height="30" as="geometry" />
        </mxCell>
        <mxCell id="7fOwP_-cTyCt3Tkq88IL-156" value="FK" style="shape=partialRectangle;connectable=0;fillColor=none;top=0;left=0;bottom=0;right=0;editable=1;overflow=hidden;whiteSpace=wrap;html=1;" vertex="1" parent="7fOwP_-cTyCt3Tkq88IL-155">
          <mxGeometry width="30" height="30" as="geometry">
            <mxRectangle width="30" height="30" as="alternateBounds" />
          </mxGeometry>
        </mxCell>
        <mxCell id="7fOwP_-cTyCt3Tkq88IL-157" value="reservation_id INTEGER NOT NULL" style="shape=partialRectangle;connectable=0;fillColor=none;top=0;left=0;bottom=0;right=0;align=left;spacingLeft=6;overflow=hidden;whiteSpace=wrap;html=1;" vertex="1" parent="7fOwP_-cTyCt3Tkq88IL-155">
          <mxGeometry x="30" width="249" height="30" as="geometry">
            <mxRectangle width="249" height="30" as="alternateBounds" />
          </mxGeometry>
        </mxCell>
        <mxCell id="7fOwP_-cTyCt3Tkq88IL-161" value="" style="shape=tableRow;horizontal=0;startSize=0;swimlaneHead=0;swimlaneBody=0;fillColor=none;collapsible=0;dropTarget=0;points=[[0,0.5],[1,0.5]];portConstraint=eastwest;top=0;left=0;right=0;bottom=0;" vertex="1" parent="7fOwP_-cTyCt3Tkq88IL-151">
          <mxGeometry y="90" width="279" height="30" as="geometry" />
        </mxCell>
        <mxCell id="7fOwP_-cTyCt3Tkq88IL-162" value="FK" style="shape=partialRectangle;connectable=0;fillColor=none;top=0;left=0;bottom=0;right=0;editable=1;overflow=hidden;whiteSpace=wrap;html=1;" vertex="1" parent="7fOwP_-cTyCt3Tkq88IL-161">
          <mxGeometry width="30" height="30" as="geometry">
            <mxRectangle width="30" height="30" as="alternateBounds" />
          </mxGeometry>
        </mxCell>
        <mxCell id="7fOwP_-cTyCt3Tkq88IL-163" value="payment_method_id INTEGER NOT NULL" style="shape=partialRectangle;connectable=0;fillColor=none;top=0;left=0;bottom=0;right=0;align=left;spacingLeft=6;overflow=hidden;whiteSpace=wrap;html=1;" vertex="1" parent="7fOwP_-cTyCt3Tkq88IL-161">
          <mxGeometry x="30" width="249" height="30" as="geometry">
            <mxRectangle width="249" height="30" as="alternateBounds" />
          </mxGeometry>
        </mxCell>
        <mxCell id="7fOwP_-cTyCt3Tkq88IL-164" value="" style="shape=tableRow;horizontal=0;startSize=0;swimlaneHead=0;swimlaneBody=0;fillColor=none;collapsible=0;dropTarget=0;points=[[0,0.5],[1,0.5]];portConstraint=eastwest;top=0;left=0;right=0;bottom=0;" vertex="1" parent="7fOwP_-cTyCt3Tkq88IL-151">
          <mxGeometry y="120" width="279" height="30" as="geometry" />
        </mxCell>
        <mxCell id="7fOwP_-cTyCt3Tkq88IL-165" value="" style="shape=partialRectangle;connectable=0;fillColor=none;top=0;left=0;bottom=0;right=0;editable=1;overflow=hidden;whiteSpace=wrap;html=1;" vertex="1" parent="7fOwP_-cTyCt3Tkq88IL-164">
          <mxGeometry width="30" height="30" as="geometry">
            <mxRectangle width="30" height="30" as="alternateBounds" />
          </mxGeometry>
        </mxCell>
        <mxCell id="7fOwP_-cTyCt3Tkq88IL-166" value="created_at TIMESTAMP NOT NULL" style="shape=partialRectangle;connectable=0;fillColor=none;top=0;left=0;bottom=0;right=0;align=left;spacingLeft=6;overflow=hidden;whiteSpace=wrap;html=1;" vertex="1" parent="7fOwP_-cTyCt3Tkq88IL-164">
          <mxGeometry x="30" width="249" height="30" as="geometry">
            <mxRectangle width="249" height="30" as="alternateBounds" />
          </mxGeometry>
        </mxCell>
        <mxCell id="7fOwP_-cTyCt3Tkq88IL-167" value="" style="shape=tableRow;horizontal=0;startSize=0;swimlaneHead=0;swimlaneBody=0;fillColor=none;collapsible=0;dropTarget=0;points=[[0,0.5],[1,0.5]];portConstraint=eastwest;top=0;left=0;right=0;bottom=0;" vertex="1" parent="7fOwP_-cTyCt3Tkq88IL-151">
          <mxGeometry y="150" width="279" height="30" as="geometry" />
        </mxCell>
        <mxCell id="7fOwP_-cTyCt3Tkq88IL-168" value="" style="shape=partialRectangle;connectable=0;fillColor=none;top=0;left=0;bottom=0;right=0;editable=1;overflow=hidden;whiteSpace=wrap;html=1;" vertex="1" parent="7fOwP_-cTyCt3Tkq88IL-167">
          <mxGeometry width="30" height="30" as="geometry">
            <mxRectangle width="30" height="30" as="alternateBounds" />
          </mxGeometry>
        </mxCell>
        <mxCell id="7fOwP_-cTyCt3Tkq88IL-169" value="updated_at TIMESTAMP NOT NULL" style="shape=partialRectangle;connectable=0;fillColor=none;top=0;left=0;bottom=0;right=0;align=left;spacingLeft=6;overflow=hidden;whiteSpace=wrap;html=1;" vertex="1" parent="7fOwP_-cTyCt3Tkq88IL-167">
          <mxGeometry x="30" width="249" height="30" as="geometry">
            <mxRectangle width="249" height="30" as="alternateBounds" />
          </mxGeometry>
        </mxCell>
        <mxCell id="7fOwP_-cTyCt3Tkq88IL-170" value="" style="shape=tableRow;horizontal=0;startSize=0;swimlaneHead=0;swimlaneBody=0;fillColor=none;collapsible=0;dropTarget=0;points=[[0,0.5],[1,0.5]];portConstraint=eastwest;top=0;left=0;right=0;bottom=0;" vertex="1" parent="7fOwP_-cTyCt3Tkq88IL-151">
          <mxGeometry y="180" width="279" height="30" as="geometry" />
        </mxCell>
        <mxCell id="7fOwP_-cTyCt3Tkq88IL-171" value="" style="shape=partialRectangle;connectable=0;fillColor=none;top=0;left=0;bottom=0;right=0;editable=1;overflow=hidden;whiteSpace=wrap;html=1;" vertex="1" parent="7fOwP_-cTyCt3Tkq88IL-170">
          <mxGeometry width="30" height="30" as="geometry">
            <mxRectangle width="30" height="30" as="alternateBounds" />
          </mxGeometry>
        </mxCell>
        <mxCell id="7fOwP_-cTyCt3Tkq88IL-172" value="status" style="shape=partialRectangle;connectable=0;fillColor=none;top=0;left=0;bottom=0;right=0;align=left;spacingLeft=6;overflow=hidden;whiteSpace=wrap;html=1;" vertex="1" parent="7fOwP_-cTyCt3Tkq88IL-170">
          <mxGeometry x="30" width="249" height="30" as="geometry">
            <mxRectangle width="249" height="30" as="alternateBounds" />
          </mxGeometry>
        </mxCell>
        <mxCell id="7fOwP_-cTyCt3Tkq88IL-173" value="payment_methods" style="shape=table;startSize=30;container=1;collapsible=1;childLayout=tableLayout;fixedRows=1;rowLines=0;fontStyle=1;align=center;resizeLast=1;html=1;" vertex="1" parent="1">
          <mxGeometry x="502" y="946" width="279" height="120" as="geometry" />
        </mxCell>
        <mxCell id="7fOwP_-cTyCt3Tkq88IL-174" value="" style="shape=tableRow;horizontal=0;startSize=0;swimlaneHead=0;swimlaneBody=0;fillColor=none;collapsible=0;dropTarget=0;points=[[0,0.5],[1,0.5]];portConstraint=eastwest;top=0;left=0;right=0;bottom=1;" vertex="1" parent="7fOwP_-cTyCt3Tkq88IL-173">
          <mxGeometry y="30" width="279" height="30" as="geometry" />
        </mxCell>
        <mxCell id="7fOwP_-cTyCt3Tkq88IL-175" value="PK" style="shape=partialRectangle;connectable=0;fillColor=none;top=0;left=0;bottom=0;right=0;fontStyle=1;overflow=hidden;whiteSpace=wrap;html=1;" vertex="1" parent="7fOwP_-cTyCt3Tkq88IL-174">
          <mxGeometry width="30" height="30" as="geometry">
            <mxRectangle width="30" height="30" as="alternateBounds" />
          </mxGeometry>
        </mxCell>
        <mxCell id="7fOwP_-cTyCt3Tkq88IL-176" value="id SERIAL" style="shape=partialRectangle;connectable=0;fillColor=none;top=0;left=0;bottom=0;right=0;align=left;spacingLeft=6;fontStyle=5;overflow=hidden;whiteSpace=wrap;html=1;" vertex="1" parent="7fOwP_-cTyCt3Tkq88IL-174">
          <mxGeometry x="30" width="249" height="30" as="geometry">
            <mxRectangle width="249" height="30" as="alternateBounds" />
          </mxGeometry>
        </mxCell>
        <mxCell id="7fOwP_-cTyCt3Tkq88IL-177" value="" style="shape=tableRow;horizontal=0;startSize=0;swimlaneHead=0;swimlaneBody=0;fillColor=none;collapsible=0;dropTarget=0;points=[[0,0.5],[1,0.5]];portConstraint=eastwest;top=0;left=0;right=0;bottom=0;" vertex="1" parent="7fOwP_-cTyCt3Tkq88IL-173">
          <mxGeometry y="60" width="279" height="30" as="geometry" />
        </mxCell>
        <mxCell id="7fOwP_-cTyCt3Tkq88IL-178" value="" style="shape=partialRectangle;connectable=0;fillColor=none;top=0;left=0;bottom=0;right=0;editable=1;overflow=hidden;whiteSpace=wrap;html=1;" vertex="1" parent="7fOwP_-cTyCt3Tkq88IL-177">
          <mxGeometry width="30" height="30" as="geometry">
            <mxRectangle width="30" height="30" as="alternateBounds" />
          </mxGeometry>
        </mxCell>
        <mxCell id="7fOwP_-cTyCt3Tkq88IL-179" value="method_name VARCHAR(256) NOT NULL" style="shape=partialRectangle;connectable=0;fillColor=none;top=0;left=0;bottom=0;right=0;align=left;spacingLeft=6;overflow=hidden;whiteSpace=wrap;html=1;" vertex="1" parent="7fOwP_-cTyCt3Tkq88IL-177">
          <mxGeometry x="30" width="249" height="30" as="geometry">
            <mxRectangle width="249" height="30" as="alternateBounds" />
          </mxGeometry>
        </mxCell>
        <mxCell id="7fOwP_-cTyCt3Tkq88IL-180" value="" style="shape=tableRow;horizontal=0;startSize=0;swimlaneHead=0;swimlaneBody=0;fillColor=none;collapsible=0;dropTarget=0;points=[[0,0.5],[1,0.5]];portConstraint=eastwest;top=0;left=0;right=0;bottom=0;" vertex="1" parent="7fOwP_-cTyCt3Tkq88IL-173">
          <mxGeometry y="90" width="279" height="30" as="geometry" />
        </mxCell>
        <mxCell id="7fOwP_-cTyCt3Tkq88IL-181" value="" style="shape=partialRectangle;connectable=0;fillColor=none;top=0;left=0;bottom=0;right=0;editable=1;overflow=hidden;whiteSpace=wrap;html=1;" vertex="1" parent="7fOwP_-cTyCt3Tkq88IL-180">
          <mxGeometry width="30" height="30" as="geometry">
            <mxRectangle width="30" height="30" as="alternateBounds" />
          </mxGeometry>
        </mxCell>
        <mxCell id="7fOwP_-cTyCt3Tkq88IL-182" value="created_at TIMESTAMP NOT NULL" style="shape=partialRectangle;connectable=0;fillColor=none;top=0;left=0;bottom=0;right=0;align=left;spacingLeft=6;overflow=hidden;whiteSpace=wrap;html=1;" vertex="1" parent="7fOwP_-cTyCt3Tkq88IL-180">
          <mxGeometry x="30" width="249" height="30" as="geometry">
            <mxRectangle width="249" height="30" as="alternateBounds" />
          </mxGeometry>
        </mxCell>
        <mxCell id="7fOwP_-cTyCt3Tkq88IL-186" style="edgeStyle=elbowEdgeStyle;shape=connector;rounded=0;orthogonalLoop=1;jettySize=auto;html=1;entryX=1;entryY=0.5;entryDx=0;entryDy=0;labelBackgroundColor=default;strokeColor=default;align=center;verticalAlign=middle;fontFamily=Helvetica;fontSize=12;fontColor=default;startArrow=ERmandOne;endArrow=ERzeroToMany;" edge="1" parent="1" source="7fOwP_-cTyCt3Tkq88IL-187" target="7fOwP_-cTyCt3Tkq88IL-104">
          <mxGeometry relative="1" as="geometry" />
        </mxCell>
        <mxCell id="7fOwP_-cTyCt3Tkq88IL-187" value="seat_types" style="shape=table;startSize=30;container=1;collapsible=1;childLayout=tableLayout;fixedRows=1;rowLines=0;fontStyle=1;align=center;resizeLast=1;html=1;" vertex="1" parent="1">
          <mxGeometry x="781" y="418" width="240" height="90" as="geometry" />
        </mxCell>
        <mxCell id="7fOwP_-cTyCt3Tkq88IL-188" value="" style="shape=tableRow;horizontal=0;startSize=0;swimlaneHead=0;swimlaneBody=0;fillColor=none;collapsible=0;dropTarget=0;points=[[0,0.5],[1,0.5]];portConstraint=eastwest;top=0;left=0;right=0;bottom=0;" vertex="1" parent="7fOwP_-cTyCt3Tkq88IL-187">
          <mxGeometry y="30" width="240" height="30" as="geometry" />
        </mxCell>
        <mxCell id="7fOwP_-cTyCt3Tkq88IL-189" value="&lt;b&gt;PK&lt;/b&gt;" style="shape=partialRectangle;connectable=0;fillColor=none;top=0;left=0;bottom=0;right=0;editable=1;overflow=hidden;whiteSpace=wrap;html=1;" vertex="1" parent="7fOwP_-cTyCt3Tkq88IL-188">
          <mxGeometry width="30" height="30" as="geometry">
            <mxRectangle width="30" height="30" as="alternateBounds" />
          </mxGeometry>
        </mxCell>
        <mxCell id="7fOwP_-cTyCt3Tkq88IL-190" value="type VARCHAR(16) NOT NULL" style="shape=partialRectangle;connectable=0;fillColor=none;top=0;left=0;bottom=0;right=0;align=left;spacingLeft=6;overflow=hidden;whiteSpace=wrap;html=1;" vertex="1" parent="7fOwP_-cTyCt3Tkq88IL-188">
          <mxGeometry x="30" width="210" height="30" as="geometry">
            <mxRectangle width="210" height="30" as="alternateBounds" />
          </mxGeometry>
        </mxCell>
        <mxCell id="7fOwP_-cTyCt3Tkq88IL-191" value="" style="shape=tableRow;horizontal=0;startSize=0;swimlaneHead=0;swimlaneBody=0;fillColor=none;collapsible=0;dropTarget=0;points=[[0,0.5],[1,0.5]];portConstraint=eastwest;top=0;left=0;right=0;bottom=0;" vertex="1" parent="7fOwP_-cTyCt3Tkq88IL-187">
          <mxGeometry y="60" width="240" height="30" as="geometry" />
        </mxCell>
        <mxCell id="7fOwP_-cTyCt3Tkq88IL-192" value="" style="shape=partialRectangle;connectable=0;fillColor=none;top=0;left=0;bottom=0;right=0;editable=1;overflow=hidden;whiteSpace=wrap;html=1;" vertex="1" parent="7fOwP_-cTyCt3Tkq88IL-191">
          <mxGeometry width="30" height="30" as="geometry">
            <mxRectangle width="30" height="30" as="alternateBounds" />
          </mxGeometry>
        </mxCell>
        <mxCell id="7fOwP_-cTyCt3Tkq88IL-193" value="price FLOAT NOT NULL" style="shape=partialRectangle;connectable=0;fillColor=none;top=0;left=0;bottom=0;right=0;align=left;spacingLeft=6;overflow=hidden;whiteSpace=wrap;html=1;" vertex="1" parent="7fOwP_-cTyCt3Tkq88IL-191">
          <mxGeometry x="30" width="210" height="30" as="geometry">
            <mxRectangle width="210" height="30" as="alternateBounds" />
          </mxGeometry>
        </mxCell>
        <mxCell id="7fOwP_-cTyCt3Tkq88IL-194" value="transaction_statuses &#xa;(ENUM)" style="swimlane;fontStyle=0;childLayout=stackLayout;horizontal=1;startSize=44;horizontalStack=0;resizeParent=1;resizeParentMax=0;resizeLast=0;collapsible=1;marginBottom=0;align=center;fontSize=14;" vertex="1" parent="1">
          <mxGeometry x="450" y="1144" width="160" height="164" as="geometry" />
        </mxCell>
        <mxCell id="7fOwP_-cTyCt3Tkq88IL-195" value="PENDING" style="text;strokeColor=none;fillColor=none;spacingLeft=4;spacingRight=4;overflow=hidden;rotatable=0;points=[[0,0.5],[1,0.5]];portConstraint=eastwest;fontSize=12;whiteSpace=wrap;html=1;" vertex="1" parent="7fOwP_-cTyCt3Tkq88IL-194">
          <mxGeometry y="44" width="160" height="30" as="geometry" />
        </mxCell>
        <mxCell id="7fOwP_-cTyCt3Tkq88IL-196" value="PROCESSING" style="text;strokeColor=none;fillColor=none;spacingLeft=4;spacingRight=4;overflow=hidden;rotatable=0;points=[[0,0.5],[1,0.5]];portConstraint=eastwest;fontSize=12;whiteSpace=wrap;html=1;" vertex="1" parent="7fOwP_-cTyCt3Tkq88IL-194">
          <mxGeometry y="74" width="160" height="30" as="geometry" />
        </mxCell>
        <mxCell id="7fOwP_-cTyCt3Tkq88IL-197" value="FAILED" style="text;strokeColor=none;fillColor=none;spacingLeft=4;spacingRight=4;overflow=hidden;rotatable=0;points=[[0,0.5],[1,0.5]];portConstraint=eastwest;fontSize=12;whiteSpace=wrap;html=1;" vertex="1" parent="7fOwP_-cTyCt3Tkq88IL-194">
          <mxGeometry y="104" width="160" height="30" as="geometry" />
        </mxCell>
        <mxCell id="7fOwP_-cTyCt3Tkq88IL-198" value="SUCCEED" style="text;strokeColor=none;fillColor=none;spacingLeft=4;spacingRight=4;overflow=hidden;rotatable=0;points=[[0,0.5],[1,0.5]];portConstraint=eastwest;fontSize=12;whiteSpace=wrap;html=1;" vertex="1" parent="7fOwP_-cTyCt3Tkq88IL-194">
          <mxGeometry y="134" width="160" height="30" as="geometry" />
        </mxCell>
        <mxCell id="7fOwP_-cTyCt3Tkq88IL-199" value="movie_images" style="shape=table;startSize=30;container=1;collapsible=1;childLayout=tableLayout;fixedRows=1;rowLines=0;fontStyle=1;align=center;resizeLast=1;html=1;" vertex="1" parent="1">
          <mxGeometry x="-253" y="297" width="257" height="90" as="geometry" />
        </mxCell>
        <mxCell id="7fOwP_-cTyCt3Tkq88IL-200" value="" style="shape=tableRow;horizontal=0;startSize=0;swimlaneHead=0;swimlaneBody=0;fillColor=none;collapsible=0;dropTarget=0;points=[[0,0.5],[1,0.5]];portConstraint=eastwest;top=0;left=0;right=0;bottom=0;" vertex="1" parent="7fOwP_-cTyCt3Tkq88IL-199">
          <mxGeometry y="30" width="257" height="30" as="geometry" />
        </mxCell>
        <mxCell id="7fOwP_-cTyCt3Tkq88IL-201" value="FK" style="shape=partialRectangle;connectable=0;fillColor=none;top=0;left=0;bottom=0;right=0;editable=1;overflow=hidden;whiteSpace=wrap;html=1;" vertex="1" parent="7fOwP_-cTyCt3Tkq88IL-200">
          <mxGeometry width="30" height="30" as="geometry">
            <mxRectangle width="30" height="30" as="alternateBounds" />
          </mxGeometry>
        </mxCell>
        <mxCell id="7fOwP_-cTyCt3Tkq88IL-202" value="movie_id INTEGER NOT NULL" style="shape=partialRectangle;connectable=0;fillColor=none;top=0;left=0;bottom=0;right=0;align=left;spacingLeft=6;overflow=hidden;whiteSpace=wrap;html=1;" vertex="1" parent="7fOwP_-cTyCt3Tkq88IL-200">
          <mxGeometry x="30" width="227" height="30" as="geometry">
            <mxRectangle width="227" height="30" as="alternateBounds" />
          </mxGeometry>
        </mxCell>
        <mxCell id="7fOwP_-cTyCt3Tkq88IL-203" value="" style="shape=tableRow;horizontal=0;startSize=0;swimlaneHead=0;swimlaneBody=0;fillColor=none;collapsible=0;dropTarget=0;points=[[0,0.5],[1,0.5]];portConstraint=eastwest;top=0;left=0;right=0;bottom=0;" vertex="1" parent="7fOwP_-cTyCt3Tkq88IL-199">
          <mxGeometry y="60" width="257" height="30" as="geometry" />
        </mxCell>
        <mxCell id="7fOwP_-cTyCt3Tkq88IL-204" value="" style="shape=partialRectangle;connectable=0;fillColor=none;top=0;left=0;bottom=0;right=0;editable=1;overflow=hidden;whiteSpace=wrap;html=1;" vertex="1" parent="7fOwP_-cTyCt3Tkq88IL-203">
          <mxGeometry width="30" height="30" as="geometry">
            <mxRectangle width="30" height="30" as="alternateBounds" />
          </mxGeometry>
        </mxCell>
        <mxCell id="7fOwP_-cTyCt3Tkq88IL-205" value="image_url VARCHAR(512) NOT NULL" style="shape=partialRectangle;connectable=0;fillColor=none;top=0;left=0;bottom=0;right=0;align=left;spacingLeft=6;overflow=hidden;whiteSpace=wrap;html=1;" vertex="1" parent="7fOwP_-cTyCt3Tkq88IL-203">
          <mxGeometry x="30" width="227" height="30" as="geometry">
            <mxRectangle width="227" height="30" as="alternateBounds" />
          </mxGeometry>
        </mxCell>
        <mxCell id="7fOwP_-cTyCt3Tkq88IL-206" value="user_roles&#xa;(ENUM)" style="swimlane;fontStyle=0;childLayout=stackLayout;horizontal=1;startSize=44;horizontalStack=0;resizeParent=1;resizeParentMax=0;resizeLast=0;collapsible=1;marginBottom=0;align=center;fontSize=14;" vertex="1" parent="1">
          <mxGeometry x="-484" y="778" width="160" height="104" as="geometry" />
        </mxCell>
        <mxCell id="7fOwP_-cTyCt3Tkq88IL-207" value="USER" style="text;strokeColor=none;fillColor=none;spacingLeft=4;spacingRight=4;overflow=hidden;rotatable=0;points=[[0,0.5],[1,0.5]];portConstraint=eastwest;fontSize=12;whiteSpace=wrap;html=1;" vertex="1" parent="7fOwP_-cTyCt3Tkq88IL-206">
          <mxGeometry y="44" width="160" height="30" as="geometry" />
        </mxCell>
        <mxCell id="7fOwP_-cTyCt3Tkq88IL-208" value="ADMIN" style="text;strokeColor=none;fillColor=none;spacingLeft=4;spacingRight=4;overflow=hidden;rotatable=0;points=[[0,0.5],[1,0.5]];portConstraint=eastwest;fontSize=12;whiteSpace=wrap;html=1;" vertex="1" parent="7fOwP_-cTyCt3Tkq88IL-206">
          <mxGeometry y="74" width="160" height="30" as="geometry" />
        </mxCell>
        <mxCell id="7fOwP_-cTyCt3Tkq88IL-209" value="" style="edgeStyle=elbowEdgeStyle;fontSize=12;html=1;endArrow=ERzeroToMany;startArrow=ERmandOne;rounded=0;exitX=1;exitY=0.5;exitDx=0;exitDy=0;entryX=0;entryY=0.5;entryDx=0;entryDy=0;" edge="1" parent="1" source="7fOwP_-cTyCt3Tkq88IL-14" target="7fOwP_-cTyCt3Tkq88IL-43">
          <mxGeometry width="100" height="100" relative="1" as="geometry">
            <mxPoint x="341" y="243" as="sourcePoint" />
            <mxPoint x="374" y="209" as="targetPoint" />
          </mxGeometry>
        </mxCell>
        <mxCell id="7fOwP_-cTyCt3Tkq88IL-210" value="" style="edgeStyle=elbowEdgeStyle;fontSize=12;html=1;endArrow=ERzeroToMany;startArrow=ERmandOne;rounded=0;exitX=0;exitY=0.5;exitDx=0;exitDy=0;entryX=1;entryY=0.5;entryDx=0;entryDy=0;" edge="1" parent="1" source="7fOwP_-cTyCt3Tkq88IL-33" target="7fOwP_-cTyCt3Tkq88IL-43">
          <mxGeometry width="100" height="100" relative="1" as="geometry">
            <mxPoint x="539" y="562" as="sourcePoint" />
            <mxPoint x="639" y="462" as="targetPoint" />
          </mxGeometry>
        </mxCell>
        <mxCell id="7fOwP_-cTyCt3Tkq88IL-211" value="" style="fontSize=12;html=1;endArrow=ERzeroToMany;startArrow=ERmandOne;rounded=0;labelBackgroundColor=default;strokeColor=default;align=center;verticalAlign=middle;fontFamily=Helvetica;fontColor=default;shape=connector;exitX=1;exitY=0.5;exitDx=0;exitDy=0;entryX=0;entryY=0.5;entryDx=0;entryDy=0;edgeStyle=elbowEdgeStyle;" edge="1" parent="1" source="7fOwP_-cTyCt3Tkq88IL-20" target="7fOwP_-cTyCt3Tkq88IL-88">
          <mxGeometry width="100" height="100" relative="1" as="geometry">
            <mxPoint x="495" y="474" as="sourcePoint" />
            <mxPoint x="595" y="374" as="targetPoint" />
          </mxGeometry>
        </mxCell>
        <mxCell id="7fOwP_-cTyCt3Tkq88IL-212" value="" style="edgeStyle=elbowEdgeStyle;fontSize=12;html=1;endArrow=ERzeroToMany;startArrow=ERmandOne;rounded=0;labelBackgroundColor=default;strokeColor=default;align=center;verticalAlign=middle;fontFamily=Helvetica;fontColor=default;shape=connector;exitX=1;exitY=0.5;exitDx=0;exitDy=0;entryX=0;entryY=0.5;entryDx=0;entryDy=0;" edge="1" parent="1" source="7fOwP_-cTyCt3Tkq88IL-56" target="7fOwP_-cTyCt3Tkq88IL-72">
          <mxGeometry width="100" height="100" relative="1" as="geometry">
            <mxPoint x="165" y="525" as="sourcePoint" />
            <mxPoint x="265" y="425" as="targetPoint" />
          </mxGeometry>
        </mxCell>
        <mxCell id="7fOwP_-cTyCt3Tkq88IL-213" value="" style="edgeStyle=elbowEdgeStyle;fontSize=12;html=1;endArrow=ERzeroToMany;startArrow=ERmandOne;rounded=0;labelBackgroundColor=default;strokeColor=default;align=center;verticalAlign=middle;fontFamily=Helvetica;fontColor=default;shape=connector;exitX=0;exitY=0.5;exitDx=0;exitDy=0;entryX=1;entryY=0.5;entryDx=0;entryDy=0;" edge="1" parent="1" source="7fOwP_-cTyCt3Tkq88IL-11" target="7fOwP_-cTyCt3Tkq88IL-200">
          <mxGeometry width="100" height="100" relative="1" as="geometry">
            <mxPoint x="286" y="529" as="sourcePoint" />
            <mxPoint x="386" y="429" as="targetPoint" />
          </mxGeometry>
        </mxCell>
        <mxCell id="7fOwP_-cTyCt3Tkq88IL-214" value="" style="edgeStyle=elbowEdgeStyle;fontSize=12;html=1;endArrow=ERzeroToMany;startArrow=ERmandOne;rounded=0;labelBackgroundColor=default;strokeColor=default;align=center;verticalAlign=middle;fontFamily=Helvetica;fontColor=default;shape=connector;exitX=1;exitY=0.5;exitDx=0;exitDy=0;entryX=0;entryY=0.5;entryDx=0;entryDy=0;" edge="1" parent="1" target="7fOwP_-cTyCt3Tkq88IL-142">
          <mxGeometry width="100" height="100" relative="1" as="geometry">
            <mxPoint x="4.000000000000227" y="858.5" as="sourcePoint" />
            <mxPoint x="154" y="825.5" as="targetPoint" />
          </mxGeometry>
        </mxCell>
        <mxCell id="7fOwP_-cTyCt3Tkq88IL-215" value="" style="edgeStyle=elbowEdgeStyle;fontSize=12;html=1;endArrow=ERzeroToMany;startArrow=ERmandOne;rounded=0;labelBackgroundColor=default;strokeColor=default;align=center;verticalAlign=middle;fontFamily=Helvetica;fontColor=default;shape=connector;exitX=1;exitY=0.5;exitDx=0;exitDy=0;entryX=0;entryY=0.5;entryDx=0;entryDy=0;" edge="1" parent="1" source="7fOwP_-cTyCt3Tkq88IL-129" target="7fOwP_-cTyCt3Tkq88IL-164">
          <mxGeometry width="100" height="100" relative="1" as="geometry">
            <mxPoint x="165" y="1035" as="sourcePoint" />
            <mxPoint x="154" y="1128" as="targetPoint" />
          </mxGeometry>
        </mxCell>
        <mxCell id="7fOwP_-cTyCt3Tkq88IL-216" value="" style="fontSize=12;html=1;endArrow=ERzeroToMany;startArrow=ERmandOne;rounded=0;labelBackgroundColor=default;strokeColor=default;align=center;verticalAlign=middle;fontFamily=Helvetica;fontColor=default;shape=connector;edgeStyle=elbowEdgeStyle;entryX=0;entryY=0.5;entryDx=0;entryDy=0;exitX=1;exitY=0.5;exitDx=0;exitDy=0;" edge="1" parent="1" target="7fOwP_-cTyCt3Tkq88IL-94" source="7fOwP_-cTyCt3Tkq88IL-72">
          <mxGeometry width="100" height="100" relative="1" as="geometry">
            <mxPoint x="378" y="572" as="sourcePoint" />
            <mxPoint x="462" y="365" as="targetPoint" />
            <Array as="points">
              <mxPoint x="440" y="517" />
              <mxPoint x="407" y="561" />
            </Array>
          </mxGeometry>
        </mxCell>
        <mxCell id="7fOwP_-cTyCt3Tkq88IL-217" value="reservation_details" style="shape=table;startSize=30;container=1;collapsible=1;childLayout=tableLayout;fixedRows=1;rowLines=0;fontStyle=1;align=center;resizeLast=1;html=1;" vertex="1" parent="1">
          <mxGeometry x="414" y="778" width="246" height="120" as="geometry" />
        </mxCell>
        <mxCell id="7fOwP_-cTyCt3Tkq88IL-218" value="" style="shape=tableRow;horizontal=0;startSize=0;swimlaneHead=0;swimlaneBody=0;fillColor=none;collapsible=0;dropTarget=0;points=[[0,0.5],[1,0.5]];portConstraint=eastwest;top=0;left=0;right=0;bottom=1;" vertex="1" parent="7fOwP_-cTyCt3Tkq88IL-217">
          <mxGeometry y="30" width="246" height="30" as="geometry" />
        </mxCell>
        <mxCell id="7fOwP_-cTyCt3Tkq88IL-219" value="PK" style="shape=partialRectangle;connectable=0;fillColor=none;top=0;left=0;bottom=0;right=0;fontStyle=1;overflow=hidden;whiteSpace=wrap;html=1;" vertex="1" parent="7fOwP_-cTyCt3Tkq88IL-218">
          <mxGeometry width="30" height="30" as="geometry">
            <mxRectangle width="30" height="30" as="alternateBounds" />
          </mxGeometry>
        </mxCell>
        <mxCell id="7fOwP_-cTyCt3Tkq88IL-220" value="id SERIAL" style="shape=partialRectangle;connectable=0;fillColor=none;top=0;left=0;bottom=0;right=0;align=left;spacingLeft=6;fontStyle=5;overflow=hidden;whiteSpace=wrap;html=1;" vertex="1" parent="7fOwP_-cTyCt3Tkq88IL-218">
          <mxGeometry x="30" width="216" height="30" as="geometry">
            <mxRectangle width="216" height="30" as="alternateBounds" />
          </mxGeometry>
        </mxCell>
        <mxCell id="7fOwP_-cTyCt3Tkq88IL-221" value="" style="shape=tableRow;horizontal=0;startSize=0;swimlaneHead=0;swimlaneBody=0;fillColor=none;collapsible=0;dropTarget=0;points=[[0,0.5],[1,0.5]];portConstraint=eastwest;top=0;left=0;right=0;bottom=0;" vertex="1" parent="7fOwP_-cTyCt3Tkq88IL-217">
          <mxGeometry y="60" width="246" height="30" as="geometry" />
        </mxCell>
        <mxCell id="7fOwP_-cTyCt3Tkq88IL-222" value="FK" style="shape=partialRectangle;connectable=0;fillColor=none;top=0;left=0;bottom=0;right=0;editable=1;overflow=hidden;whiteSpace=wrap;html=1;" vertex="1" parent="7fOwP_-cTyCt3Tkq88IL-221">
          <mxGeometry width="30" height="30" as="geometry">
            <mxRectangle width="30" height="30" as="alternateBounds" />
          </mxGeometry>
        </mxCell>
        <mxCell id="7fOwP_-cTyCt3Tkq88IL-223" value="reservation_id INTEGER NOT NULL" style="shape=partialRectangle;connectable=0;fillColor=none;top=0;left=0;bottom=0;right=0;align=left;spacingLeft=6;overflow=hidden;whiteSpace=wrap;html=1;" vertex="1" parent="7fOwP_-cTyCt3Tkq88IL-221">
          <mxGeometry x="30" width="216" height="30" as="geometry">
            <mxRectangle width="216" height="30" as="alternateBounds" />
          </mxGeometry>
        </mxCell>
        <mxCell id="7fOwP_-cTyCt3Tkq88IL-224" value="" style="shape=tableRow;horizontal=0;startSize=0;swimlaneHead=0;swimlaneBody=0;fillColor=none;collapsible=0;dropTarget=0;points=[[0,0.5],[1,0.5]];portConstraint=eastwest;top=0;left=0;right=0;bottom=0;" vertex="1" parent="7fOwP_-cTyCt3Tkq88IL-217">
          <mxGeometry y="90" width="246" height="30" as="geometry" />
        </mxCell>
        <mxCell id="7fOwP_-cTyCt3Tkq88IL-225" value="FK" style="shape=partialRectangle;connectable=0;fillColor=none;top=0;left=0;bottom=0;right=0;editable=1;overflow=hidden;whiteSpace=wrap;html=1;" vertex="1" parent="7fOwP_-cTyCt3Tkq88IL-224">
          <mxGeometry width="30" height="30" as="geometry">
            <mxRectangle width="30" height="30" as="alternateBounds" />
          </mxGeometry>
        </mxCell>
        <mxCell id="7fOwP_-cTyCt3Tkq88IL-226" value="seat_id INTEGER NOT NULL" style="shape=partialRectangle;connectable=0;fillColor=none;top=0;left=0;bottom=0;right=0;align=left;spacingLeft=6;overflow=hidden;whiteSpace=wrap;html=1;" vertex="1" parent="7fOwP_-cTyCt3Tkq88IL-224">
          <mxGeometry x="30" width="216" height="30" as="geometry">
            <mxRectangle width="216" height="30" as="alternateBounds" />
          </mxGeometry>
        </mxCell>
        <mxCell id="7fOwP_-cTyCt3Tkq88IL-227" value="" style="edgeStyle=elbowEdgeStyle;fontSize=12;html=1;endArrow=ERzeroToMany;startArrow=ERmandOne;rounded=0;labelBackgroundColor=default;strokeColor=default;align=center;verticalAlign=middle;fontFamily=Helvetica;fontColor=default;shape=connector;exitX=1;exitY=0.5;exitDx=0;exitDy=0;entryX=0;entryY=0.5;entryDx=0;entryDy=0;" edge="1" parent="1" source="7fOwP_-cTyCt3Tkq88IL-142" target="7fOwP_-cTyCt3Tkq88IL-221">
          <mxGeometry width="100" height="100" relative="1" as="geometry">
            <mxPoint x="264" y="936" as="sourcePoint" />
            <mxPoint x="616" y="1078" as="targetPoint" />
          </mxGeometry>
        </mxCell>
        <mxCell id="7fOwP_-cTyCt3Tkq88IL-228" value="" style="fontSize=12;html=1;endArrow=ERzeroToMany;startArrow=ERmandOne;rounded=0;labelBackgroundColor=default;strokeColor=default;align=center;verticalAlign=middle;fontFamily=Helvetica;fontColor=default;shape=connector;edgeStyle=elbowEdgeStyle;entryX=0;entryY=0.5;entryDx=0;entryDy=0;exitX=1;exitY=0.5;exitDx=0;exitDy=0;" edge="1" parent="1" source="7fOwP_-cTyCt3Tkq88IL-75" target="7fOwP_-cTyCt3Tkq88IL-107">
          <mxGeometry width="100" height="100" relative="1" as="geometry">
            <mxPoint x="389" y="583" as="sourcePoint" />
            <mxPoint x="473" y="440" as="targetPoint" />
          </mxGeometry>
        </mxCell>
        <mxCell id="7fOwP_-cTyCt3Tkq88IL-229" value="" style="fontSize=12;html=1;endArrow=ERzeroToMany;startArrow=ERmandOne;rounded=0;labelBackgroundColor=default;strokeColor=default;align=center;verticalAlign=middle;fontFamily=Helvetica;fontColor=default;shape=connector;edgeStyle=elbowEdgeStyle;entryX=1;entryY=0.5;entryDx=0;entryDy=0;exitX=1;exitY=0.5;exitDx=0;exitDy=0;" edge="1" parent="1" source="7fOwP_-cTyCt3Tkq88IL-107" target="7fOwP_-cTyCt3Tkq88IL-221">
          <mxGeometry width="100" height="100" relative="1" as="geometry">
            <mxPoint x="389" y="641" as="sourcePoint" />
            <mxPoint x="550" y="643" as="targetPoint" />
            <Array as="points">
              <mxPoint x="748" y="759" />
            </Array>
          </mxGeometry>
        </mxCell>
        <mxCell id="7fOwP_-cTyCt3Tkq88IL-230" value="" style="edgeStyle=elbowEdgeStyle;fontSize=12;html=1;endArrow=ERmandOne;startArrow=ERmandOne;rounded=0;labelBackgroundColor=default;strokeColor=default;align=center;verticalAlign=middle;fontFamily=Helvetica;fontColor=default;shape=connector;exitX=1;exitY=0.5;exitDx=0;exitDy=0;entryX=1;entryY=0.5;entryDx=0;entryDy=0;" edge="1" parent="1" source="7fOwP_-cTyCt3Tkq88IL-148" target="7fOwP_-cTyCt3Tkq88IL-155">
          <mxGeometry width="100" height="100" relative="1" as="geometry">
            <mxPoint x="388" y="868.9999999999998" as="sourcePoint" />
            <mxPoint x="462" y="979" as="targetPoint" />
            <Array as="points">
              <mxPoint x="374" y="990" />
            </Array>
          </mxGeometry>
        </mxCell>
        <mxCell id="7fOwP_-cTyCt3Tkq88IL-231" style="edgeStyle=elbowEdgeStyle;shape=connector;rounded=0;orthogonalLoop=1;jettySize=auto;html=1;exitX=0.75;exitY=0;exitDx=0;exitDy=0;labelBackgroundColor=default;strokeColor=default;align=center;verticalAlign=middle;fontFamily=Helvetica;fontSize=12;fontColor=default;startArrow=ERmandOne;endArrow=ERzeroToMany;" edge="1" parent="1" source="7fOwP_-cTyCt3Tkq88IL-206" target="7fOwP_-cTyCt3Tkq88IL-206">
          <mxGeometry relative="1" as="geometry" />
        </mxCell>
        <mxCell id="7fOwP_-cTyCt3Tkq88IL-232" value="" style="edgeStyle=elbowEdgeStyle;fontSize=12;html=1;endArrow=ERzeroToMany;startArrow=ERmandOne;rounded=0;labelBackgroundColor=default;strokeColor=default;align=center;verticalAlign=middle;fontFamily=Helvetica;fontColor=default;shape=connector;exitX=0;exitY=0.5;exitDx=0;exitDy=0;entryX=1;entryY=0.5;entryDx=0;entryDy=0;" edge="1" parent="1" source="7fOwP_-cTyCt3Tkq88IL-180" target="7fOwP_-cTyCt3Tkq88IL-164">
          <mxGeometry width="100" height="100" relative="1" as="geometry">
            <mxPoint x="345" y="864" as="sourcePoint" />
            <mxPoint x="425" y="864" as="targetPoint" />
          </mxGeometry>
        </mxCell>
        <mxCell id="7fOwP_-cTyCt3Tkq88IL-233" value="" style="endArrow=none;html=1;rounded=0;labelBackgroundColor=default;strokeColor=default;align=center;verticalAlign=middle;fontFamily=Helvetica;fontSize=12;fontColor=default;shape=connector;edgeStyle=elbowEdgeStyle;exitX=0;exitY=0.5;exitDx=0;exitDy=0;entryX=1;entryY=0.5;entryDx=0;entryDy=0;" edge="1" parent="1" source="7fOwP_-cTyCt3Tkq88IL-126" target="7fOwP_-cTyCt3Tkq88IL-207">
          <mxGeometry relative="1" as="geometry">
            <mxPoint y="1023" as="sourcePoint" />
            <mxPoint x="160" y="1023" as="targetPoint" />
          </mxGeometry>
        </mxCell>
        <mxCell id="7fOwP_-cTyCt3Tkq88IL-234" value="" style="endArrow=none;html=1;rounded=0;labelBackgroundColor=default;strokeColor=default;align=center;verticalAlign=middle;fontFamily=Helvetica;fontSize=12;fontColor=default;shape=connector;edgeStyle=elbowEdgeStyle;exitX=0;exitY=0.5;exitDx=0;exitDy=0;entryX=1;entryY=0.5;entryDx=0;entryDy=0;" edge="1" parent="1" source="7fOwP_-cTyCt3Tkq88IL-196" target="7fOwP_-cTyCt3Tkq88IL-170">
          <mxGeometry relative="1" as="geometry">
            <mxPoint x="-165" y="897" as="sourcePoint" />
            <mxPoint x="-269" y="917" as="targetPoint" />
          </mxGeometry>
        </mxCell>
        <mxCell id="0_UsQLyLMJx6MDJlG9ay-1" style="edgeStyle=elbowEdgeStyle;shape=connector;rounded=0;orthogonalLoop=1;jettySize=auto;html=1;exitX=0.75;exitY=0;exitDx=0;exitDy=0;labelBackgroundColor=default;strokeColor=default;align=center;verticalAlign=middle;fontFamily=Helvetica;fontSize=12;fontColor=default;startArrow=ERmandOne;endArrow=ERzeroToMany;" edge="1" parent="1" source="7fOwP_-cTyCt3Tkq88IL-199" target="7fOwP_-cTyCt3Tkq88IL-199">
          <mxGeometry relative="1" as="geometry" />
        </mxCell>
      </root>
    </mxGraphModel>
  </diagram>
</mxfile>
